<?xml version="1.0" encoding="UTF-8"?>
<svg version="1.1" viewBox="0 0 2048 1185" width="1280" height="1280" xmlns="http://www.w3.org/2000/svg">
<path transform="translate(0)" d="m0 0h2048v1185h-2048z" fill="#00B4CC"/>
<path transform="translate(660,466)" d="m0 0h738l1 2v76h9l7 3 6 7 7 12 8 8 1 7 1 5 6 7 2 5v9l-4 6-2 2 1 6 4 6 1 4v8l-4 6-3 1 2 6 2 3v12l-4 6-10 6v14l-4 7-10 6-16 5-1 125-33 1h-704l-1-1v-125l-12-3-14-7-5-8v-14l-10-6-4-6-1-9 4-9v-4l-4-2-2-3v-11l4-8 2-2-1-5-4-5-1-3v-10l4-6 4-4v-10l9-9 10-17 5-5 12-2h4z" fill="#F5F6F6"/>
<path transform="translate(781,836)" d="m0 0h494l-2 9-11 35-12 35-14 43-18 55-16 48-14 43-12 37-9 27-5 16-1 1h-265l-16-50-14-42-14-43-16-48-14-43-15-45-14-43-11-33z" fill="#00B4CD"/>
<path transform="translate(672,100)" d="m0 0h9l10 6 7 10 3 10 1 7v10l-3 15-4 8-5 5-12 8-1 5h8l18-4 17-6 19-9 10-1 7 3 4 5 2 4v9l-5 6h-2v4l10 3 6 5 3 9-1 11-4 6-3 2 1 5 4 4 2 5v9l-4 6-5 4-7 3 3 5 5 6 1 4-3 6-9 9-13 8-13 6-15 5-22 4h-30l-38-3-13 1-8 6-5 1 7 18v4l-33 5-146 18-70 9-214 27-74 9-62 8h-5v-152l51-6 94-11 43-5 31-4 37-4 31-4 30-3 39-5 20-2 17-2 120-14 26-3h11l8 18 12-4h4l4 10h3l2-5 5-8 7-14 7-16 7-10 8-8 13-8 20-11 9-7 6-9 3-9v-11l-1-4v-7z" fill="#F0605C"/>
<path transform="translate(1443,178)" d="m0 0 10 2 86 25 254 74 251 73 4 1v155l-11-3-324-98-119-36-149-45-3-2v-119z" fill="#008A4F"/>
<path transform="translate(955,548)" d="m0 0h16l12 4 9 7 8 11 2 6 4 2 6 13 3 11 3 35 1 10h2l1-7 1-87 6-3 10-2h16l11 4 8 8 5 9 3 14v27l-3 13-8 16 7 9 4 9 3 14v11l1 7-2 18-4 15-7 12-11 8-12 4h-20l-6-4-2-12-1-32-7 1 1 3-2 14-3 5-9 13-4 2-2 5-7 6-7 3h-26l-9-2-5-5v-2h-2l-3-11 1-3-2 2 1 5-1 2-1 13h-23l-27-1-8-2-2-3-2-26 1-21h-2l-2-4 2-4v-2l-2-1 5-3h2l-2-5-1-17-1-6 1-7 1-97h52v37h-31l1 39h29l4 10 1 11 4 6 2-2 1-3 1-14 1-81 6-3z" fill="#C5C8C7"/>
<path transform="translate(693,837)" d="m0 0h89l5 12 14 43 24 73 32 97 14 43 25 76v4h-87l-3-8-12-35-12-36-13-40-14-41-62-186z" fill="#414343"/>
<path transform="translate(1276,836)" d="m0 0 89 1-12 37-72 216-14 41-18 54h-88l6-20 12-37 12-36 57-173 12-37 15-45z" fill="#414343"/>
<path transform="translate(1299,161)" d="m0 0h19l16 2 15 4 16 6 17 8 24 14 21 10h3l1-7 1-1 10 1 1 1v76l-1 28-1 1-20-1v-13l-8 7-13 9-12 11-14 11-13 5-17 3-25 2-10 3-10 6-5 6-5 10-3 9-5 4-7-1-7-6-4-9-1-4v-12l3-12 7-13 10-11 10-4 15-3 1-5-10-3-23-4-16-1h-19l-6-3-4-5-2-6 1-8 5-6 6-4-1-4-5-5-3-8 2-9 6-9 9-5-1-13 3-7 6-6 3-1 12-1-1-6-1-2v-8l5-5 11-4z" fill="#F1C6A3"/>
<path transform="translate(672,100)" d="m0 0h9l10 6 7 10 3 10 1 7v10l-3 15-4 8-5 5-12 8-1 5h8l18-4 17-6 19-9 10-1 7 3 4 5 2 4v9l-5 6h-2v4l10 3 6 5 3 9-1 11-4 6-3 2 1 5 4 4 2 5v9l-4 6-5 4-7 3 3 5 5 6 1 4-3 6-9 9-13 8-13 6-15 5-22 4h-30l-38-3-13 1-8 6-6 1-18-46-15-37-5-13 1-3 11-4h4l4 10h3l2-5 5-8 7-14 7-16 7-10 8-8 13-8 20-11 9-7 6-9 3-9v-11l-1-4v-7z" fill="#F1C6A3"/>
<path transform="translate(1398,544)" d="m0 0h10l7 3 6 7 7 12 8 8 1 7 1 5 6 7 2 5v9l-4 6-2 2 1 6 4 6 1 4v8l-4 6-3 1 2 6 2 3v12l-4 6-10 6v14l-4 7-10 6-16 5-2-4-4-9-5-5-11-6-12-5-5-6v-6l3-3 1-3-6-2-4-4-1-9 3-6 4-3-1-4-3-4v-10l5-6 6-3h2l-4-7v-7l4-5 12-6 16-5z" fill="#F1C6A3"/>
<path transform="translate(656,543)" d="m0 0 4 1v40l11 2 12 5 6 4 3 4 1 7-4 5v2l8 4 4 4 1 3v7l-4 6-1 3 5 4 2 4v9l-3 5-6 2 1 5 1 2v6l-4 5-4 2-12 3-10 5-5 9-2 10-12-3-14-7-5-8v-14l-10-6-4-6-1-9 4-9v-4l-4-2-2-3v-11l4-8 2-2-1-5-4-5-1-3v-10l4-6 4-4v-10l9-9 10-17 5-5z" fill="#F1C6A3"/>
<path transform="translate(1039,548)" d="m0 0h16l11 4 8 8 5 9 3 14v27l-3 13-8 16 7 9 4 9 3 14v11l1 7-2 18-4 15-7 12-11 8-12 4h-20l-6-4-1-14v-45l2-1h17l2 1v27l1 1h8l5-3 4-7 3-18-1-7-3-10-7-6-10-1-1 18-2 2h-16l-1-3-1-19v-104l6-3z" fill="#434243"/>
<path transform="translate(1115,550)" d="m0 0h26l25 187v6h-20l-2-7-5-36v-6h-23l-1 16-4 32-1 1h-19l1-16 6-44 8-64z" fill="#434243"/>
<path transform="translate(1246,549)" d="m0 0h17l1 1 1 78 7-25 15-53h24l-2 9-12 36-11 34 1 11 26 101v2h-22l-5-16-14-58-2-5-3 9-2 7-1 63h-18l-1-1v-192z" fill="#434243"/>
<path transform="translate(810,550)" d="m0 0h52l1 37h-33l1 20v19h28l1 6v30l-4 1h-21l-4-1-1 14-2 4-8 1 9 1 1 1 1 24h31l2 5v31l-1 1h-52l-1-2z" fill="#444243"/>
<path transform="translate(1208,547)" d="m0 0h13l10 5 4 4-2 19-2 15-5-2-9-4-8 1-7 6-7 14-4 20-1 11v19l3 24 4 13 6 10 6 5 2 1h8l10-5h2l2 19 1 15-5 5-9 4h-14l-8-3-7-6-7-10-6-13-4-13-4-24-1-14v-28l3-29 4-17 6-16 6-11 8-9 9-5z" fill="#434243"/>
<path transform="translate(746,550)" d="m0 0h51l1 37h-32l1 42 28 1v36h-29l1 14v32l-1 32h-12l-8-1z" fill="#434243"/>
<path transform="translate(955,548)" d="m0 0h16l12 4 9 7 8 11 5 12 5 21 2 16 1 29v16l-1 10-4 4h-16l-2-2 1-19v-29l-2-15-3-12-6-11-8-6h-14l1 62 1 14-1 16-4 2h-13l-3-3v-122l6-3z" fill="#434243"/>
<path transform="translate(875,550)" d="m0 0h51v37h-31l1 39h28l1 22v12l-1 1-22 2-4-1-2 2v11l-3 2-16 1-2-3-1-18z" fill="#434243"/>
<path transform="translate(989,682)" d="m0 0h18l4 2-2 6-4 16-4 12-7 11-5 6-14 8-6 3-5 1-19-1-5-5-1-6v-25l1-12-2-4v-9l2-2h19l1 3v10l-1 2v11h11l6-3 7-9 3-12z" fill="#444243"/>
<path transform="translate(1e3 576)" d="m0 0 4 4 5 11 3 11 3 35 1 10h2l2-20h1v33l1 19 16-1 1-1 2-18h10l8 7 4 13-2 18-3 8-4 5-4 2h-8l-2-2v-24l1-3h-21l1 12v33l-2 2-1-32-7 1 1 3-2 14-3 5-9 13-4 2-2 5-7 6-7 3h-26l-9-2-1-2h19l9-3 11-6 6-4 9-13 3-7 6-21 1-6 1-2-3-1-18-1v-15l1-5h1v14l1 1h16l3-3 1-13v-13l-1-29-3-21-5-19z" fill="#C9C9C8"/>
<path transform="translate(876,682)" d="m0 0 18 1 1 3-1 4 5 2-1 3-4 4 3 6v2l30 1 2 6-1 30-5 1-14 1h-13l-19-2-2-2-1-31 1-13-1-7v-6z" fill="#464243"/>
<path transform="translate(970,585)" d="m0 0 7 1 6 7 5 11 3 14 1 10v34h-2l-1 21-6 1h-16l-12-2 5-5 7-3 9-1-3-4-7-3v-5l6-4 1-2-6-4-4-5v-50l3-7 3-1z" fill="#F5F6F6"/>
<path transform="translate(933,658)" d="m0 0h4l1 2v13l3 9-2 4v8l2 5-1 11v31h-1l-3-11 1-3-2 2 1 5-1 2-1 13h-23l-27-1-8-2-2-3-2-26 1-21h-2l-2-4 2-4v-2l-2-1 5-3 2 1-1 3v9l1 5-1 18 1 24 1 1 19 2h13l19-1v-30l-1-6h-28l-4-4-2-5 5-5v-4l2-1v-2l9-2-20-3 3-2 6-5 7-1h16l14-1-3-5-1-5-2-2z" fill="#C7C8C8"/>
<path transform="translate(1432,197)" d="m0 0 10 1 1 1v76l-1 28-1 1-20-1 1-23 7-67 2-15z" fill="#F4F5F5"/>
<path transform="translate(570,222)" d="m0 0h4l6 16 14 43 13 39-5 4-6 1-18-46-15-37-5-13 1-3z" fill="#F5F5F3"/>
<path transform="translate(1311,550)" d="m0 0 5 5-1 9-13 38-10 31-1 2v8l4 9 14 55 9 34 1 9h-18l-6-2-4-5h22l-5-18-22-85-1-11 14-43z" fill="#CAC9C8"/>
<path transform="translate(1141,551)" d="m0 0 5 5 2 8 5 38 3 25 3 22 2 11 2 16 9 62v12h-16l-6-1-4-6h20l-12-88-13-98z" fill="#C9C8C8"/>
<path transform="translate(1009,682)" d="m0 0 14 1 1 12v33l-2 2-1-32-7 1 1 3-2 14-3 5-9 13-4 2-2 5-7 6-7 3h-26l-9-2-1-2h19l9-3 11-6 6-4 9-13 3-7 6-21 1-6v-3z" fill="#C8C8C8"/>
<path transform="translate(1078,648)" d="m0 0 5 5 4 6 3 12-1 9-1 2 5 2-2 4 2 6-2 12-3 16-4 12-8 10-8 5-11 2h-15l-12-3-2-3h22l14-5 8-6 7-12 4-15 2-21-1-6v-9l-3-14z" fill="#CAC9C8"/>
<path transform="translate(1056,663)" d="m0 0 4 1 3 4 3 11-2 18-3 8-4 5-4 2h-8l-2-2v-24l1-3h-2l2-4 4-4 2-1 1-8z" fill="#F2F3F3"/>
<path transform="translate(1044,581)" d="m0 0h9l6 4 3 6 1 4v15l-4 10-7 6h-8l-1-1v-43z" fill="#F4F5F5"/>
<path transform="translate(1212,583)" d="m0 0 8 1 5 2v1h-5v2l-8 1v2l-6 5-5 10-3 11-2 14v20l2 22 2 17v7l-3-4-4-11-3-17-1-11v-19l2-18 4-16 6-11 8-7z" fill="#C9C8C8"/>
<path transform="translate(960,583)" d="m0 0h12l2 2-4 1-5 6-1 4v50l5 6 5 2-1 4-6 3v5l7 3 2 4-9 2-8 3v-22l-1-12v-60z" fill="#C8C8C8"/>
<path transform="translate(1270,663)" d="m0 0 2 3 2 7-2 8-1 68-2 1h-10l-10-2-3-5h18v-63l4-11z" fill="#CAC9C8"/>
<path transform="translate(795,630)" d="m0 0 2 4 2 2 1 35-1 1h-30l1 37v40l-20-2-3-1-1-3 20 1v-78h29z" fill="#CBCAC9"/>
<path transform="translate(1116,694)" d="m0 0h23v6l-15 1-3 18-3 30-1 1h-9l-13-2-4-4v-1l19-1z" fill="#CAC9C8"/>
<path transform="translate(1127,589)" d="m0 0h1l5 42 3 23v6h-15l-2-1 4-37z" fill="#CAC9C9"/>
<path transform="translate(959,682)" d="m0 0 8 1h21l-3 8-2 8-8 9-5 2h-9l-2-1-1-11 1-2z" fill="#C5C8C8"/>
<path transform="translate(933,658)" d="m0 0h4l1 2v13l3 9-11 3h-21l-20-3 3-2 6-5 7-1h16l14-1-3-5-1-5-2-2z" fill="#F6F7F7"/>
<path transform="translate(1231,703)" d="m0 0 5 4 2 6 2 18v14l-9 6-3 1h-16l-10-6 4-1h14l12-6 1-5-2-25z" fill="#CAC9C8"/>
<path transform="translate(859,626)" d="m0 0 2 2 2 4 1 15 2 9v9l-1 3-2 1h-24l-4 1-1 5-3 3-2 4h-12l3-2 8-1 1-3 1-12 1-2h28z" fill="#CAC9C9"/>
<path transform="translate(1079,569)" d="m0 0 4 4 4 13 1 12v10l-2 14-5 12-5 7-1 4-5-6 8-16 3-13v-27l-2-10z" fill="#CAC9C8"/>
<path transform="translate(925,695)" d="m0 0h8l4 1 1 4-1 15h-3l-4-5v-2l-4-2-5-1-19-1-3-5 5-3z" fill="#F6F7F7"/>
<path transform="translate(862,707)" d="m0 0 3 1 2 12 1 29h-16l-31-1-9-2-1-2 52-1v-31z" fill="#CAC9C8"/>
<path transform="translate(797,551)" d="m0 0h1l1 6v31h-23v2h26l-1 2h-30l-1 37h25v1h-28l-1-1v-42h32l-1-6z" fill="#D8D8D7"/>
<path transform="translate(1264,551)" d="m0 0 4 4 1 2v51l-3 9v11l-2 2z" fill="#CBCAC9"/>
<path transform="translate(1056,663)" d="m0 0 4 1 3 4 3 11v4l-3 1h-10l-11-1 2-4 4-4 2-1 1-8z" fill="#F3F3F3"/>
<path transform="translate(1466,200)" d="m0 0h8l4 3 2 4-1 6-3 1-1 3-9 1v-2l-4-2-1-7 2-5z" fill="#F1F2F2"/>
<path transform="translate(562,318)" d="m0 0h6l5 4 1 2v6l-4 5-2 1h-6l-5-3-2-7 3-5z" fill="#F5F1EE"/>
<path transform="translate(926,550)" d="m0 0 2 4 3 2 1 35-1 1-18-1v-1l16-1-2-1h-31v34h-1v-35h31z" fill="#CAC9C8"/>
<path transform="translate(534,326)" d="m0 0 6 2 4 4v8l-6 5-7-1-5-5v-6l5-6z" fill="#F5F0EC"/>
<path transform="translate(1498,203)" d="m0 0 9 2 3 5v6l-7 6-7-1-4-4-1-7 4-5z" fill="#F2F3F3"/>
<path transform="translate(1129,617)" d="m0 0 2 4 2 10 2 16v12h-9l-1-2 3-31z" fill="#F2F3F3"/>
<path transform="translate(1044,581)" d="m0 0h9l2 2h-3v2l3 1v1h-6l-1 11v25l-1 1 5 1v1h-8l-1-1v-43z" fill="#C8C9C8"/>
<path transform="translate(1043,682)" d="m0 0 10 1h12l-1 7-1-4-14 1v2h2l1 4-2 7v10l3 2h-8l-2-2z" fill="#C8C8C8"/>
<path transform="translate(1235,557)" d="m0 0 4 4 1 5-3 29-5-2-3-3h2l1-15 2-15z" fill="#CAC9C8"/>
<path transform="translate(830,683)" d="m0 0 5 2-3 1 1 3 8 3-1 2h-3v2l-3 2v5l2 1 22 1 3 2h-30l-1-2z" fill="#C6C8C8"/>
<path transform="translate(967,696)" d="m0 0h13l-1 5-7 7-7-1-1-5 1-1-2-2z" fill="#F6F7F7"/>
<path transform="translate(769,589)" d="m0 0 33 1-1 2h-30l-1 37h25v1h-28l2-1-1-14v-25z" fill="#CAC9C8"/>
<path transform="translate(874,682)" d="m0 0 2 1-1 3v9l1 5-1 18v24h-1l-1-7-1-21 1-18h-2l-2-4 2-4v-2l-2-1z" fill="#CAC9C8"/>
<path transform="translate(902,686)" d="m0 0h29l3 1v2l-3 2-27-1-4-1v-2z" fill="#F6F7F7"/>
<path transform="translate(874,550)" d="m0 0h1v113l-2-3-1-6 1-7z" fill="#CAC9C8"/>
<path transform="translate(938,675)" d="m0 0 4 2h13l4-1-1 4-2 1 3 2h-20l1-2z" fill="#B0C6C8"/>
<path transform="translate(1020,673)" d="m0 0h2l2 9-1 1h-11l-4-2 7-6z" fill="#F6F7F7"/>
<path transform="translate(890,682)" d="m0 0 10 1 9 1 21 1v1l-30 1 1 3-5 1-2-1v-6z" fill="#B1C6C8"/>
<path transform="translate(874,682)" d="m0 0 2 1-1 3v9l1 5-3-1v-3h-2l-2-4 2-4v-2l-2-1z" fill="#C6C8C8"/>
<path transform="translate(991,628)" d="m0 0h1v29l-2 3-1-8 1-3z" fill="#CAC9C8"/>
<path transform="translate(976,686)" d="m0 0 5 1-2 3h-10l-3-3z" fill="#F6F7F7"/>
<path transform="translate(1266,610)" d="m0 0h3l1 3-4 12h-1v-8z" fill="#EAEAEA"/>
<path transform="translate(1127,589)" d="m0 0h1l1 7v10h-3z" fill="#C3C8C8"/>
</svg>
