<?xml version="1.0" encoding="UTF-8"?>
<svg version="1.1" viewBox="0 0 2048 1155" width="1280" height="1280" xmlns="http://www.w3.org/2000/svg">
<path transform="translate(0)" d="m0 0h2048v1155h-2048z" fill="#1B4BC9"/>
<path transform="translate(1387,414)" d="m0 0h2v207l-76 1-9 3-2 5v61l4 6 4 2 46 1 4 10 4 12 4-2 11-14 4-5h6v155l-3 21-5 17-9 19-11 16-12 13-13 11-13 8-17 8-16 5-19 3h-503l-19-3-21-7-17-9-14-10-12-11-9-11-9-14-8-16-6-20-2-12v-56l14-1 6-3 3-4 1-3v-57l-3-6-4-3-3-1-14-1v-246l3-1h38l25 4 20 6 16 6 22 11 5 3 14 14-1 11-4 21-5 4-6 12-12 19-10 19-1 3v9l4 8 11 11 13 10 14 8 13 7v45l-1 42 7 2 7 1-2 2 7 8 6 5 6 28 25 126v4h2v5h5v1h-6l-3 19h-40l-3-19h-15l-28 14-1 5h-32v4h551v-4h-55l-2-4-17-7h-12l-2 11h-12l-2-14 1-27v-18l-2-26-2-11 2-17 7-43h2v-6h1v5l2 1 8 56-1 10-2 12-1 12v20l1 33 10-1 19-139 1-3h-27v-1h27l-1-24-2-17h2v-13l-8-25v-21l1-16 3-5 14-10 13-9 8-9 5-8 1-3v-10l-2-4-4-2-4-27 1-7 4-7 5 2 31 16-8-45 2-4 22-22 8-7 2-3-5-1 4-19 5-15 11-23 12-18 12-14 10-10z" fill="#133BC8"/>
<path transform="translate(1050,329)" d="m0 0 10 1 8 6 7 11 5 16 3 22 1 23 1 3 10 2 25 3 23 5 11 4 6 7 1 3v14l-4 33-4 16-8 16-8 9-6 4-6 2-7 7-2 10h2l3 17 2 20v44l-45 45v12l5 44 4 38-1 2-6 1 2 17 2 30 1 23v62l-2 33-5 2 14 6 16 7 2 2v5h65l1-6 7-7-3-13-4-22-1-11-1-42-9-54-1-1v-18l3-19 2-9v-13l3-9-8-4h-9l-6-3-4-5-1-8 4-10 9-10 7-11 8-13 8-8 3-2-1-6 4-4 5-2 9-1-1-9h-5l-3-5 2-4 6-1 4-1 2-7h4v-2l-5 1 4-5 4-3h4l2 3v3l-2 1 4 2 1 10-1 9-4 6h-4l1 5 6 4 5-1 13-5 10-6 3-3h2v-7l3-7v-39l-32 16h-2l2-14 5-30-1-4-32-32v-1l47-7 21-42 3 3 19 39 47 7-2 4-17 16-14 14 6 36 1 11-6-2-27-14-3-2-2 5-2 4 1 11 2 14v7l5 2 2 4v10l-4 8-7 9-9 8-14 9-9 7-1 3-1 16v21l8 25v11l-1 2h-2l2 9 1 8v28l-15 110-4 29-1 1h-10l-1-8-1-25v-20l2-19 2-9-1-12-7-50h-4l-1 11-7 45 1 8 2 15 1 18v18l-1 29 2 10-1 2h12v-7l2-5h12l17 7 2 2v3h55v4h-551v-4h32v-5l10-6 18-8 5-1 11 1 3 11v8h40v-7l3-12 1-1v-5h-2l-22-109-9-46-3-5-10-9-1-3-11-3-1-1 1-47v-40l-20-10-14-10-13-12-6-7-2-5v-9l8-17 14-23 8-14 4-3 4-21 1-11-33-33 1-1 42-6h5l2-6 18-36h2l20 40v2l18 2 27 4 2 2-25 25-7 6v8l3 17v4l5 2 4 5 4 9 10 15 10 18 5 11v13l-5 10-8 10-12 14-2 3-3 26-1 15-1 48-2 2 3 37 4 66 2 52v21h-2v5l4 2 5 10 1 8h96l2-9 6-10 3-1 15 1 3 11v8h44l1-12 3-8-4-2-8-80-9-53 2-15 2-6h-16l-14-2-17-4v-9l-3-1v-13l3-39v-37l-3-5-43-43-1-11 1-36 4-33 3-1-2-10-8-8-6-2-2-4v-87l4-5 48-1 13-5 10-7 7-6 9-13 6-12 4-16 1-9 1-26 4-5z" fill="#243470"/>
<path transform="translate(889,651)" d="m0 0 4 2 10 16 10 14 9 11 11 12 10 10 17 13 17 10 17 7h2l-1 18 4 1-1 9 8 1 13 3 26 2-2 13-1 8 9 53 8 80 4 2-3 8-2 12h-44l-3-19h-17l-6 10-3 9h-96l-4-13-4-6-2-1v-5h2l-3-73-5-81-2-23 2-1 1-48 3-35 2-8z" fill="#133BC8"/>
<path transform="translate(1263,470)" d="m0 0 3 3 19 39 47 7-2 4-17 16-14 14 6 36 1 11-6-2-27-14-3-2-2 5-2 4 1 11 2 14v7l5 2 2 4v10l-4 8-7 9-9 8-14 9-9 7-1 3-1 16v21l8 25v11l-1 2h-2l2 9 1 8v28l-15 110-4 29-1 1h-10l-1-8-1-25v-20l2-19 2-9-1-12-7-50h-4l-1 11-7 45 1 8 2 15 1 18v18l-1 27-1 2-10-1-3-13-4-22-1-11-1-42-9-54-1-1v-18l3-19 2-9v-13l3-9-8-4h-9l-6-3-4-5-1-8 4-10 9-10 7-11 8-13 8-8 3-2-1-6 4-4 5-2 9-1-1-9h-5l-3-5 2-4 6-1 4-1 2-7h4v-2l-5 1 4-5 4-3h4l2 3v3l-2 1 4 2 1 10-1 9-4 6h-4l1 5 6 4 5-1 13-5 10-6 3-3h2v-7l3-7v-39l-32 16h-2l2-14 5-30-1-4-32-32v-1l47-7z" fill="#FD9220"/>
<path transform="translate(828,444)" d="m0 0h2l20 40v2l18 2 27 4 2 2-25 25-7 6v8l3 17v4l5 2 4 5 4 9 10 15 10 18 5 11v13l-5 10-8 10-12 14-2 3-3 26-1 15-1 48-7 3-17 3h-27l-12-2-3-2 1-47v-40l-20-10-14-10-13-12-6-7-2-5v-9l8-17 14-23 8-14 4-3 4-21 1-11-33-33 1-1 42-6h5l2-6z" fill="#3D8E83"/>
<path transform="translate(1165,662)" d="m0 0h12l-2 4-6 8-8 14-10 11-5 9-1 9 3 6 4 3 3 1h10l8 4-3 10v14l-4 19-1 8v18l2 6 8 49 1 42 2 16 5 30 4 1-6 2-5 6-1 4h-65l-2-6-32-14v-1l6-1 2-33v-62l-2-39-2-31 6-2-3-36 12-11 17-17 7-8 10-10 11-9 16-11z" fill="#133BC8"/>
<path transform="translate(1050,329)" d="m0 0 10 1 8 6 7 11 5 16 3 22 1 23 1 3 10 2 25 3 23 5 11 4 6 7 1 3v14l-4 33-4 16-8 16-8 9-6 4-6 2-7 7-2 10h-15l-1-15-1-3-108-1v-97l15-6 10-7 7-6 9-13 6-12 4-16 1-9 1-26 4-5z" fill="#F2A149"/>
<path transform="translate(1313,621)" d="m0 0h225l8 4 3 4 1 4v56l-3 6-5 4-2 1-156 1-14 17-4 5-3-1-7-21-46-1-6-4-3-5v-61l3-5 5-3z" fill="#1C4CCA"/>
<path transform="translate(437,729)" d="m0 0h228l6 3 4 5 1 3v57l-3 6-5 4-3 1h-45l-3 12-4 11-4-2-11-13-5-7-155-1-8-4-3-5v-61l4-6z" fill="#1C4CCA"/>
<path transform="translate(867,755)" d="m0 0h5l3 37 4 66 2 52v21h-2v5l4 2 5 10 1 8h96l2-9 6-10 3-1 15 1 3 11v8h44l1-12 3-8-4-2-8-80-9-53 2-15 2-6h-16l-14-2-17-4 1-9 19 4 9 1h36l16-1 2 5 3 42 1 23v62l-2 33-5 2 14 6 16 7 2 2v5h65l1-6 6-6h12l2 10-1 2h12v-7l2-5h12l17 7 2 2v3h55v4h-551v-4h32v-5l10-6 18-8 5-1 11 1 3 11v8h40v-7l3-12 1-1v-5h-2l-22-109-9-46-3-5-10-9-1-3 30-1z" fill="#06195D"/>
<path transform="translate(828,444)" d="m0 0h2l20 40v2l18 2 27 4 2 2-25 25-7 6v8l3 17v4l5 2 4 5 4 9 10 15 10 18 5 11v13l-5 10-4 5-7-1-8-6-4-7-1-5 5-6-1-7-9-34-3-3-33-17-5-3-6 1-22 12h-2v3l-7 3-6 5h-2l-1 8-7 26-1 6 12 9-2 5-5 12-2 8-6-4-12-11-6-7-2-5v-9l8-17 14-23 8-14 4-3 4-21 1-11-33-33 1-1 42-6h5l2-6z" fill="#E87132"/>
<path transform="translate(975,527)" d="m0 0h124l2 4v15h-2v10l-4 37-2 13-7 8-13 12-13 9h-13l-2-1v-5l5-2 3-6 1-4 1-14-5-1v-2l5 1-2-6-6-2h-7l-7 2-3 6-1 5-5 2 1 5 3 2 1 10-1 10-6 1-2 2v-2l-3 1-16-12-12-11-7-7-4-28-2-20v-13h-2v-15z" fill="#1B4BC9"/>
<path transform="translate(998,774)" d="m0 0 8 1 13 3 26 2-2 13-1 8 9 53 8 80 4 2-3 8-2 12h-44l-3-19h-15v-2h-5v-32l3-69 3-49z" fill="#253570"/>
<path transform="translate(1169,755)" d="m0 0 7 1 11 3 7 1h26l16-2 2 9 1 8v28l-15 110-4 29-1 1h-10l-1-8-1-25v-20l2-19 2-9-1-12-7-50h-4l-1 11-7 45 1 8 2 15 1 18v18l-1 27-1 2-10-1-3-13-4-22-1-11-1-42-9-54-1-1v-18l3-19z" fill="#06195D"/>
<path transform="translate(810,756)" d="m0 0 13 2-2 2 7 8 6 5 6 28 25 126v4h2v5h5v1h-6l-3 19h-40l-3-19h-11l-3-1-2-11-1-22v-60l2-39 4-43z" fill="#253571"/>
<path transform="translate(1263,470)" d="m0 0 3 3 19 39 47 7-2 4-17 16-14 14 6 36 1 11-6-2-27-14-10-5-5 2-3-5-2-1 2 4-1 5-31 16h-2l2-14 5-30-1-4-32-32v-1l47-7z" fill="#E87132"/>
<path transform="translate(1310,625)" d="m0 0h79v24l3 6 10 2-6 7 1 11-6-2-2-1v24h-7l-2 5-14 17-2-2-5-16v-3h-48l-6-5-1-2v-59l4-5z" fill="#133BC8"/>
<path transform="translate(999,765)" d="m0 0 19 4 9 1h36l16-1 2 5 3 42 1 23v62l-2 33-7 2h-13l-5-2-8-80-9-53 2-15 2-6h-16l-14-2-17-4z" fill="#06195C"/>
<path transform="translate(827,552)" d="m0 0 6 1 28 15 11 6 5 18 6 21-1 5-9 11-9 4-4 2-7-2v-18l4-4-1-4-4-1-3-10-5-2h-11l-5 1-1 7 6-1-1 2h-5l2 14 5 10 3 1v5l-18 4-4-3-3-1-16-1-20-15 2-9 8-31 6-4 3-3 6-1v-3z" fill="#133BC8"/>
<path transform="translate(945,430)" d="m0 0h46v97h-15l2-9-5 2-2 5-3 2h-23l-3-3-1-2v-87z" fill="#06195D"/>
<path transform="translate(805,936)" d="m0 0 15 1 3 11v8h162l2-9 6-10 3-1 15 1 3 11v8h44l1-12 3-8h16l14 6 16 7 2 2v5h65l1-6 6-6h12l2 10-1 2h12v-7l2-5h12l17 7 2 2v3h55v4h-551v-4h32v-5l10-6 18-8z" fill="#06195D"/>
<path transform="translate(838,800)" d="m0 0 2 1 25 126v4h2v5h5v1h-6l-3 19h-40l-3-19h-6v-1h5l1-8 9-70z" fill="#133BC8"/>
<path transform="translate(1040,801)" d="m0 0h2l9 53 8 80 4 2-3 8-2 12h-44l-3-17-1-4 5-1 14-74z" fill="#133BC8"/>
<path transform="translate(1204,799)" d="m0 0 35 1-3 25-12 88-4 29-1 1h-10l-1-8-1-25v-20l2-19 2-9-1-12-7-50z" fill="#FEB07B"/>
<path transform="translate(1165,800)" d="m0 0h34l-1 11-7 45 1 8 2 15 1 18v18l-1 27-1 2-10-1-3-13-4-22-1-11-1-42z" fill="#FEB07A"/>
<path transform="translate(1324,528)" d="m0 0h1l-1 11-6 34-6 21-7 16-9 12-10 10-9 6h-1l-1-9-2-4-4-2-4-27 1-7 4-7 5 2 31 16-8-45 2-4 22-22z" fill="#1C4CCA"/>
<path transform="translate(1201,794)" d="m0 0h1v5l2 1 8 56-1 10-2 12-1 12v20l1 35-2 11h-12l-2-14 1-27v-18l-2-26-2-11 2-17 7-43h2z" fill="#133CC8"/>
<path transform="translate(1303,360)" d="m0 0 4 4 13 21 12 19 7 12h-76l4-7 12-16 12-17z" fill="#1B4BC9"/>
<path transform="translate(1313,621)" d="m0 0h225l8 4 3 4 1 4v56l-3 6-5 4-2 1-156 1-14 17-4 5-3-1-7-21-46-1-6-4-3-5v-61l3-5 5-3zm1 3-7 3-3 4v59l5 6 2 1h48l2 9 4 12 5-5 11-13 1-2 157-1 6-4 1-2v-60l-4-5-6-2z" fill="#F09946"/>
<path transform="translate(437,729)" d="m0 0h228l6 3 4 5 1 3v57l-3 6-5 4-3 1h-45l-3 12-4 11-4-2-11-13-5-7-155-1-8-4-3-5v-61l4-6zm2 3-6 3-3 5v57l3 5 6 3h156l2 4 13 16h2l5-16v-4h47l6-3 3-6v-55l-3-6-6-3z" fill="#F29D4D"/>
<path transform="translate(796,555)" d="m0 0h6l2 4v6l-3 1v3l-7 3-6 5h-2l-1 8-7 26-1 6 12 9-2 5-5 12-2 8-6-4-12-11-6-7-2-5v-9l8-17 14-23 8-14 5-4z" fill="#FEAF7A"/>
<path transform="translate(1274,369)" d="m0 0 4 4 5 8-1 5-12 17-10 14h-2v2h49l6 10v2h-83l7-11 14-19 10-14z" fill="#133BC8"/>
<path transform="translate(856,552)" d="m0 0h8l8 3 5 6 4 9 10 15 10 18 5 11v13l-5 10-4 5-7-1-8-6-4-7-1-5 5-6-1-7-9-34-8-8-6-2v-4h-3l-1-6z" fill="#FEAF7A"/>
<path transform="translate(1040,592)" d="m0 0h7l6 2 2 2v5l-5-1v2l5 1v14l-3 9-3 3h-4v5l3 1 2 9-1 16-4 19-2-1-2-23v-7l3-1 4 2-1-5-2 3-5-3-5 1-5 2-4-8v-2h-2l5 10v2l6-2 1 1v27l-3-4-11-28-1-7 1-1h6v-20l-4-2-1-5 2-2h4l1-8 5-5z" fill="#DE6E35"/>
<path transform="translate(650,733)" d="m0 0h17l5 5 1 3v55l-3 6-3 2h-17z" fill="#133BC8"/>
<path transform="translate(1203,599)" d="m0 0 9 1 6 4 5 6 3 10 3 3v6l4 3v8l5 1 1 5-12 5-5 2-4-1-6-4v-5l5-2 2-4 1-12-1-7-4-2 3-1-2-6-5 2-6 5h4v2l-4 1-1 4-3 3-5 2-4 1 2 7 5-1 1 1v9l-12 3-4 2-1 6 1 3-6 3-2-3v-5l2-5-2-4 1-5 4-3v-7l4-5 4-16 6-7z" fill="#081A5E"/>
<path transform="translate(790,356)" d="m0 0h13l10 4 8 7 5 8 2 7v9l-2 8-8 2-11-1-10-5-8-9-3-8v-12z" fill="#133BC8"/>
<path transform="translate(785,358)" d="m0 0h2l-2 10v7l3 10 5 8 9 6 6 2 15 1-2 5-7 6-10 4h-14l-9-4-8-7-4-6-2-6v-15l6-12 8-7z" fill="#133BC8"/>
<path transform="translate(827,552)" d="m0 0 6 1 28 15 11 6 5 18 6 21-1 5-6 8-3-4-13-22-7-10-7-11-14-19-4-5-3-2z" fill="#1B4BC9"/>
<path transform="translate(808,343)" d="m0 0h13l10 4 5 4 6 9 2 8v8l-4 11-7 8-5 3h-2l1-7v-9l-3-9-4-6-7-6-10-4-12-1 3-5 9-6z" fill="#1C4CCA"/>
<path transform="translate(951,606)" d="m0 0 2 1 7 14 9 12 15 15 13 10 7 5 1 4v48l-3 28-3 18-1 3h-3v-13l3-39v-37l-3-5-43-43-1-11z" fill="#06195D"/>
<path transform="translate(833,593)" d="m0 0h11l5 2 3 7v4l5 1 1 4-3 4h-2l1 21-5 4-9 1-3-2v-11l-4-1-5-10-1-14 5-1h-5l1-7z" fill="#FCAB74"/>
<path transform="translate(1183,226)" d="m0 0h9l6 3 5 6 1 3v13l-5 8-8 4h-7l-7-3-5-6-2-5v-9l3-7 5-5z" fill="#1C4CCA"/>
<path transform="translate(1233,226)" d="m0 0h8l8 4 4 6 1 3v11l-4 8-6 4-10 1-7-3-5-5-2-6v-10l4-8 5-4z" fill="#1C4CCA"/>
<path transform="translate(590,123)" d="m0 0h7l8 4 4 5 2 10-2 9-5 6-6 3h-9l-8-4-4-7-1-4v-7l3-8 7-6z" fill="#1C4CCA"/>
<path transform="translate(771,226)" d="m0 0h8l8 4 4 5 1 3v13l-5 8-5 3-10 1-7-3-5-5-2-6v-9l3-7 5-5z" fill="#1C4CCA"/>
<path transform="translate(1202,123)" d="m0 0 10 1 6 4 4 8v11l-4 8-6 4-3 1h-8l-8-4-4-6-1-3v-11l4-8 6-4z" fill="#1C4CCA"/>
<path transform="translate(511,123)" d="m0 0h7l8 4 4 5 2 10-2 9-5 6-7 3h-8l-8-4-4-7-1-4v-7l3-8 7-6z" fill="#1C4CCA"/>
<path transform="translate(1129,226)" d="m0 0h9l6 3 5 6 2 5v8l-3 8-6 5-5 2h-7l-8-4-4-5-1-3v-13l3-6 6-5z" fill="#1C4CCA"/>
<path transform="translate(883,123)" d="m0 0h7l8 4 4 5 1 3v13l-3 6-5 4-5 2h-8l-8-4-4-7-1-4v-7l3-8 5-5z" fill="#1C4CCA"/>
<path transform="translate(1328,120)" d="m0 0h9l7 3 5 5 3 6v9h-36l3 10 6 5 3 1h9l6-3 3-3 2-4 4 1-3 6-7 6-3 1h-12l-8-4-5-6-2-6v-11l4-9 6-5z" fill="#fff"/>
<path transform="translate(897,223)" d="m0 0h11l8 4 5 6 1 3v10h-36l4 11 6 4 3 1h8l6-3 4-5 1-2 4 1-3 6-6 5-5 2h-10l-7-3-5-5-3-5-1-5v-7l3-9 5-6z" fill="#fff"/>
<path transform="translate(527,223)" d="m0 0h11l8 4 5 6 1 3v10h-36l4 11 6 4 3 1h8l6-3 4-5 1-2 4 1-3 6-6 5-5 2h-10l-7-3-5-5-3-5-1-5v-7l3-9 5-6z" fill="#fff"/>
<path transform="translate(1079,223)" d="m0 0h12l8 4 5 8 1 10-1 1h-36l4 10 1 3 5 2 3 1h8l8-4 3-6h4l-1 5-4 5-5 3-4 1h-10l-8-4-5-6-2-5v-13l5-10 6-4z" fill="#fff"/>
<path transform="translate(1545,223)" d="m0 0h12l6 3 6 7 2 10-1 3h-36l3 9 5 5 5 2h8l8-4 3-6h4l-2 6-5 5-7 3h-10l-8-4-6-7-2-12 2-9 4-6 6-4z" fill="#fff"/>
<path transform="translate(1031,223)" d="m0 0h12l6 3 6 7 2 10-1 3h-36l3 9 5 5 5 2h8l8-4 3-6h4l-2 6-5 5-7 3h-10l-8-4-5-6-2-4-1-8 2-10 5-7z" fill="#fff"/>
<path transform="translate(640,120)" d="m0 0h10l8 4 5 6 2 6v7l-36 1 2 8 5 5 5 2h9l6-3 3-4 1-3h4l-1 5-5 6-7 3h-12l-6-3-6-7-2-5v-13l4-8 6-5z" fill="#fff"/>
<path transform="translate(739,110)" d="m0 0 5 1 19 50-4 1-4-9-1-3-26-1-3 10-2 4h-3l1-7 13-34z" fill="#fff"/>
<path transform="translate(1212,609)" d="m0 0h4l2 3v3l-2 1 4 2 1 10-1 9-4 6h-4l1 15-2 2h-6l-5-5v-15l-2-4h-4l-3-5 2-4 6-1 4-1 2-7h4v-2l-5 1 4-5z" fill="#FAAB76"/>
<path transform="translate(1062,936)" d="m0 0h16l14 6 16 7 2 2v5h-52l1-12z" fill="#06195D"/>
<path transform="translate(925,832)" d="m0 0 10 1 8 5 5 8 1 8h-42l1-9 4-6 6-5z" fill="#06195D"/>
<path transform="translate(805,936)" d="m0 0 15 1 3 11v8h-47v-5l10-6 18-8z" fill="#06195D"/>
<path transform="translate(588,120)" d="m0 0h9l8 3 5 6 1-8h3v48l-4 8-5 4-5 2h-11l-8-4-5-6-1-4h4l4 6 4 3 3 1h9l6-3 4-6 1-5v-11l-5 6-6 3h-12l-6-3-5-5-3-6v-14l4-8 6-5zm2 3-7 3-5 6-2 6v7l3 8 5 5 5 2h9l7-4 4-5 2-10-2-9-5-6-7-3z" fill="#fff"/>
<path transform="translate(1285,387)" d="m0 0h2l12 20 5 8v1h-41l4-7 12-16 5-5z" fill="#133BC8"/>
<path transform="translate(1035,1007)" d="m0 0h9l1 1v62l-6 1-4-1z" fill="#fff"/>
<path transform="translate(1249,120)" d="m0 0h11l6 4 4 5 4-6 6-3h11l6 4 4 6 1 4v28h-4l-1-30-4-6-4-2h-9l-5 3-3 6-1 29h-4l-1-29-3-6-5-3h-9l-6 4-2 4-1 7-1 23h-3v-41h3l1 6 5-5z" fill="#fff"/>
<path transform="translate(807,223)" d="m0 0h3l1 7 4-5 4-2h12l6 4 4 4 5-6 4-2h12l5 3 4 5 2 7v27h-4l-1-29-3-6-4-3h-10l-6 4-2 4-1 7-1 23h-3l-1-29-3-6-4-3h-10l-5 3-3 5-1 5-1 25h-3z" fill="#fff"/>
<path transform="translate(1253,575)" d="m0 0 4 2 1 4 6-3 6 3-1 5-3 5 1 11 3 22-5 5h-7l-3-5v-40z" fill="#FDAF79"/>
<path transform="translate(1122,611)" d="m0 0h1v16l-45 45h-2l-1-11 8-7 8-8 7-6 7-8 10-11 6-8z" fill="#06195D"/>
<path transform="translate(1167,208)" d="m0 0h3l1 23 8-7 3-1h11l8 4 5 6 2 6v11l-4 9-6 5-6 2h-9l-8-4-4-4-1 7h-4v-56zm16 18-8 4-4 6-1 4v9l4 8 4 4 6 2h7l8-4 5-8v-13l-3-6-6-5-3-1z" fill="#fff"/>
<path transform="translate(1181,696)" d="m0 0 1 4-1 13-3 7 12 10 3 2-2 5-1 2-5-1-20-10-8-5 1-7 5-5 5 2 4 3 1-9z" fill="#FEB17B"/>
<path transform="translate(1444,121)" d="m0 0h4l5 15 5 17v4h2l1-6 11-30 5 1 11 32v3h2l1-7 9-29 4 1-12 38-1 2h-4l-12-32v-3h-2l-2 9-9 24-1 2h-4l-10-30z" fill="#fff"/>
<path transform="translate(1151,208)" d="m0 0h3v57h-3l-1-8-5 6-7 3h-10l-8-4-5-6-2-6v-12l4-8 6-5 5-2h11l7 4 4 4zm-22 18-6 3-5 6-1 3v13l4 7 6 4 3 1h7l8-4 4-5 2-6v-8l-4-8-6-5-3-1z" fill="#fff"/>
<path transform="translate(1231,223)" d="m0 0h11l8 4 3 4 1-7h4v41h-4l-1-7-8 7-4 1h-9l-7-3-5-5-3-6-1-4v-7l3-9 5-6zm2 3-7 3-4 5-2 5v10l3 7 5 5 6 2 10-1 6-4 4-8v-11l-4-8-6-4-3-1z" fill="#fff"/>
<path transform="translate(1044,579)" d="m0 0h6l4 4 2 8v11l-3 1-3-1v-2l5 1-2-6-6-2h-7l-7 2-3 6-1 5-5 2-2 2-1-2v-7l1-3-1-6 3-5 5-1 1-4 3-2 9 1z" fill="#081B5E"/>
<path transform="translate(1045,634)" d="m0 0 3 1 2 9-1 16-4 19-2-1-2-23v-7l3-1 4 2-1-5-2 3-5-3-5 1-5 2-4-8v-2h-2l5 10v2l6-2 1 1v27l-3-4-11-28-1-7 1-1h5l1 4 6 2h9z" fill="#fff"/>
<path transform="translate(509,120)" d="m0 0h9l7 3 5 4 1 2 1-8h3v42h-3l-1-9-5 6-6 3h-12l-6-3-5-5-3-6v-14l4-8 6-5zm2 3-7 3-5 6-2 6v7l3 8 5 5 5 2h8l7-3 5-6 2-10-2-9-5-6-7-3z" fill="#fff"/>
<path transform="translate(1164,793)" d="m0 0h75v6h-37l-1 1h-37z" fill="#253571"/>
<path transform="translate(601,211)" d="m0 0h15l10 5 5 6 2 5-5-1-5-7-5-3-4-1h-12l-8 4-5 7-2 6v12l4 10 7 6 7 2h7l9-3 6-7 2-3 4 1-3 6-8 7-8 3h-11l-10-4-7-8-3-7-1-5v-8l3-10 5-7 8-5z" fill="#fff"/>
<path transform="translate(1032,108)" d="m0 0h13l9 4 5 5 4 6v1h-5l-4-6-5-4-6-2h-10l-10 5-5 8-1 3v15l5 10 8 5 3 1h10l8-3 6-7 1-2h5l-4 7-8 7-6 2h-13l-9-4-5-5-4-6-2-7v-11l4-11 4-5 8-5z" fill="#fff"/>
<path transform="translate(857,598)" d="m0 0 4 2 14 23-1 5-14 7-7-2v-18l4-4-1-9z" fill="#133CC8"/>
<path transform="translate(994,936)" d="m0 0 17 1 3 11v8h-29l2-9 6-10z" fill="#06195D"/>
<path transform="translate(1303,356)" d="m0 0 4 4 16 26 12 19 7 11v2h-83l7-11 14-19 12-17zm0 4-10 13-10 14-13 18-7 10v1h76l-8-14-15-23-11-18z" fill="#F19749"/>
<path transform="translate(1546,226)" d="m0 0h9l8 4 4 8v5h-33l1-7 4-6 4-3z" fill="#1C4CCA"/>
<path transform="translate(898,226)" d="m0 0h9l6 3 5 6 1 8h-33l1-8 6-7z" fill="#1B4BC9"/>
<path transform="translate(528,226)" d="m0 0h9l6 3 5 6 1 8h-33l1-8 6-7z" fill="#1B4BC9"/>
<path transform="translate(1080,226)" d="m0 0h10l7 4 3 4 1 9h-32l-1-2 3-8 5-5z" fill="#1C4CCA"/>
<path transform="translate(1032,226)" d="m0 0h9l8 4 4 8v5h-33l2-9 4-5z" fill="#1C4CCA"/>
<path transform="translate(851,610)" d="m0 0h1v7h1l1 19-5 4-9 1-3-2v-11l-4-1-3-5v-4l7-2h10z" fill="#FCAC76"/>
<path transform="translate(641,123)" d="m0 0h8l8 4 4 7v6h-33l2-9 5-5z" fill="#1C4CCA"/>
<path transform="translate(1383,211)" d="m0 0h13l6 4 3 3 1 5h-4l-4-6-4-2h-10l-6 4-1 9 4 5 20 7 5 6v10l-4 6-4 3-4 1h-9l-7-3-5-5-1-6h4l3 6 4 3 3 1h7l6-3 3-5-1-8-6-4-16-5-6-7v-10l4-6z" fill="#fff"/>
<path transform="translate(1329,123)" d="m0 0h7l8 4 4 6v7h-32l1-8 6-7z" fill="#1C4CCA"/>
<path transform="translate(466,208)" d="m0 0h4l1 21 6-5 2-1h12l7 4 4 8v30h-3l-1-27-3-8-5-3h-11l-5 3-3 7-1 28h-4z" fill="#fff"/>
<path transform="translate(959,1018)" d="m0 0h10v41l-8 4h-2z" fill="#fff"/>
<path transform="translate(1200,120)" d="m0 0h10l10 5 4 6 2 7v7l-3 9-4 5-8 4h-12l-8-4-4-5-3-8v-8l3-9 5-5zm2 3-7 3-5 5-2 5v11l4 8 6 4 3 1h8l8-4 4-6 1-3v-11l-4-8-6-4z" fill="#fff"/>
<path transform="translate(882,120)" d="m0 0h9l7 3 5 4 4 9v11l-3 7-5 6-7 3h-12l-6-3-5-5-3-6-1-8 2-9 4-6 5-4zm1 3-7 3-5 6-2 6v7l3 8 5 5 5 2h8l8-4 4-5 1-3v-13l-4-7-6-4-3-1z" fill="#fff"/>
<path transform="translate(877,936)" d="m0 0 5 1 5 8 2 6v5h-26v-7l3-12z" fill="#06195D"/>
<path transform="translate(770,223)" d="m0 0h11l8 4 5 6 2 7v9l-3 8-5 5-8 4h-10l-8-4-6-7-2-12 2-9 4-6 7-4zm1 3-8 4-4 6-1 4v9l3 7 7 6 10 1 8-3 4-5 2-4v-13l-4-7-6-4-3-1z" fill="#fff"/>
<path transform="translate(1318,208)" d="m0 0 4 1 1 31 17-17h4l-2 4-16 16 1 4 17 17v1h-5l-10-10-6-7-1 17h-4z" fill="#fff"/>
<path transform="translate(1416,223)" d="m0 0 4 1 1 30 4 6 4 2h8l6-3 3-4 1-3 1-28h4v41h-4l-1-5-6 5-3 1h-10l-6-3-5-6-1-4z" fill="#fff"/>
<path transform="translate(1073,121)" d="m0 0h4l1 31 5 6 3 1h9l5-3 3-4 1-3 1-28h4v41h-4l-1-5-6 5-2 1h-12l-7-4-4-8z" fill="#fff"/>
<path transform="translate(1096,517)" d="m0 0 6 2 5 7 19 1-6 7-3 4-1 8h-15l-1-15z" fill="#E87132"/>
<path transform="translate(977,517)" d="m0 0 2 1-4 13-1 15h-15l-2-10-8-8v-1l19-1 3-1 1-5z" fill="#E87132"/>
<path transform="translate(1555,105)" d="m0 0h3l1 21 6-5 3-1h11l7 4 4 7v31h-3l-1-28-4-8-5-2h-9l-6 4-3 7-1 27h-4v-56z" fill="#fff"/>
<path transform="translate(1050,1025)" d="m0 0h9v42l-9 3z" fill="#fff"/>
<path transform="translate(1501,646)" d="m0 0 2 2 3 7 11 2-7 7 1 11-6-2-4-2-7 4h-2l1-10-7-7v-1l11-1 3-9z" fill="#F19E49"/>
<path transform="translate(475,754)" d="m0 0 3 4 2 5 10 2-6 7 1 11-5-2-6-2-8 4 1-11-7-6 3-2h8l3-9z" fill="#F19F49"/>
<path transform="translate(1424,647)" d="m0 0h2l4 8 10 2v2l-6 5 1 11-6-2-4-2-7 4h-2v-11l-6-7 11-1z" fill="#F19F49"/>
<path transform="translate(627,754)" d="m0 0 3 4 2 6h7l4 2-7 6 1 11-5-2-6-2-8 4 1-11-7-6 3-2h8l2-6z" fill="#F19E48"/>
<path transform="translate(589,754)" d="m0 0 3 4 2 6h7l3 2-6 6 1 11-5-2-6-2-8 4 1-11-7-6 3-2h8l3-9z" fill="#F19E48"/>
<path transform="translate(551,754)" d="m0 0 3 4 2 5 10 2-6 7 1 11-5-2-6-2-8 4 1-11-7-6 3-2h8l3-9z" fill="#F19F49"/>
<path transform="translate(513,754)" d="m0 0 3 4 2 5 10 2-6 7 1 11-5-2-6-2-8 4 1-11-7-6 3-2h8l3-9z" fill="#F19F49"/>
<path transform="translate(1463,646)" d="m0 0 2 3 3 6 10 2v2l-6 5 1 11-6-2-4-2-7 4h-2l1-10-7-7v-1l11-1 3-9z" fill="#F19F49"/>
<path transform="translate(917,121)" d="m0 0h3l1 27 3 9 6 2h9l5-3 3-4 1-3 1-28h4v41h-4l-1-5-6 5-3 1h-11l-7-4-4-8z" fill="#fff"/>
<path transform="translate(1386,647)" d="m0 0h2l4 8 10 2-6 7 1 11-6-2-5-2-8 4v-11l-6-7 11-1z" fill="#F19F49"/>
<path transform="translate(1348,647)" d="m0 0h2l4 8 10 2-6 7 1 11-6-2-5-2-8 4v-11l-6-7 11-1z" fill="#F19F49"/>
<path transform="translate(643,223)" d="m0 0 4 1 1 30 4 6 5 2h8l6-4 3-5 1-7 1-23h3v42h-3v-7h-2l-2 4-4 3-3 1h-10l-6-3-4-5-2-6z" fill="#fff"/>
<path transform="translate(1576,223)" d="m0 0 4 1 6 13 9 22 4-9 10-26 4-1-1 6-22 55-4 1 3-10 3-8-1-6-15-36z" fill="#fff"/>
<path transform="translate(1e3 1020)" d="m0 0h9v44l-9-4z" fill="#fff"/>
<path transform="translate(1398,120)" d="m0 0h8l7 3 4 6v3h-4l-3-6-4-2h-7l-5 3-1 1v7l7 4 10 3 6 4 1 2v8l-4 5-4 2h-12l-6-3-3-3-1-6h4l3 6 4 2h9l5-3 1-6-4-4-15-5-5-4-1-2v-7l5-6z" fill="#fff"/>
<path transform="translate(1130,120)" d="m0 0h9l6 3 4 6v3h-4l-3-6-4-2h-7l-5 3-1 1v6l3 3 16 6 5 5v8l-4 5-4 2h-12l-7-4-3-5v-3h4l3 6 5 2h9l5-5-1-6-9-4-11-4-4-6v-6l5-6z" fill="#fff"/>
<path transform="translate(1283,223)" d="m0 0h12l8 4 5 8-1 3-3-1-4-7-6-3h-10l-6 3-4 6-1 3v10l3 7 4 4 5 2h8l6-3h2l2-5 1-3h4l-2 7-7 6-5 2h-10l-7-3-5-5-3-6-1-11 3-9 5-6z" fill="#fff"/>
<path transform="translate(741,115)" d="m0 0 2 3 9 24v4h-22l2-9 8-21z" fill="#1C4CCA"/>
<path transform="translate(699,223)" d="m0 0h11l6 4 3 4v4h-3l-3-5v-2l-4-1h-9l-5 4v6l5 4 15 5 4 4 1 6-3 6-4 3-3 1h-9l-7-3-4-4-1-5h4l4 6 5 2h7l5-3 1-7v-2l-9-3-11-4-4-4-1-7 3-5z" fill="#fff"/>
<path transform="translate(1065,1020)" d="m0 0h9v37l-7 6h-2z" fill="#fff"/>
<path transform="translate(831,583)" d="m0 0h10l8 4 8 7 1 4-2 8h-4l-3-10-5-2h-11l-5 1-1 6-4-4 1-8 4-5z" fill="#071A5E"/>
<path transform="translate(982,211)" d="m0 0h27l1 3h-25v23h21v3h-21v25h-4v-53z" fill="#fff"/>
<path transform="translate(1024,637)" d="m0 0h2l4 8v2l7-4 5 1 3 2 1-8h1l1 11-6-1 1 18 1 17-2 5-3-4-3-6-1-30-6 1-5-10z" fill="#EC7F41"/>
<path transform="translate(822,108)" d="m0 0 4 1 12 22 3 4 10-19 5-8h3l-2 6-14 27v21l-4 1-1-23-16-30z" fill="#fff"/>
<path transform="translate(1209,944)" d="m0 0h12l17 7 2 2v3h-33v-7z" fill="#0C1F61"/>
<path transform="translate(1487,223)" d="m0 0 4 1 14 34 1 1 14-34 4-2 1 2-17 40h-5l-15-37z" fill="#fff"/>
<path transform="translate(441,213)" d="m0 0h4v10h11v4h-11l1 34 11 1v3h-11l-4-4-1-2v-32h-6v-4h6z" fill="#fff"/>
<path transform="translate(731,213)" d="m0 0h4v10h12v4h-12l1 32 2 2 9 1v3h-10l-5-4-1-4v-30h-6v-4h6z" fill="#fff"/>
<path transform="translate(810,341)" d="m0 0h10l11 4 8 7 6 12v15l-4 9-7 8-6 4-7 2h-13l-9-4-7-5-6-10-2-8v-7l3-10 6-8 8-6zm-2 2-12 6-6 7-4 10v12l4 9 7 8 10 5 11 1 10-3 8-6 6-9 2-7v-8l-3-10-6-8-10-6-4-1z" fill="#F09448"/>
<path transform="translate(1161,110)" d="m0 0h4v11h12v3h-12l1 34 11 1-1 4-10-1-4-4-1-2v-32h-6v-3h6z" fill="#fff"/>
<path transform="translate(740,787)" d="m0 0h5v6l-8 3-3 6v6l4 6 7 2v7l-8-2-6-4-4-8v-9l4-7 6-5z" fill="#06195D"/>
<path transform="translate(1274,640)" d="m0 0 1 2-8 12-7 7-15 10-12 9h-1v-10l18-10 14-10z" fill="#E87132"/>
<path transform="translate(1530,110)" d="m0 0h3l1 10 12 1v3h-13l1 29 2 5 10 1-1 4h-7l-6-3-2-3v-33h-6l-1-3 6-1z" fill="#fff"/>
<path transform="translate(677,110)" d="m0 0h3l1 10 12 1-1 3h-12l1 30 2 4 9 1v4h-7l-6-3-2-3v-33h-6l-1-3 6-1z" fill="#fff"/>
<path transform="translate(454,108)" d="m0 0h33l1 3-15 1-1 50h-3v-51h-15z" fill="#fff"/>
<path transform="translate(788,105)" d="m0 0 4 1v56h-4z" fill="#fff"/>
<path transform="translate(772,105)" d="m0 0h3v57h-4v-56z" fill="#fff"/>
<path transform="translate(1375,120)" d="m0 0h6v3l-9 3-4 4-1 3-1 29h-4v-41h4l1 5 6-5z" fill="#fff"/>
<path transform="translate(978,120)" d="m0 0h6v3l-9 3-4 4-1 3-1 29h-4v-41h4l1 5 6-5z" fill="#fff"/>
<path transform="translate(717,620)" d="m0 0h2l-2 5-8 9 6 8 5 5-2 4-9 10 4 6 7 8-3 5-8 9 4 6 6 7-1 2-7-7-5-6 1-4 9-10-2-5-8-9 2-5 8-9-2-4-8-9 1-4 9-10z" fill="#06195D"/>
<path transform="translate(834,605)" d="m0 0 2 3 3 3 5-2 1-3h11l2 2-1 5-4 2-2 4v-8l-4 6h-10l-8 2-1-7 5-3z" fill="#FDAF79"/>
<path transform="translate(978,1089)" d="m0 0h6l5 5-1 6-5 3h-3l-2 7-4-2v-18z" fill="#fff"/>
<path transform="translate(851,610)" d="m0 0h1l-1 9-4 6-4 3-6 1-5-3-2-4v-4l7-2h10z" fill="#E06E34"/>
<path transform="translate(1182,944)" d="m0 0h12l2 10-1 2h-20l1-6z" fill="#0B1E60"/>
<path transform="translate(1059,952)" d="m0 0h51v4h-52z" fill="#253571"/>
<path transform="translate(997,1093)" d="m0 0 6 2 2 4v6l-5 5h-6l-4-4v-8l3-4z" fill="#fff"/>
<path transform="translate(1020,1045)" d="m0 0h9v24l-9-3z" fill="#fff"/>
<path transform="translate(1335,409)" d="m0 0 4 2 3 5v2h-83l5-8h2l-2 5h74z" fill="#EE8D40"/>
<path transform="translate(990,1030)" d="m0 0h9v25l-8-6-1-1z" fill="#fff"/>
<path transform="translate(561,120)" d="m0 0h6v3l-11 4-3 4-1 5-1 27h-3v-42h3l1 6 4-5z" fill="#fff"/>
<path transform="translate(933,223)" d="m0 0h3l1 6 5-5 3-1h7v3l-10 3-4 5-1 3-1 28h-3z" fill="#fff"/>
<path transform="translate(776,952)" d="m0 0h47v4h-47z" fill="#253571"/>
<path transform="translate(1465,223)" d="m0 0h3l1 6 5-5 3-1h7v3l-10 3-3 1-2 7-1 28h-3z" fill="#fff"/>
<path transform="translate(1061,1088)" d="m0 0 4 2v4l4-1 5 3v14l-4-2-1-10h-3l-1 11h-4l-1-1v-19z" fill="#fff"/>
<path transform="translate(974,1034)" d="m0 0h10v11l-7 9-3 1z" fill="#fff"/>
<path transform="translate(1512,121)" d="m0 0h4v41h-4z" fill="#fff"/>
<path transform="translate(839,600)" d="m0 0 7 1 1 2-1 1 6 1v1h-7l-1 4-5 2-4-4-5 4h-2l-1-2v-7h9z" fill="#E36F32"/>
<path transform="translate(1127,644)" d="m0 0 5 4 4-2h4v3l-3 4 4 5-4 2-3-3-4 2h-4v-4l2-4-3-3z" fill="#06195D"/>
<path transform="translate(1181,696)" d="m0 0 1 4-1 13-3 7-5-2-1-8 3-6z" fill="#143CC6"/>
<path transform="translate(1048,1094)" d="m0 0h8l1 4-7-1v3l6 1 2 2-1 5-2 2h-7l-2-2 1-3 7 1v-2l-8-2-1-4z" fill="#fff"/>
<path transform="translate(1182,680)" d="m0 0h1v23l-1 6h-1v-12l-7 10-2 4-4-5 2-4 11-11v-10z" fill="#E87132"/>
<path transform="translate(1030,1088)" d="m0 0 5 1 1 3-5 1v2l4 1-1 3-3 1-1 10-4-2v-16z" fill="#fff"/>
<path transform="translate(986,952)" d="m0 0h28v4h-29z" fill="#253571"/>
<path transform="translate(863,952)" d="m0 0h26v4h-26z" fill="#253571"/>
<path transform="translate(812,341)" d="m0 0h8l11 4 8 7 6 12v15l-1 3h-2l1-6v-8l-3-10-5-7-10-6-13-2z" fill="#F49D57"/>
<path transform="translate(1310,369)" d="m0 0 4 2 12 20 11 17-3 1-16-26-8-12z" fill="#F1994B"/>
<path transform="translate(1008,1089)" d="m0 0h4v17l4 1-1 3-6-1-1-1z" fill="#fff"/>
<path transform="translate(1017,1089)" d="m0 0h4v17l4 1-1 3-6-1-1-2z" fill="#fff"/>
<path transform="translate(1311,795)" d="m0 0h6l2 2v6l-2 2h-6l-2-2v-6z" fill="#06195D"/>
<path transform="translate(1303,356)" d="m0 0 4 4 5 9h-3l-5-8-5 5-6 9-2-1 2-4z" fill="#F09546"/>
<path transform="translate(1037,1094)" d="m0 0 4 1 1 10 2 1v4l-6-1-1-2z" fill="#fff"/>
<path transform="translate(806,931)" d="m0 0h13v5l-10 1-3-1z" fill="#FCAB75"/>
<path transform="translate(1191,653)" d="m0 0 9 4 5 2h6l3-1 1-4 1 3-4 6-5 1-9-5-6-3z" fill="#EE7B2B"/>
<path transform="translate(867,931)" d="m0 0h12v5l-7 1-5-1z" fill="#FDAD77"/>
<path transform="translate(1080,1038)" d="m0 0h8l-2 6-5 6h-1z" fill="#fff"/>
<path transform="translate(996,1097)" d="m0 0 4 1 1 6-1 2h-5l-1-1v-6z" fill="#1C4CCA"/>
<path transform="translate(838,603)" d="m0 0 4 1-1 2 3-1-1 4-5 1-2-4z" fill="#FDAE79"/>
<path transform="translate(839,600)" d="m0 0 7 1 1 2-1 1 6 1v1h-11l1-4-4-1z" fill="#824E4E"/>
<path transform="translate(1303,356)" d="m0 0 4 4 5 9h-3l-5-8-3-1z" fill="#EF9345"/>
<path transform="translate(1312,797)" d="m0 0 5 1-1 5-5-1-1-3z" fill="#133BC8"/>
<path transform="translate(1024,637)" d="m0 0h2l4 8v2l5-2-1 3-5 1-5-10z" fill="#F39155"/>
<path transform="translate(1327,395)" d="m0 0h2l8 14h-3l-7-11z" fill="#F09748"/>
<path transform="translate(827,603)" d="m0 0 5 1-2 1 3 2-2 3h-4z" fill="#FBA770"/>
<path transform="translate(829,601)" d="m0 0 4 1-1 1h-5l1 8-4-2v-5z" fill="#163187"/>
<path transform="translate(1513,105)" d="m0 0 4 2-1 4-5-1v-4z" fill="#fff"/>
<path transform="translate(979,1093)" d="m0 0 5 1-1 5h-4z" fill="#1C4CCA"/>
<path transform="translate(1290,374)" d="m0 0h2l-2 5-5 7-2-2z" fill="#F1994B"/>
<path transform="translate(828,344)" d="m0 0 7 4 4 4v2l-3-1-5-5-4-3z" fill="#ED8A3F"/>
</svg>
