<?xml version="1.0" standalone="no"?>
<!DOCTYPE svg PUBLIC "-//W3C//DTD SVG 20010904//EN"
 "http://www.w3.org/TR/2001/REC-SVG-20010904/DTD/svg10.dtd">
<svg version="1.0" xmlns="http://www.w3.org/2000/svg"
 width="1000.000000pt" height="710.000000pt" viewBox="0 0 1000.000000 710.000000"
 preserveAspectRatio="xMidYMid meet">

<g transform="translate(0.000000,710.000000) scale(0.100000,-0.100000)"
fill="#000000" stroke="none">
<path d="M0 5995 l0 -1105 38 -24 c20 -14 57 -32 82 -42 25 -9 68 -34 95 -54
60 -45 99 -65 145 -75 19 -4 46 -16 60 -27 33 -24 91 -33 130 -20 25 9 32 9
37 -4 9 -23 78 -54 123 -54 l40 0 0 -43 c0 -52 13 -61 117 -77 36 -6 74 -15
84 -20 10 -6 30 -10 46 -10 36 -1 52 -15 145 -130 42 -52 88 -106 103 -120 15
-14 46 -54 70 -90 24 -36 57 -78 72 -95 16 -16 73 -106 127 -200 326 -559 360
-607 448 -635 24 -7 65 -26 92 -43 41 -24 53 -27 72 -18 18 8 32 6 60 -5 20
-8 38 -14 40 -12 2 2 6 66 10 143 4 76 10 130 14 119 3 -10 1 -86 -6 -169 -7
-82 -13 -169 -13 -192 l-1 -43 45 0 c35 0 49 -5 70 -27 14 -15 25 -31 25 -34
0 -7 -31 -23 -41 -21 -3 0 -26 -17 -50 -39 -24 -21 -45 -39 -46 -39 -13 0 5
27 46 69 27 28 46 53 41 56 -7 5 -31 -22 -145 -169 -66 -83 -175 -235 -175
-242 0 -4 17 10 38 32 21 21 51 50 66 63 15 13 25 30 22 37 -3 7 -1 16 5 19 5
4 8 3 7 -2 -2 -4 1 -8 7 -8 5 0 8 10 7 23 -4 26 14 30 21 4 4 -16 5 -16 6 1 1
16 11 21 39 18 17 -3 15 19 -4 40 -13 14 -13 21 -3 37 12 19 39 20 39 0 0 -5
-5 -6 -10 -3 -6 4 -9 -3 -7 -16 2 -13 9 -25 15 -27 7 -2 10 -7 8 -11 -3 -4 4
-8 15 -8 10 -1 19 2 19 8 0 5 -6 9 -13 9 -7 0 -14 13 -15 30 -3 36 5 39 18 8
9 -20 9 -19 7 11 -1 24 3 36 13 38 13 4 13 3 0 -6 -13 -9 -13 -11 1 -11 19 0
33 -26 22 -42 -4 -7 -1 -8 7 -3 7 4 16 2 20 -5 6 -9 13 -9 33 2 14 7 25 18 24
23 -1 6 10 11 26 13 15 2 27 -1 27 -7 0 -6 5 -11 11 -11 6 0 9 6 6 14 -9 23
22 27 43 6 25 -25 43 -95 35 -137 -9 -50 -66 -81 -246 -134 -263 -78 -300 -88
-288 -73 17 21 -10 18 -34 -4 -19 -16 -20 -16 -8 6 6 12 20 22 30 22 10 0 24
7 32 16 7 8 61 40 120 69 150 75 239 134 239 158 0 19 -1 19 -27 1 -67 -44
-138 -84 -149 -84 -6 0 -15 -8 -18 -17 -5 -12 -9 -14 -18 -5 -14 14 -75 -19
-147 -77 -24 -20 -46 -34 -48 -31 -2 3 -29 -28 -61 -69 -60 -79 -117 -119
-174 -123 -43 -4 -41 16 7 66 19 21 35 43 35 51 0 7 3 22 6 32 5 15 4 15 -5 3
-6 -8 -11 -11 -11 -6 0 4 -14 -6 -30 -24 -17 -18 -33 -30 -37 -27 -3 4 4 30
15 59 12 29 28 82 36 118 9 36 29 124 46 195 16 72 36 154 45 184 10 38 12 59
4 72 -5 11 -14 17 -18 15 -5 -3 -43 1 -86 9 -100 19 -102 19 -78 -7 40 -44 55
-150 28 -192 -9 -13 -15 -42 -14 -68 2 -34 -5 -59 -28 -99 -17 -30 -52 -94
-78 -143 -57 -106 -64 -102 -76 38 -4 49 -11 91 -17 95 -5 3 -12 24 -15 46 -8
49 -41 120 -70 150 -12 12 -32 34 -43 49 -12 15 -29 28 -38 30 -8 1 -19 5 -22
9 -17 16 -21 5 -11 -24 7 -17 26 -39 44 -50 18 -11 42 -37 54 -57 13 -20 26
-39 30 -42 3 -3 10 -21 14 -40 l7 -35 -20 23 c-16 18 -25 21 -38 14 -9 -5 -25
-7 -34 -5 -16 4 -18 -2 -14 -52 2 -32 10 -65 16 -73 11 -13 11 -14 -1 -8 -9 6
-12 5 -9 -5 3 -8 -1 -31 -8 -53 -8 -21 -14 -69 -14 -107 0 -90 -12 -117 -51
-111 -29 4 -30 6 -24 46 7 57 14 219 9 213 -6 -6 -10 -29 -19 -102 -7 -62 -35
-140 -67 -187 -21 -31 -69 -50 -89 -37 -15 10 -8 17 36 44 15 9 15 16 6 50
-10 40 -11 40 -92 61 -65 17 -82 18 -86 7 -3 -7 -9 -13 -13 -13 -16 0 0 70 40
170 23 58 44 129 47 157 5 46 2 58 -21 94 -15 22 -30 56 -33 74 -11 70 -142
136 -266 134 l-62 -1 36 -16 c26 -12 53 -41 103 -115 61 -89 68 -104 62 -135
-3 -20 -10 -39 -17 -43 -8 -5 -8 -16 1 -45 23 -67 39 -168 29 -179 -5 -5 -9 1
-9 18 0 15 -4 27 -8 27 -9 0 -52 158 -52 191 0 12 4 17 11 13 8 -4 9 1 4 17
-9 28 -55 109 -62 109 -2 0 -2 -3 0 -7 37 -66 45 -119 11 -77 -15 19 -16 19
-9 -1 16 -47 26 -87 22 -91 -2 -2 -9 13 -16 33 -6 21 -29 63 -50 93 -22 30
-57 82 -77 116 -21 33 -48 66 -61 72 -13 7 -34 18 -48 25 -14 6 -25 18 -25 26
0 9 -8 11 -25 7 -14 -4 -25 -2 -25 3 0 6 -7 8 -15 5 -8 -4 -21 -2 -28 4 -10 8
-58 9 -187 3 -21 -1 19 -28 56 -37 48 -11 80 -31 140 -86 31 -29 62 -52 69
-50 7 1 18 -5 25 -13 7 -8 18 -15 25 -15 6 0 12 -13 12 -30 0 -16 -5 -27 -10
-23 -5 3 -1 -6 8 -21 9 -14 22 -23 29 -19 6 3 8 3 4 -2 -4 -4 2 -25 12 -46 32
-61 24 -64 -28 -11 -47 48 -125 92 -163 92 -22 0 -92 41 -129 76 -32 29 -106
62 -193 84 l-67 17 2 -1336 3 -1336 22 -22 c12 -12 25 -35 28 -50 4 -16 8 -35
9 -43 2 -8 7 -23 11 -34 7 -16 6 -17 -13 -7 -11 6 -30 11 -41 11 -20 0 -21 -6
-21 -96 l0 -95 31 22 c28 19 30 24 16 34 -18 13 -6 42 12 31 7 -4 11 1 11 12
0 11 7 22 15 26 9 3 12 12 8 23 -6 16 -5 16 10 5 9 -8 17 -28 19 -45 4 -42 20
-40 173 13 75 26 80 31 62 66 -8 16 -17 45 -20 65 -10 66 -55 147 -144 260
-98 123 -102 129 -76 125 10 -2 21 2 25 8 5 6 8 2 8 -10 0 -12 7 -27 15 -34 9
-8 15 -8 15 -2 0 6 -6 12 -12 15 -7 2 -10 7 -7 11 10 11 89 -95 132 -177 21
-39 36 -61 32 -47 -3 14 -7 30 -8 35 -2 6 -11 27 -22 46 -64 113 -69 127 -57
153 16 36 27 32 41 -13 7 -23 19 -42 30 -46 11 -3 29 -25 42 -48 12 -23 27
-52 34 -64 6 -12 24 -75 40 -140 16 -65 30 -120 32 -122 1 -2 40 13 86 33 46
20 101 36 121 36 32 0 36 3 36 26 0 14 -5 34 -10 44 -6 11 -15 41 -20 67 -5
27 -11 55 -14 63 -13 34 40 60 73 36 11 -8 13 -8 7 2 -10 17 0 15 20 -5 10
-10 20 -18 23 -18 3 -1 19 -4 34 -8 15 -4 32 -5 37 -2 19 11 -13 53 -54 71
-70 32 -85 69 -41 110 16 15 23 29 18 40 -4 10 -2 15 3 11 6 -4 9 5 6 23 -4
26 -1 29 39 40 24 7 57 16 73 21 57 18 91 -55 45 -97 -12 -10 -22 -18 -23 -16
-1 3 -7 1 -46 -11 -9 -3 -6 -6 8 -6 20 -1 23 -5 20 -38 -3 -34 0 -39 37 -59
22 -12 45 -27 50 -31 15 -13 76 -34 84 -28 15 9 80 -19 84 -36 6 -22 0 -29
-19 -22 -8 3 -11 10 -7 17 3 6 -6 -1 -22 -16 -15 -16 -45 -33 -66 -38 -21 -6
-66 -24 -100 -40 -47 -22 -67 -27 -80 -19 -14 7 -21 5 -31 -11 -7 -11 -19 -20
-26 -20 -15 0 -48 -19 -78 -45 -21 -19 -225 -124 -444 -229 -91 -44 -93 -46
-50 -41 90 10 102 12 109 23 3 6 24 19 46 29 22 10 56 30 75 44 55 41 256 144
359 183 52 20 100 40 105 45 6 4 19 11 29 14 16 6 16 4 5 -11 -7 -10 -49 -51
-93 -91 -44 -40 -114 -110 -157 -155 l-76 -81 166 -3 167 -3 45 51 c25 28 51
50 58 50 7 0 10 5 7 10 -3 6 0 10 7 10 8 0 23 7 34 16 10 8 12 12 4 8 -13 -7
-13 -5 -1 9 18 22 25 22 18 -2 -2 -10 0 -26 5 -35 8 -15 11 -15 33 0 14 9 25
14 25 11 0 -3 15 9 32 26 32 31 33 32 36 9 4 -24 -24 -119 -41 -140 -16 -20
-4 -23 67 -20 l67 3 -31 48 c-16 26 -30 50 -30 52 0 3 14 5 30 5 36 0 97 -29
124 -59 47 -51 42 -51 590 -50 l511 0 38 50 c20 27 44 49 52 49 42 0 275 306
417 550 50 85 138 275 138 298 0 4 -69 19 -152 31 -84 13 -155 25 -157 27 -3
2 5 68 17 147 31 203 86 568 122 812 16 116 35 239 40 275 37 242 50 331 50
339 0 5 -8 12 -17 14 -17 4 -17 5 -1 6 12 1 15 6 11 18 -4 10 -2 14 5 9 7 -4
13 10 17 41 4 27 17 118 30 203 12 85 22 156 21 157 0 0 -18 4 -39 8 -32 6
-36 5 -31 -9 4 -12 0 -16 -15 -16 -12 0 -21 5 -21 11 0 5 5 7 12 3 7 -5 8 -3
3 5 -4 8 -17 10 -33 6 -16 -4 -28 -1 -33 7 -7 10 -9 10 -9 1 0 -7 -4 -13 -10
-13 -5 0 -7 6 -4 14 3 8 0 17 -5 21 -6 3 -9 11 -6 16 4 5 1 9 -4 9 -6 0 -11
-5 -11 -11 0 -5 -4 -7 -10 -4 -5 3 -10 1 -10 -4 0 -6 4 -11 9 -11 5 0 8 -11 7
-24 -1 -21 -3 -23 -16 -12 -16 14 -100 29 -100 18 0 -4 -29 -5 -65 -4 -36 2
-65 7 -65 12 0 4 10 6 22 2 15 -4 19 -2 14 7 -5 7 -1 20 8 30 13 15 14 20 1
44 -15 29 -7 34 26 17 12 -7 19 -7 19 -1 0 5 8 12 18 14 15 4 -51 11 -71 8
-47 -8 -68 -7 -76 6 -9 17 -47 13 -44 -4 1 -6 -4 -14 -12 -17 -9 -3 -15 1 -15
10 0 14 -2 14 -16 0 -8 -9 -21 -16 -27 -15 -9 0 -8 2 1 6 6 2 12 9 12 15 0 6
-11 3 -24 -6 -14 -9 -32 -13 -41 -9 -13 5 -14 7 -3 14 12 8 -31 14 -74 10 -9
-1 -19 3 -23 9 -3 6 3 10 14 10 13 0 19 5 15 14 -3 8 0 17 7 22 8 4 10 3 5 -4
-4 -7 -3 -12 3 -12 6 0 8 -6 5 -14 -7 -19 135 -14 147 5 7 11 9 10 9 -4 0 -16
2 -16 23 -3 24 15 77 19 77 5 0 -5 5 -9 10 -9 6 0 10 7 10 15 0 9 -9 15 -21
15 -18 0 -19 2 -9 15 10 12 9 15 -6 16 -11 0 -29 2 -40 4 -13 3 -29 -4 -39
-15 -10 -11 -29 -20 -42 -20 -14 0 -21 -4 -18 -10 3 -5 2 -10 -4 -10 -5 0 -13
9 -16 20 -7 22 -20 26 -30 10 -8 -13 -45 -13 -45 -1 0 13 17 23 22 13 1 -4 14
-2 28 5 25 13 25 13 -10 14 -19 1 -44 0 -55 -1 -31 -3 -10 11 27 19 29 6 33
11 31 36 -1 17 1 22 3 13 3 -10 13 -18 22 -18 15 -1 15 -2 0 -11 -32 -18 -19
-28 36 -26 l55 2 -3 33 c-2 22 2 32 11 32 8 0 12 -4 8 -9 -3 -5 -1 -12 4 -16
6 -3 8 -12 5 -20 -4 -11 1 -15 17 -15 82 -1 89 -3 80 -14 -7 -8 -3 -12 14 -14
13 -1 27 3 30 8 7 11 35 2 35 -11 0 -5 -11 -9 -25 -9 -14 0 -25 -6 -25 -12 0
-9 -4 -8 -10 2 -8 13 -10 13 -10 -1 0 -23 72 -52 82 -34 4 7 19 10 35 8 27 -4
27 -4 9 11 -15 12 -16 16 -5 16 12 0 12 2 -1 10 -13 9 -13 11 0 20 21 14 36
12 49 -4 9 -11 9 -15 -1 -19 -8 -2 -9 -8 -4 -13 5 -5 11 -4 13 4 9 23 23 12
17 -13 -4 -15 -2 -25 5 -25 15 0 14 43 -1 58 -7 7 -8 12 -4 12 5 0 3 7 -4 15
-15 18 -7 19 20 3 15 -9 24 -9 44 1 13 8 31 11 40 8 9 -4 17 1 19 11 4 16 5
15 6 0 0 -10 6 -18 12 -18 6 0 8 9 3 22 -6 20 -5 21 9 9 10 -8 27 -11 42 -7
19 5 23 3 19 -9 -5 -11 1 -15 19 -15 14 0 27 -6 30 -12 2 -7 7 12 11 42 15
119 18 122 112 175 64 36 103 68 159 128 94 102 122 153 129 237 4 44 3 59 -3
45 -5 -11 -10 -31 -11 -45 -1 -25 -30 -75 -30 -52 0 16 30 193 36 215 8 28 22
20 27 -15 l4 -33 1 34 c2 27 5 32 20 26 39 -16 45 -15 17 1 l-30 17 35 13 35
13 -38 -6 c-38 -5 -38 -5 -31 23 3 16 13 35 22 42 14 10 13 12 -7 12 -12 0
-19 4 -16 10 3 6 2 10 -4 10 -12 0 -37 -83 -55 -187 -16 -85 -46 -177 -45
-133 1 14 0 39 -1 55 -2 27 -3 26 -12 -13 -14 -65 -100 -201 -173 -275 -35
-37 -61 -67 -55 -67 14 0 1 -28 -17 -34 -9 -4 -22 -1 -29 5 -13 11 -18 5 -15
-15 3 -14 -21 -36 -40 -36 -46 0 -25 80 31 120 17 12 46 46 65 75 41 65 110
225 120 278 l8 39 -33 -17 c-18 -9 -46 -15 -61 -13 -24 4 -29 1 -29 -17 0 -35
-58 -142 -93 -171 -18 -15 -56 -38 -85 -52 -46 -21 -64 -23 -135 -20 -126 6
-205 56 -258 164 -33 67 -34 197 -1 263 12 24 19 48 16 53 -3 4 -2 7 3 6 14
-5 83 64 76 75 -4 6 0 8 10 4 9 -3 19 -2 22 2 5 9 -17 79 -37 118 -6 13 -8 26
-5 30 4 3 7 -2 8 -13 1 -15 2 -14 8 5 8 31 72 65 105 57 14 -3 34 -21 46 -40
14 -24 26 -33 38 -30 13 4 14 3 4 -4 -11 -7 -10 -16 4 -45 14 -28 25 -37 59
-46 22 -6 57 -21 76 -34 61 -41 63 -42 40 -1 -12 21 -36 48 -54 60 -39 26 -97
153 -97 213 0 22 -4 43 -10 46 -5 3 -10 -1 -10 -10 0 -9 -7 -27 -16 -40 -15
-23 -15 -24 5 -20 29 5 27 -21 -2 -29 -43 -11 -66 -6 -77 17 -10 20 -10 20 3
5 22 -27 33 -22 51 22 20 50 20 50 0 50 -13 0 -14 3 -4 15 7 9 22 12 40 9 15
-4 30 -2 33 2 3 5 -20 10 -51 11 -32 1 -65 2 -74 2 -10 1 -18 6 -18 12 0 6 6
9 14 6 8 -3 27 -2 43 2 15 4 44 4 63 0 28 -7 39 -4 54 11 19 18 19 24 7 97
-33 198 -133 457 -238 618 -36 54 -38 66 -22 114 8 24 30 45 78 76 36 24 80
55 96 70 21 19 15 17 -20 -8 -27 -19 -61 -38 -75 -42 -37 -10 -109 -45 -116
-56 -3 -5 -14 -9 -25 -9 -11 0 -40 -9 -65 -20 -24 -11 -56 -25 -70 -30 -16 -7
-24 -16 -21 -24 14 -36 -86 -61 -117 -30 -9 9 -16 11 -16 4 0 -6 14 -17 31
-24 l31 -13 -23 -17 c-13 -9 -30 -16 -39 -16 -8 0 -50 -12 -92 -26 -76 -26
-80 -26 -132 -11 -54 15 -55 15 -92 -10 -46 -32 -117 -54 -164 -52 -50 2 -64
0 -57 -7 8 -9 -11 -44 -24 -44 -15 0 -39 -26 -32 -34 4 -3 -6 -6 -20 -6 -15 0
-27 -5 -27 -11 0 -6 -8 -8 -19 -4 -12 4 -24 -1 -33 -12 -7 -10 -24 -19 -37
-21 -25 -2 -61 -33 -61 -51 0 -11 -24 -21 -50 -21 -11 0 -30 -11 -44 -25 -14
-14 -28 -25 -31 -25 -28 1 -35 -2 -35 -15 0 -9 -7 -18 -15 -21 -17 -7 -45 12
-45 30 0 6 5 4 10 -4 6 -9 10 -10 10 -3 0 20 -21 26 -37 10 -14 -14 -14 -17 1
-32 22 -22 20 -38 -2 -24 -25 16 -62 5 -96 -26 -15 -14 -45 -28 -66 -31 -37
-6 -45 -14 -41 -38 1 -5 -12 -6 -29 -3 -24 5 -30 3 -30 -12 0 -14 -6 -17 -29
-13 -27 4 -31 10 -40 54 -6 27 -11 90 -11 139 l0 90 55 55 c31 30 60 54 66 54
6 0 17 6 24 13 31 27 44 37 51 37 3 0 17 9 31 20 14 11 30 17 35 14 5 -3 14
-1 21 4 18 15 188 73 197 67 4 -2 16 5 26 16 10 11 34 29 53 41 20 12 42 28
49 35 7 7 16 13 20 13 4 0 30 21 57 46 139 125 174 153 216 173 59 28 88 64
205 255 26 44 71 104 99 135 28 31 70 80 95 110 27 32 60 60 86 71 25 11 50
32 63 54 23 37 48 45 69 24 9 -9 12 -9 12 0 0 20 78 98 134 136 49 32 54 34
101 25 46 -9 105 -49 105 -72 0 -5 9 -21 20 -37 11 -15 17 -30 13 -34 -3 -3
-1 -6 6 -6 7 0 10 -4 7 -9 -3 -5 1 -14 9 -21 17 -14 85 -154 85 -176 0 -8 16
-30 36 -48 32 -29 35 -37 29 -65 -6 -28 -13 -33 -63 -46 -184 -51 -408 -138
-495 -194 -52 -33 -39 -39 16 -7 25 15 89 42 143 60 55 19 139 53 188 76 78
36 96 41 134 35 67 -10 90 -44 111 -165 5 -25 14 -58 21 -75 7 -16 14 -63 16
-102 1 -40 6 -78 10 -84 4 -7 9 -32 11 -57 2 -24 7 -50 10 -56 4 -6 7 -28 6
-50 -1 -21 4 -51 13 -67 8 -16 12 -34 9 -39 -3 -5 0 -12 6 -15 6 -5 8 -22 4
-46 -4 -25 -3 -45 5 -54 6 -8 11 -31 9 -52 -5 -63 15 -140 79 -305 17 -43 33
-96 37 -117 3 -22 12 -47 19 -56 21 -30 -6 137 -28 171 -13 19 -21 50 -23 89
-2 33 0 54 3 48 11 -25 21 -12 22 30 1 23 16 138 33 256 26 178 29 215 18 222
-13 8 -6 13 14 10 4 0 7 9 7 22 0 16 -3 18 -9 8 -7 -10 -10 -10 -16 -1 -4 7
-1 16 6 21 9 6 2 7 -18 3 -29 -6 -33 -4 -33 15 0 14 6 21 20 21 11 0 20 -6 20
-12 0 -10 3 -9 9 1 5 7 13 11 19 7 11 -7 27 78 17 94 -3 5 -15 10 -26 10 -12
0 -17 -4 -14 -11 4 -6 14 -8 22 -5 10 4 13 0 11 -11 -4 -24 -39 -26 -45 -2 -3
10 -14 19 -25 19 -23 0 -21 31 2 37 13 4 13 3 0 -6 -12 -9 -10 -11 10 -11 14
1 33 7 44 15 19 14 13 16 -72 15 -13 0 -21 4 -18 9 3 5 27 8 53 7 29 0 48 4
50 12 3 7 -5 12 -22 12 -15 0 -24 4 -20 10 3 6 20 10 37 10 28 0 30 -2 24 -27
-5 -21 -4 -24 4 -13 5 8 10 25 10 36 0 19 -4 21 -37 15 -41 -7 -73 -4 -73 8 0
12 69 33 82 24 9 -5 3 -10 -17 -15 l-30 -7 30 2 c21 1 29 6 26 17 -2 8 -4 20
-4 27 0 7 -4 10 -8 7 -4 -2 -10 0 -13 5 -9 13 17 31 53 35 34 4 55 16 28 16
-10 0 -26 6 -37 13 -17 10 -22 9 -30 -3 -5 -8 -7 -17 -5 -21 8 -12 -78 -20
-89 -9 -8 8 -6 9 7 5 19 -8 23 5 6 22 -8 8 -7 13 2 18 8 5 10 4 5 -3 -11 -18
29 -15 44 3 11 13 10 15 -6 14 -41 -4 -64 2 -64 16 0 8 5 15 10 15 6 0 10 -5
10 -11 0 -7 11 -9 30 -6 16 4 32 2 35 -3 4 -6 11 -8 16 -4 5 3 24 2 41 -1 31
-7 31 -8 12 -22 -18 -15 -18 -15 4 -8 15 4 30 0 50 -16 15 -12 20 -20 12 -17
-9 3 -24 0 -33 -7 -16 -12 -14 -13 17 -12 43 1 83 -19 92 -46 5 -16 8 -17 15
-6 7 11 12 9 24 -8 9 -13 21 -23 27 -23 6 0 16 -7 22 -15 6 -9 54 -23 116 -35
l105 -21 70 -69 c39 -38 88 -83 110 -98 45 -33 83 -72 69 -72 -6 0 -14 3 -19
8 -6 4 9 -10 32 -31 41 -36 47 -56 30 -84 -6 -9 -3 -11 7 -7 9 3 24 3 33 0 15
-6 15 -8 3 -16 -10 -6 -11 -10 -3 -10 17 0 64 -53 59 -66 -2 -6 5 -16 16 -23
11 -7 17 -15 14 -18 -3 -3 -14 0 -23 8 -16 13 -17 12 -4 -3 7 -10 20 -18 29
-18 8 0 13 -2 10 -5 -8 -9 53 -75 84 -91 18 -9 70 -15 150 -18 68 -2 164 -8
215 -15 62 -7 101 -8 118 -1 55 21 123 12 223 -30 53 -22 119 -43 148 -46 59
-7 127 2 119 16 -3 6 0 7 7 5 12 -5 64 33 56 40 -2 2 -32 -4 -68 -11 -147 -33
-284 14 -364 125 -18 25 -39 63 -47 84 -7 20 -19 37 -27 37 -10 0 -10 -3 2
-16 18 -18 21 -85 6 -115 -6 -10 -20 -19 -31 -19 -23 0 -132 58 -164 87 -42
38 -109 75 -140 77 -17 2 -37 6 -44 10 -6 4 -11 2 -11 -3 0 -6 15 -21 34 -33
95 -65 186 -133 186 -140 0 -12 -30 -9 -75 8 -22 8 -76 19 -120 24 -62 7 -84
14 -97 31 -10 11 -22 18 -27 14 -6 -3 -2 -14 9 -25 26 -26 26 -50 0 -50 -14 0
-30 19 -55 68 -43 80 -66 113 -124 172 l-43 45 27 -50 c15 -28 36 -58 47 -67
11 -10 17 -18 13 -18 -4 0 -2 -7 5 -15 7 -8 9 -15 5 -15 -14 0 -115 143 -115
164 -1 6 -15 27 -32 46 -17 19 -27 28 -23 20 5 -8 -14 5 -41 30 -27 25 -64 52
-81 59 -30 12 -38 22 -34 44 1 5 -3 6 -9 2 -5 -3 -10 1 -10 9 0 9 -3 15 -8 13
-11 -3 -170 136 -171 151 -1 6 -7 12 -15 12 -8 0 -17 9 -21 19 -10 31 -131
133 -163 137 -9 2 -18 8 -20 13 -2 6 -9 11 -16 11 -7 0 -19 11 -26 25 -7 14
-22 25 -32 25 -10 0 -18 4 -18 9 0 5 -14 15 -32 22 -34 14 -59 35 -176 149
-129 125 -232 245 -232 268 0 21 -73 103 -103 116 -35 15 -77 51 -77 66 0 6
-4 10 -10 10 -5 0 -10 -9 -10 -20 0 -28 -13 -25 -32 8 -17 28 -40 57 -88 107
-56 60 -75 72 -94 65 -27 -9 -77 0 -69 13 4 6 0 8 -10 4 -10 -4 -17 -2 -17 5
0 6 11 8 29 5 26 -6 29 -4 26 15 -3 11 -6 21 -7 22 -2 1 -20 14 -41 30 -21 15
-43 25 -50 23 -9 -4 -9 -6 1 -6 6 -1 12 -9 12 -20 0 -21 23 -45 33 -34 4 3 7
1 7 -5 0 -7 -3 -12 -8 -12 -16 0 -52 32 -52 46 0 9 -10 14 -29 14 -17 0 -33 5
-36 10 -3 6 5 10 19 10 55 0 59 8 30 59 -15 25 -32 49 -37 52 -15 10 -59 -8
-91 -37 -15 -14 -30 -23 -34 -19 -4 3 1 11 11 16 26 15 21 28 -34 80 l-50 49
-1215 0 -1214 0 0 -1105z m604 709 c20 -8 20 -34 2 -79 -12 -28 -19 -34 -45
-33 -19 1 -31 6 -31 14 0 18 32 87 45 96 12 9 10 9 29 2z m-64 -184 c-24 -15
-36 -11 -14 4 10 8 21 12 24 10 2 -3 -2 -9 -10 -14z m1682 -172 c9 -18 15 -34
13 -36 -3 -3 -114 54 -124 63 -2 3 4 14 14 25 18 20 18 20 49 1 17 -11 38 -34
48 -53z m1283 -300 c44 -35 98 -77 120 -93 l40 -30 -60 -6 c-33 -4 -121 -7
-196 -8 l-136 -1 -31 83 c-17 45 -47 123 -66 172 -27 69 -35 105 -36 153 l0
64 143 -135 c78 -74 178 -164 222 -199z m-1172 213 c-4 -6 -63 20 -63 28 0 4
12 12 28 17 24 9 28 7 33 -16 3 -14 4 -27 2 -29z m1152 -581 c3 -5 1 -10 -4
-10 -6 0 -11 5 -11 10 0 6 2 10 4 10 3 0 8 -4 11 -10z m-2945 -34 c0 -3 -4 -8
-10 -11 -5 -3 -10 -1 -10 4 0 6 5 11 10 11 6 0 10 -2 10 -4z m37 -2 c-3 -3
-12 -4 -19 -1 -8 3 -5 6 6 6 11 1 17 -2 13 -5z m2873 -54 c0 -5 -2 -10 -4 -10
-3 0 -8 5 -11 10 -3 6 -1 10 4 10 6 0 11 -4 11 -10z m56 -47 c-3 -4 -6 0 -6 7
0 9 -5 7 -15 -6 -14 -18 -14 -17 -3 9 10 24 13 25 21 12 5 -9 6 -19 3 -22z
m22 -182 c-2 -18 -10 -27 -25 -29 -16 -2 -23 2 -23 12 0 9 8 16 20 16 11 0 20
5 20 11 0 6 -15 10 -32 9 -44 -3 -50 -1 -44 8 2 4 23 6 46 4 38 -4 41 -6 38
-31z m-15 -58 c-7 -2 -19 -2 -25 0 -7 3 -2 5 12 5 14 0 19 -2 13 -5z m-13
-138 c0 -8 -2 -15 -4 -15 -2 0 -6 7 -10 15 -3 8 -1 15 4 15 6 0 10 -7 10 -15z
m1080 -55 c22 -43 24 -50 13 -50 -9 0 -45 58 -49 78 -5 26 17 10 36 -28z
m-1703 -256 c-3 -3 -12 -4 -19 -1 -8 3 -5 6 6 6 11 1 17 -2 13 -5z m88 -22
c12 -8 -35 -20 -52 -14 -7 2 -13 8 -13 12 0 9 51 10 65 2z m-140 -12 c3 -5 13
-10 21 -10 8 0 12 5 9 10 -8 14 -2 13 31 -5 16 -8 37 -12 47 -9 9 3 17 1 17
-5 0 -6 -7 -11 -16 -11 -10 0 -14 -6 -10 -15 4 -11 -1 -15 -19 -15 -13 0 -27
5 -30 10 -3 6 1 10 9 10 9 0 16 5 16 11 0 6 -7 8 -16 5 -9 -3 -25 -6 -37 -6
-18 0 -19 -2 -7 -11 13 -9 13 -10 0 -6 -8 2 -17 12 -19 23 -2 10 -8 22 -15 26
-8 6 -8 8 1 8 6 0 15 -4 18 -10z m214 -60 c-8 -5 -6 -11 7 -19 18 -10 18 -10
-1 -11 -16 -1 -14 -4 10 -15 28 -14 26 -15 -45 -10 -51 3 -70 2 -60 -5 11 -7
12 -10 2 -10 -8 0 -16 9 -19 20 -4 16 -12 19 -40 16 -24 -2 -36 1 -43 14 -6
12 -5 17 5 17 8 0 12 -3 10 -7 -3 -4 27 -7 65 -8 47 0 69 4 67 11 -1 7 4 11
11 10 6 -2 12 4 12 13 0 14 3 14 15 4 12 -10 13 -15 4 -20z m-228 -37 c-6 -10
-11 -12 -11 -5 0 6 -6 12 -14 12 -8 0 -17 -6 -19 -12 -3 -8 -6 -7 -6 4 -1 11
8 18 27 20 35 4 36 3 23 -19z m99 -21 c0 -5 -7 -9 -15 -9 -8 0 -15 4 -15 9 0
4 7 8 15 8 8 0 15 -4 15 -8z m135 -22 c-4 -6 3 -9 16 -7 12 1 24 -4 26 -13 4
-13 3 -13 -6 0 -10 13 -15 8 -12 -12 0 -5 -8 -8 -19 -8 -20 0 -28 28 -13 43
10 10 15 8 8 -3z m-102 -6 c-23 -10 -14 -24 15 -25 20 -1 22 -2 7 -6 -29 -7
-47 -24 -41 -39 3 -8 0 -11 -9 -8 -10 4 -11 13 -5 35 7 22 5 29 -6 29 -29 0
-13 16 19 17 17 1 26 -1 20 -3z m-43 -34 c0 -13 -11 -13 -30 0 -12 8 -11 10 8
10 12 0 22 -4 22 -10z m-76 -29 c3 -5 -3 -11 -15 -14 -16 -4 -18 -3 -8 9 13
16 16 17 23 5z m63 3 c-3 -3 -12 -4 -19 -1 -8 3 -5 6 6 6 11 1 17 -2 13 -5z
m-1936 -119 c-1 -15 -24 -12 -29 3 -3 9 2 13 12 10 10 -1 17 -7 17 -13z m59 6
c0 -14 -18 -23 -30 -16 -6 4 -8 11 -5 16 8 12 35 12 35 0z m2056 -43 c-1 -13
-6 -22 -9 -20 -4 1 -21 2 -38 2 -19 0 -28 4 -23 11 3 6 17 8 30 5 17 -5 26 -2
30 9 9 22 14 18 10 -7z m-1971 -28 c3 -5 1 -10 -4 -10 -6 0 -11 5 -11 10 0 6
2 10 4 10 3 0 8 -4 11 -10z m1930 -10 c3 -5 2 -10 -4 -10 -5 0 -13 5 -16 10
-3 6 -2 10 4 10 5 0 13 -4 16 -10z m-218 -26 c-3 -3 -12 -4 -19 -1 -8 3 -5 6
6 6 11 1 17 -2 13 -5z m-770 -71 c-9 -15 -39 -50 -68 -78 -29 -27 -83 -80
-119 -118 -36 -37 -73 -67 -84 -67 -11 0 -16 5 -13 13 3 8 1 20 -3 27 -7 11
-13 11 -32 -2 -14 -9 -30 -13 -37 -8 -9 5 -10 10 -2 14 6 4 11 16 11 27 0 20
0 20 -26 0 -31 -24 -74 -30 -55 -8 6 8 9 16 6 19 -3 3 1 11 10 18 8 7 15 18
15 24 0 6 14 17 30 24 17 8 30 20 30 28 0 8 3 13 8 12 4 -1 20 4 37 11 16 7
37 10 46 8 9 -2 21 4 27 13 6 10 26 20 44 23 18 3 50 10 71 15 33 9 37 8 37
-9 0 -28 11 -23 43 17 33 41 46 39 24 -3z m768 27 c3 -6 -1 -7 -9 -4 -18 7
-21 14 -7 14 6 0 13 -4 16 -10z m-1043 -11 c14 0 15 -4 6 -19 -9 -14 -17 -16
-34 -10 -17 7 -23 5 -27 -9 -2 -9 -20 -25 -39 -34 -19 -9 -41 -23 -48 -32 -15
-18 -30 -20 -30 -2 1 19 79 97 98 97 15 0 15 2 2 11 -11 8 -6 9 20 4 19 -3 43
-6 52 -6z m1013 -19 c3 -5 1 -10 -4 -10 -6 0 -11 5 -11 10 0 6 2 10 4 10 3 0
8 -4 11 -10z m-31 -35 c-10 -8 -23 -15 -28 -15 -6 0 -1 7 10 15 10 8 23 15 28
15 6 0 1 -7 -10 -15z m23 -57 c-3 -7 -5 -2 -5 12 0 14 2 19 5 13 2 -7 2 -19 0
-25z m-417 -78 c0 -5 -4 -10 -10 -10 -5 0 -10 5 -10 10 0 6 5 10 10 10 6 0 10
-4 10 -10z m-756 -48 c2 -4 -4 -9 -15 -9 -11 -1 -17 2 -14 8 7 11 22 12 29 1z
m722 -17 c-9 -9 -16 -13 -16 -8 0 12 22 34 28 28 2 -2 -3 -11 -12 -20z m19
-35 c3 -6 -1 -7 -9 -4 -18 7 -21 14 -7 14 6 0 13 -4 16 -10z m-5 -40 c-8 -5
-17 -7 -19 -4 -3 3 1 9 9 14 8 5 17 7 19 4 3 -3 -1 -9 -9 -14z m30 -50 c0 -5
-7 -7 -15 -4 -8 4 -15 8 -15 10 0 2 7 4 15 4 8 0 15 -4 15 -10z m-30 -54 c0
-11 -19 -15 -25 -6 -3 5 1 10 9 10 9 0 16 -2 16 -4z m233 -3 c-7 -2 -21 -2
-30 0 -10 3 -4 5 12 5 17 0 24 -2 18 -5z m-208 -93 c3 -6 -1 -7 -9 -4 -18 7
-21 14 -7 14 6 0 13 -4 16 -10z m-83 -132 c-4 -111 -3 -130 9 -123 12 7 12 6
1 -7 -7 -8 -16 -49 -22 -89 -7 -57 -8 -33 -4 109 3 123 1 182 -6 182 -5 0 -10
7 -10 16 0 8 5 12 11 9 6 -4 13 2 16 14 3 12 7 21 8 21 1 0 0 -59 -3 -132z
m-42 100 c0 -6 -6 -5 -15 2 -8 7 -15 14 -15 16 0 2 7 1 15 -2 8 -4 15 -11 15
-16z m144 -3 c-4 -8 -8 -15 -10 -15 -2 0 -4 7 -4 15 0 8 4 15 10 15 5 0 7 -7
4 -15z m271 -25 c4 -6 -5 -10 -19 -10 -14 0 -26 5 -26 10 0 6 9 10 19 10 11 0
23 -4 26 -10z m-235 -60 c11 -7 4 -10 -25 -10 -29 0 -36 3 -25 10 8 5 20 10
25 10 6 0 17 -5 25 -10z m226 -29 c-3 -5 -15 -7 -26 -4 -28 7 -25 13 6 13 14
0 23 -4 20 -9z m-206 -21 c0 -17 -4 -19 -26 -14 -19 5 -25 3 -20 -4 5 -8 1
-10 -10 -5 -13 5 -10 10 17 24 19 10 35 18 37 19 1 0 2 -9 2 -20z m43 -22 c-7
-41 -10 -45 -25 -30 -9 9 -9 15 -1 23 6 6 9 18 6 25 -3 8 1 14 11 14 12 0 14
-7 9 -32z m67 22 c0 -5 -10 -10 -22 -10 -19 0 -20 2 -8 10 19 13 30 13 30 0z
m40 -30 c0 -5 -5 -10 -11 -10 -5 0 -7 5 -4 10 3 6 8 10 11 10 2 0 4 -4 4 -10z
m-65 -16 c-9 -9 -18 -14 -21 -11 -9 9 6 27 22 27 13 0 13 -2 -1 -16z m-115
-19 c11 -13 9 -15 -11 -13 -18 2 -24 -2 -23 -14 1 -10 -2 -18 -7 -18 -13 0
-11 17 3 40 15 24 22 25 38 5z m220 11 c0 -3 -4 -8 -10 -11 -5 -3 -10 -1 -10
4 0 6 5 11 10 11 6 0 10 -2 10 -4z m10 -50 c0 -8 -51 -13 -56 -5 -3 5 9 9 25
9 17 0 31 -2 31 -4z m-27 -43 c-7 -2 -19 -2 -25 0 -7 3 -2 5 12 5 14 0 19 -2
13 -5z m44 1 c-3 -3 -12 -4 -19 -1 -8 3 -5 6 6 6 11 1 17 -2 13 -5z m3 -46 c0
-4 -9 -6 -19 -5 -16 1 -18 5 -9 20 8 16 12 17 19 6 5 -8 9 -17 9 -21z m-283 2
c4 -12 3 -13 -5 -1 -6 8 -17 11 -26 8 -8 -3 -18 -1 -22 4 -4 7 4 9 22 7 15 -2
29 -10 31 -18z m217 5 c-4 -8 -16 -15 -27 -15 -20 0 -20 0 -1 15 25 19 35 19
28 0z m-27 -33 c-9 -2 -15 -7 -13 -11 4 -5 -31 -7 -53 -2 -2 1 2 7 8 14 7 9
23 12 43 8 20 -3 26 -6 15 -9z m-247 -2 c0 -5 -5 -10 -11 -10 -5 0 -7 5 -4 10
3 6 8 10 11 10 2 0 4 -4 4 -10z m346 -10 c13 0 24 -5 24 -11 0 -6 -12 -9 -27
-7 -19 2 -29 9 -30 23 -2 11 0 14 3 8 3 -7 17 -13 30 -13z m21 14 c-3 -3 -12
-4 -19 -1 -8 3 -5 6 6 6 11 1 17 -2 13 -5z m-247 -14 c0 -4 -7 -11 -16 -14
-22 -8 -24 -8 -24 7 0 7 9 13 20 14 11 1 20 -2 20 -7z m160 -10 c-20 -13 -33
-13 -25 0 3 6 14 10 23 10 15 0 15 -2 2 -10z m-20 -32 c0 -5 -11 -8 -25 -8
-14 0 -25 4 -25 9 0 5 11 8 25 7 14 0 25 -4 25 -8z m150 2 c-13 -8 -79 -4 -89
6 -2 2 20 4 50 4 38 0 49 -3 39 -10z m-133 -32 c-3 -8 -6 -5 -6 6 -1 11 2 17
5 13 3 -3 4 -12 1 -19z m233 -8 c-7 -4 -9 -13 -6 -19 4 -6 1 -11 -7 -11 -8 0
-17 7 -21 15 -3 9 0 15 9 15 8 0 15 5 15 11 0 5 5 7 11 3 8 -5 8 -9 -1 -14z
m-200 -4 c0 -3 -4 -8 -10 -11 -5 -3 -10 -1 -10 4 0 6 5 11 10 11 6 0 10 -2 10
-4z m90 -11 c0 -9 -6 -12 -15 -9 -8 4 -15 10 -15 15 0 5 7 9 15 9 8 0 15 -7
15 -15z m-250 -9 c0 -11 -19 -15 -25 -6 -3 5 1 10 9 10 9 0 16 -2 16 -4z m-90
-26 c-20 -13 -33 -13 -25 0 3 6 14 10 23 10 15 0 15 -2 2 -10z m67 -22 c2 -18
0 -20 -7 -8 -12 18 -13 30 -2 30 4 0 9 -10 9 -22z m246 -13 c-3 -9 -8 -14 -10
-11 -3 3 -2 9 2 15 9 16 15 13 8 -4z m-277 -64 c-4 -5 0 -12 6 -14 7 -3 -3 -5
-22 -5 -19 0 -27 2 -17 5 9 2 17 9 17 14 0 5 5 9 11 9 5 0 8 -4 5 -9z m64 -21
c0 -5 -5 -10 -11 -10 -5 0 -7 5 -4 10 3 6 8 10 11 10 2 0 4 -4 4 -10z m30 -10
c0 -5 -2 -10 -4 -10 -3 0 -8 5 -11 10 -3 6 -1 10 4 10 6 0 11 -4 11 -10z
m-116 -34 c-3 -9 -12 -16 -20 -16 -11 0 -10 4 3 20 19 22 26 21 17 -4z m216
14 c0 -5 -7 -7 -15 -4 -8 4 -15 8 -15 10 0 2 7 4 15 4 8 0 15 -4 15 -10z m128
-6 c12 -2 22 -9 22 -15 0 -8 -4 -8 -13 0 -8 6 -35 12 -60 12 -25 1 -44 6 -41
10 4 8 29 6 92 -7z m-194 -19 c-7 -18 -30 -20 -40 -3 -5 8 -2 9 9 5 10 -3 17
-2 17 3 0 6 4 10 10 10 5 0 7 -7 4 -15z m-56 -27 c9 -2 -9 -4 -40 -4 -32 0
-58 4 -58 9 0 5 7 7 15 3 8 -3 15 0 16 7 0 9 2 9 6 0 3 -10 9 -8 21 4 16 15
17 15 20 0 2 -8 11 -17 20 -19z m121 16 c2 -2 2 -7 -2 -10 -3 -3 -16 2 -29 11
l-23 17 25 -7 c14 -4 27 -9 29 -11z m145 -16 c-3 -4 -12 -8 -20 -8 -8 0 -13
-4 -9 -9 3 -5 1 -12 -5 -16 -6 -3 -13 1 -16 9 -3 9 -14 16 -23 16 -14 1 -14 2
2 11 9 6 15 14 12 19 -3 4 11 3 30 -2 19 -6 32 -15 29 -20z m-424 2 c0 -5 -7
-10 -16 -10 -8 0 -12 5 -9 10 3 6 10 10 16 10 5 0 9 -4 9 -10z m130 -30 c0 -5
-4 -10 -10 -10 -5 0 -10 5 -10 10 0 6 5 10 10 10 6 0 10 -4 10 -10z m108 3
c-10 -2 -26 -2 -35 0 -10 3 -2 5 17 5 19 0 27 -2 18 -5z m67 -3 c3 -5 2 -10
-4 -10 -5 0 -13 5 -16 10 -3 6 -2 10 4 10 5 0 13 -4 16 -10z m438 -46 c-2 -6
-13 -9 -24 -7 -13 4 -16 8 -9 13 18 11 38 8 33 -6z m-9 -108 c8 3 16 -2 19
-10 5 -12 1 -13 -15 -7 -12 4 -23 13 -24 20 -1 6 0 7 2 2 3 -6 11 -8 18 -5z
m76 -10 c0 -8 3 -22 7 -32 4 -11 3 -15 -4 -11 -13 8 -23 57 -12 57 5 0 9 -6 9
-14z m-733 -38 c0 -13 3 -30 7 -39 4 -10 2 -18 -7 -22 -10 -4 -13 2 -10 21 4
25 3 26 -8 7 -7 -11 -17 -23 -23 -27 -8 -6 -6 -11 4 -17 8 -6 11 -13 8 -17
-16 -16 -60 53 -52 82 4 15 13 19 40 19 19 -1 34 2 34 7 0 4 2 8 4 8 2 0 4
-10 3 -22z m58 -17 c3 -6 -4 -9 -15 -8 -11 1 -20 5 -20 9 0 11 28 10 35 -1z
m-15 -31 c0 -5 -5 -10 -11 -10 -5 0 -7 5 -4 10 3 6 8 10 11 10 2 0 4 -4 4 -10z
m620 -14 c0 -3 -4 -8 -10 -11 -5 -3 -10 -1 -10 4 0 6 5 11 10 11 6 0 10 -2 10
-4z m-403 -22 c-3 -3 -12 -4 -19 -1 -8 3 -5 6 6 6 11 1 17 -2 13 -5z m417 -15
c-3 -5 -14 -9 -25 -9 -10 0 -19 4 -19 9 0 5 11 9 25 9 13 0 22 -4 19 -9z m-89
-19 c3 -5 1 -10 -4 -10 -6 0 -11 5 -11 10 0 6 2 10 4 10 3 0 8 -4 11 -10z
m115 -11 c0 -6 -4 -7 -10 -4 -5 3 -10 11 -10 16 0 6 5 7 10 4 6 -3 10 -11 10
-16z m-1730 1 c0 -5 -5 -10 -11 -10 -5 0 -7 5 -4 10 3 6 8 10 11 10 2 0 4 -4
4 -10z m53 -47 c-7 -3 -10 -17 -6 -41 3 -20 3 -35 0 -32 -3 3 -8 29 -11 58 -4
49 -4 51 12 35 11 -11 13 -18 5 -20z m-35 3 c2 -10 -1 -23 -8 -30 -8 -8 -10
-7 -5 5 4 10 2 20 -4 24 -15 9 -14 28 2 23 6 -3 14 -13 15 -22z m-611 -23 c-3
-10 -5 -4 -5 12 0 17 2 24 5 18 2 -7 2 -21 0 -30z m-52 -20 c-4 -58 -4 -58
-17 -45 -10 10 -10 15 1 21 8 5 11 16 6 30 -3 11 -2 21 3 21 5 0 8 -12 7 -27z
m716 -26 c-10 -9 -11 -8 -5 6 3 10 9 15 12 12 3 -3 0 -11 -7 -18z m1592 16
c-7 -2 -21 -2 -30 0 -10 3 -4 5 12 5 17 0 24 -2 18 -5z m-2268 -23 c-3 -5 -10
-10 -16 -10 -5 0 -9 5 -9 10 0 6 7 10 16 10 8 0 12 -4 9 -10z m2205 -2 c0 -11
-12 -10 -30 2 -12 7 -10 9 8 7 12 0 22 -5 22 -9z m80 2 c0 -5 -13 -10 -29 -10
-17 0 -33 5 -36 10 -4 6 8 10 29 10 20 0 36 -4 36 -10z m50 -42 c0 -6 -10 -8
-22 -4 -13 3 -27 6 -31 6 -5 0 -6 4 -3 9 7 11 56 2 56 -11z m-95 -8 c3 -5 1
-10 -4 -10 -6 0 -11 5 -11 10 0 6 2 10 4 10 3 0 8 -4 11 -10z m-130 -10 c3 -5
1 -10 -4 -10 -6 0 -11 5 -11 10 0 6 2 10 4 10 3 0 8 -4 11 -10z m-1414 -17 c0
-10 2 -28 3 -40 3 -27 2 -28 -17 -9 -8 9 -12 26 -10 40 6 29 23 35 24 9z
m1589 5 c0 6 4 12 8 12 5 0 9 -7 9 -15 0 -11 -12 -15 -46 -14 -25 1 -37 3 -26
6 11 3 24 9 29 14 6 5 13 4 18 -4 6 -9 8 -9 8 1z m-90 -12 c0 -9 -40 -13 -46
-5 -3 5 6 9 20 9 14 0 26 -2 26 -4z m134 -28 c-6 -10 -51 -11 -57 0 -3 4 10 7
28 8 19 0 32 -3 29 -8z m-2254 -99 c0 -5 -4 -9 -10 -9 -5 0 -10 7 -10 16 0 8
5 12 10 9 6 -3 10 -10 10 -16z m1670 -31 c0 -13 -5 -41 -9 -63 -5 -22 -12 -65
-16 -95 -8 -63 -28 -160 -51 -240 -8 -30 -16 -59 -18 -65 -1 -5 -10 -34 -20
-63 -10 -29 -16 -62 -13 -72 3 -11 -1 -24 -9 -31 -8 -6 -14 -24 -14 -40 0 -15
-7 -34 -15 -42 -8 -9 -10 -17 -5 -19 17 -5 -19 -47 -53 -62 -21 -10 -26 -15
-14 -15 21 -1 19 -9 -20 -106 -30 -75 -101 -300 -119 -380 -7 -33 -18 -98 -24
-144 -6 -46 -18 -100 -26 -120 -15 -36 -26 -151 -13 -129 12 18 22 -37 16 -80
-3 -20 -11 -65 -17 -100 -7 -44 -7 -74 0 -100 16 -57 12 -72 -22 -105 -21 -19
-28 -32 -20 -34 6 -3 12 -12 12 -20 0 -13 -3 -13 -15 -3 -8 7 -15 19 -15 26 0
21 -44 17 -74 -7 -26 -21 -62 -22 -106 -5 -10 4 -28 -6 -48 -25 -32 -31 -33
-32 -54 -13 -12 11 -31 29 -41 42 -12 14 -29 22 -50 22 l-31 0 26 -27 c34 -37
42 -62 22 -70 -23 -9 -67 29 -71 62 -2 15 -13 39 -23 52 -28 36 -35 101 -16
164 8 30 23 82 33 117 9 35 25 68 34 73 9 4 20 21 24 36 3 16 14 36 22 45 12
14 14 28 8 65 -13 81 -8 147 18 234 14 46 24 98 22 114 -4 27 -4 27 3 5 7 -22
10 -18 24 35 16 55 26 112 62 347 9 58 10 90 3 97 -6 6 -10 108 -11 258 l-1
248 -26 -3 c-15 -1 -31 3 -36 10 -15 19 -63 151 -58 156 3 3 16 0 30 -6 32
-15 70 -15 97 -1 18 9 19 8 13 -10 -5 -17 -2 -21 16 -21 12 0 27 6 33 14 8 9
44 16 117 20 143 8 416 56 489 85 39 15 50 13 50 -11z m550 -54 c0 -8 -19 -13
-24 -6 -3 5 1 9 9 9 8 0 15 -2 15 -3z m-2135 -59 c11 -11 27 -29 35 -40 14
-19 14 -19 -6 -2 -33 28 -34 20 -8 -38 20 -44 24 -66 21 -111 -7 -80 -27 -95
-26 -18 1 55 -10 92 -67 239 -7 18 -6 19 12 6 10 -8 28 -24 39 -36z m501 17
c-3 -5 38 -6 90 -4 52 3 95 0 95 -4 1 -5 3 -18 4 -29 2 -11 10 -40 19 -64 9
-24 16 -45 16 -46 0 -5 -29 1 -36 7 -3 4 -12 4 -20 1 -8 -3 -14 0 -14 6 0 6
-6 11 -14 11 -10 0 -16 13 -18 38 -4 51 -34 51 -67 -1 -32 -48 -63 -57 -103
-27 -17 12 -38 20 -49 17 -21 -6 -35 8 -19 18 16 10 12 25 -6 25 -9 0 -23 -8
-30 -17 -12 -15 -15 -16 -23 -3 -5 8 -7 19 -3 25 3 5 -2 4 -11 -4 -9 -7 -17
-22 -17 -32 0 -32 -16 -29 -54 9 l-38 37 56 16 c30 9 83 20 118 23 35 4 70 11
78 16 15 9 54 -6 46 -18z m-349 -58 c40 -26 64 -64 95 -149 21 -58 22 -80 7
-124 -8 -21 -18 -31 -32 -32 -12 0 -17 -3 -10 -6 9 -3 4 -16 -14 -44 -14 -21
-27 -39 -29 -39 -3 0 -13 15 -24 33 -24 39 -27 97 -4 97 8 0 12 5 9 10 -9 15
-25 2 -40 -32 -11 -27 -13 -21 -18 74 -3 56 -9 114 -12 128 -6 25 -6 24 19 -5
22 -25 26 -27 32 -12 6 16 -4 69 -21 110 -10 23 -3 22 42 -9z m271 -202 c21
-16 32 -33 32 -49 0 -13 5 -34 11 -45 6 -11 21 -70 34 -132 12 -61 33 -140 46
-176 24 -69 30 -182 12 -229 -9 -23 3 -71 18 -71 9 0 -25 -69 -34 -70 -4 0
-15 17 -23 38 -9 20 -38 80 -64 133 -27 53 -46 99 -43 103 3 3 -3 14 -14 23
-11 10 -18 24 -15 32 3 8 0 11 -6 7 -6 -3 -13 -2 -17 4 -3 5 1 10 10 10 11 0
15 5 11 15 -11 30 21 14 46 -23 l15 -23 16 33 c20 43 33 99 18 78 -9 -13 -11
-13 -11 3 0 9 5 17 10 17 15 0 12 29 -9 74 -24 52 -58 160 -67 208 -6 38 -19
53 -57 73 -11 5 -22 16 -25 23 -4 14 52 -16 106 -56z m-18 -127 c0 -5 -5 -3
-10 5 -5 8 -10 20 -10 25 0 6 5 3 10 -5 5 -8 10 -19 10 -25z m5 -24 c3 -5 2
-12 -3 -15 -5 -3 -9 1 -9 9 0 17 3 19 12 6z m25 -98 c0 -6 6 -14 13 -17 6 -2
1 -4 -12 -3 -16 1 -26 -5 -32 -20 -5 -14 -5 -23 1 -23 6 0 10 9 10 20 0 27 18
25 31 -4 17 -37 -8 -81 -45 -81 -16 0 -31 -6 -33 -12 -6 -18 -33 -16 -33 2 0
8 6 12 14 9 9 -3 19 4 26 16 8 15 8 20 1 16 -15 -10 -14 43 2 77 6 15 15 27
20 27 4 0 7 10 7 22 0 21 0 21 15 2 8 -10 15 -24 15 -31z m-260 -18 c9 -11 22
-33 30 -50 l14 -30 4 34 3 34 15 -28 c8 -15 15 -44 15 -64 1 -20 3 -27 6 -16
10 45 16 51 23 25 5 -14 9 -43 9 -65 1 -30 4 -36 11 -25 5 8 7 24 5 35 -3 11
1 7 8 -8 8 -16 20 -33 28 -38 10 -6 10 -9 2 -9 -7 0 -13 -4 -13 -10 0 -5 7
-10 16 -10 13 0 15 -8 9 -52 -4 -29 -15 -87 -26 -130 -10 -42 -19 -88 -19
-102 0 -18 -4 -24 -15 -20 -8 4 -13 10 -10 15 3 4 0 23 -8 41 -7 18 -12 48
-10 66 4 31 -10 45 -20 20 -3 -8 -6 -6 -6 5 -1 9 -5 17 -11 17 -15 0 -12 23 5
46 14 18 14 17 5 -8 -5 -16 -8 -28 -7 -29 1 0 10 -2 20 -4 14 -3 16 0 7 10 -7
8 -7 15 -1 19 5 3 12 0 14 -6 3 -7 6 -3 6 9 1 12 7 23 14 26 8 3 6 10 -8 21
-20 16 -73 15 -85 -2 -8 -12 -78 -30 -142 -38 -61 -7 -72 1 -43 30 8 8 15 24
15 35 0 13 6 21 17 21 14 0 14 3 -5 20 -12 11 -28 20 -37 20 -8 0 -15 7 -15
15 0 8 5 15 10 15 6 0 10 9 10 19 0 11 16 38 35 61 19 23 38 54 41 69 4 14 8
29 11 33 7 14 59 2 73 -17z m171 -78 c-8 -8 -11 -7 -11 4 0 20 13 34 18 19 3
-7 -1 -17 -7 -23z m449 -372 c6 -29 6 -63 2 -80 -8 -26 -10 -20 -15 40 -3 39
-9 81 -12 95 -5 19 -4 22 4 10 6 -8 15 -37 21 -65z m-64 -137 c-3 -81 -8 -114
-19 -125 -13 -14 -15 -3 -15 98 0 110 9 156 28 144 5 -3 8 -56 6 -117z m-153
42 c3 -11 1 -23 -4 -26 -5 -3 -9 6 -9 20 0 31 6 34 13 6z m-34 -122 c1 -35 5
-92 8 -127 7 -91 -12 -100 -21 -9 -11 100 -9 198 3 198 4 0 8 -28 10 -62z
m158 -110 c-3 -8 -6 -5 -6 6 -1 11 2 17 5 13 3 -3 4 -12 1 -19z m-271 -185 c3
-17 2 -42 -2 -55 -7 -22 -8 -22 -16 10 -6 23 -14 32 -29 32 -12 0 -17 4 -14
11 4 6 14 8 22 5 12 -5 14 -1 10 21 -3 16 -9 37 -12 48 -4 12 2 8 14 -10 11
-16 24 -44 27 -62z m121 45 c-3 -7 -5 -2 -5 12 0 14 2 19 5 13 2 -7 2 -19 0
-25z m-202 -48 c3 -5 1 -10 -4 -10 -6 0 -11 5 -11 10 0 6 2 10 4 10 3 0 8 -4
11 -10z m32 -77 c-4 -3 -1 -13 6 -22 11 -14 10 -14 -5 -2 -21 15 -23 31 -6 31
6 0 8 -3 5 -7z m-637 -163 c0 -5 -2 -10 -4 -10 -3 0 -8 5 -11 10 -3 6 -1 10 4
10 6 0 11 -4 11 -10z m571 -23 c-10 -9 -11 -8 -5 6 3 10 9 15 12 12 3 -3 0
-11 -7 -18z m67 -52 c1 -14 -2 -25 -6 -25 -4 0 -8 11 -8 25 -2 33 11 33 14 0z
m-11 -57 c-3 -8 -6 -5 -6 6 -1 11 2 17 5 13 3 -3 4 -12 1 -19z m-32 -170 c7
-7 6 -12 -2 -15 -7 -3 -13 -12 -14 -21 0 -11 -2 -12 -6 -4 -7 19 -25 15 -55
-13 -15 -14 -29 -25 -32 -25 -9 0 -19 69 -12 85 5 13 16 14 58 9 29 -4 58 -11
63 -16z"/>
<path d="M1920 4260 c-9 -6 -10 -10 -3 -10 6 0 15 5 18 10 8 12 4 12 -15 0z"/>
<path d="M1767 4209 c-9 -6 -15 -14 -12 -20 3 -5 -1 -6 -9 -3 -9 3 -16 1 -16
-5 0 -14 13 -14 45 1 21 9 31 9 46 0 17 -11 25 -9 52 14 20 17 24 24 12 20
-39 -16 -68 -20 -61 -7 9 14 -32 14 -57 0z"/>
<path d="M1830 2206 c8 -8 26 -16 40 -20 23 -5 23 -4 -2 6 -16 7 -28 15 -28
20 0 4 -5 8 -12 8 -8 0 -8 -4 2 -14z"/>
<path d="M1375 2260 c-16 -7 -17 -9 -3 -9 9 -1 20 4 23 9 7 11 7 11 -20 0z"/>
<path d="M1070 2181 c0 -5 4 -12 10 -16 5 -3 8 -11 6 -18 -1 -7 -1 -9 1 -5 2
4 11 4 19 1 8 -3 14 -1 14 3 -1 13 -50 47 -50 35z"/>
<path d="M1107 2117 c-3 -8 3 -23 14 -33 22 -20 24 -10 5 25 -10 18 -14 20
-19 8z"/>
<path d="M1100 1905 c-11 -13 -10 -14 4 -9 9 3 16 10 16 15 0 13 -6 11 -20 -6z"/>
<path d="M1456 1303 c5 -5 12 -12 16 -18 4 -6 8 -2 8 8 0 9 -7 17 -17 17 -9 0
-12 -3 -7 -7z"/>
<path d="M1220 1496 c0 -8 51 -13 56 -5 3 5 -9 9 -25 9 -17 0 -31 -2 -31 -4z"/>
<path d="M1250 1460 c0 -5 5 -10 11 -10 5 0 7 5 4 10 -3 6 -8 10 -11 10 -2 0
-4 -4 -4 -10z"/>
<path d="M3699 7052 c-25 -26 -48 -54 -52 -63 -3 -9 -27 -25 -54 -35 -65 -24
-73 -31 -73 -70 0 -30 -3 -34 -25 -34 -36 0 -31 -16 15 -41 21 -12 53 -40 70
-61 17 -21 35 -38 40 -38 6 0 10 17 10 38 0 40 4 47 98 164 20 26 54 79 75
118 l38 70 -48 -1 c-44 0 -52 -5 -94 -47z"/>
<path d="M4360 7070 c16 -57 62 -165 76 -180 12 -12 16 -12 29 5 8 11 15 16
15 10 0 -5 4 -3 10 5 5 8 11 12 13 10 13 -15 105 -175 102 -178 -6 -6 -45 22
-45 33 0 6 -13 23 -30 38 -16 16 -30 33 -30 38 0 5 -7 9 -15 9 -21 0 -19 -8
10 -46 29 -38 31 -49 9 -40 -11 4 -22 -1 -31 -14 -9 -12 -25 -20 -44 -20 -16
0 -29 -5 -29 -10 0 -6 -10 -15 -22 -20 -35 -15 -62 -34 -71 -48 -6 -10 -12
-10 -22 -2 -16 13 -28 -1 -19 -25 6 -14 9 -14 23 -2 26 23 123 67 145 67 17
-1 15 -4 -9 -16 -22 -11 -24 -13 -7 -10 12 2 22 0 22 -5 0 -5 18 -6 40 -3 65
11 46 -9 -43 -44 -84 -33 -147 -78 -147 -106 0 -8 -2 -21 -5 -28 -4 -11 2 -13
29 -10 18 2 36 0 40 -6 3 -5 -19 -10 -56 -11 -73 -1 -88 -12 -88 -58 0 -29 3
-34 17 -29 9 4 20 1 24 -6 6 -9 38 -13 108 -13 91 0 98 1 90 18 -9 16 -20 18
-119 22 -69 3 -74 8 -15 15 33 4 95 5 137 2 77 -5 78 -5 72 -31 -3 -14 -13
-40 -22 -58 -12 -24 -20 -30 -31 -23 -24 12 -243 32 -250 22 -3 -5 -14 -11
-23 -15 -10 -3 -18 -14 -18 -23 0 -11 5 -14 16 -10 37 14 99 18 189 11 92 -7
95 -8 89 -28 -4 -12 -8 -39 -10 -59 -1 -21 -6 -43 -10 -50 -5 -7 -10 -21 -11
-31 -5 -31 -44 -56 -78 -50 -21 3 -38 -1 -55 -15 -34 -28 -18 -42 54 -49 60
-6 81 -21 73 -52 -3 -12 0 -18 7 -16 6 2 164 6 351 9 896 15 1072 20 1095 28
18 7 21 11 11 17 -10 6 -7 15 14 35 33 33 42 34 16 0 -26 -33 -17 -54 23 -53
l31 1 -30 8 -30 8 28 1 c15 0 27 6 27 12 0 8 5 8 15 -1 8 -7 12 -16 9 -21 -3
-5 1 -9 8 -9 13 0 62 99 54 108 -3 2 -14 -11 -25 -29 -17 -28 -21 -30 -27 -15
-4 10 -13 15 -22 11 -22 -8 -45 14 -31 31 6 8 17 14 25 14 7 0 17 6 21 14 13
23 110 96 127 96 9 0 20 8 23 18 26 67 277 334 334 354 16 5 29 14 29 19 0 4
16 11 35 15 19 3 35 10 35 14 0 4 14 13 31 21 24 10 38 10 62 1 17 -6 33 -9
36 -7 2 3 -1 5 -7 5 -7 0 -12 5 -12 10 0 18 77 11 101 -10 13 -10 18 -19 12
-20 -16 0 -17 -30 -2 -30 14 0 8 -128 -7 -138 -5 -4 -18 -23 -28 -42 -23 -42
-84 -120 -108 -138 -10 -7 -23 -32 -29 -55 -12 -47 -49 -89 -126 -147 -28 -22
-61 -53 -73 -70 l-22 -31 129 3 128 3 -3 28 c-3 21 8 45 36 85 44 65 188 308
251 427 32 59 45 97 51 150 5 38 16 95 24 125 9 30 20 100 26 155 6 55 13 112
15 128 l4 27 -1364 0 -1364 0 9 -30z m230 -520 c-8 -5 -19 -10 -25 -10 -5 0
-3 5 5 10 8 5 20 10 25 10 6 0 3 -5 -5 -10z m1465 -340 c-3 -5 -10 -10 -16
-10 -5 0 -9 5 -9 10 0 6 7 10 16 10 8 0 12 -4 9 -10z m-1528 -76 c-3 -3 -12
-4 -19 -1 -8 3 -5 6 6 6 11 1 17 -2 13 -5z m47 -130 c10 -26 7 -32 -14 -27
-24 6 -34 19 -25 33 9 15 32 12 39 -6z"/>
<path d="M8020 7078 c0 -33 16 -56 30 -42 8 8 8 18 -1 37 -15 33 -29 35 -29 5z"/>
<path d="M8072 7078 c9 -14 13 -38 11 -59 -5 -34 -3 -36 39 -53 29 -13 37 -20
26 -23 -11 -3 -19 -19 -23 -47 -5 -33 -13 -47 -36 -60 -16 -10 -27 -22 -24
-27 11 -16 -42 -9 -92 12 -26 12 -56 23 -66 24 -9 1 -28 11 -40 23 -13 12 -27
22 -32 22 -16 0 87 -89 128 -110 20 -11 37 -28 37 -37 0 -9 6 -24 14 -32 8 -9
16 -34 18 -56 2 -22 8 -46 12 -53 4 -8 5 -16 2 -19 -3 -4 5 -25 19 -49 25 -43
25 -65 -2 -92 -7 -7 -13 -26 -13 -42 0 -16 -4 -31 -9 -35 -6 -3 -10 -22 -9
-43 0 -20 -5 -50 -11 -65 -13 -34 -13 -37 -2 -37 5 0 11 17 15 39 3 21 12 44
20 50 12 10 15 6 21 -18 4 -17 7 -34 8 -38 0 -5 7 -14 14 -21 17 -17 17 -43 1
-36 -7 2 -23 19 -35 37 -23 31 -23 31 -24 7 -2 -32 -2 -30 7 -64 6 -25 4 -28
-10 -23 -19 7 -20 1 -5 -41 8 -23 8 -41 -1 -66 -11 -36 -82 -108 -124 -127
-19 -9 -26 -22 -31 -59 -6 -44 -41 -123 -97 -220 -15 -25 -31 -69 -36 -97 l-9
-53 31 0 c17 0 42 9 55 19 l24 18 -27 7 c-15 4 -31 4 -36 1 -6 -4 -10 -1 -10
5 0 7 9 14 20 17 21 6 25 15 13 27 -16 16 -9 45 33 129 24 49 44 102 44 118 0
24 6 30 38 39 45 12 59 23 96 73 16 21 32 34 35 30 3 -4 15 -9 26 -11 11 -2
35 -12 53 -23 19 -11 37 -17 42 -14 4 3 11 -6 14 -20 4 -14 11 -25 17 -25 6 0
7 -4 4 -10 -3 -5 -17 -10 -31 -10 -14 0 -22 -4 -19 -10 3 -5 15 -10 26 -10 19
0 19 -1 5 -16 -9 -8 -19 -13 -23 -11 -5 3 -17 1 -28 -4 -15 -6 -16 -8 -4 -8
25 -1 33 -31 9 -31 -24 0 -35 -17 -20 -35 8 -10 8 -15 -1 -21 -7 -4 -10 -3 -7
2 3 5 0 14 -7 21 -10 9 -14 8 -18 -8 -3 -10 -1 -19 4 -19 16 0 -14 -38 -33
-43 -18 -5 -21 -26 -5 -38 5 -4 -1 -16 -14 -28 -12 -11 -20 -21 -16 -21 4 0 3
-10 -4 -21 -6 -12 -12 -37 -13 -55 -2 -20 -12 -42 -24 -53 -23 -19 -29 -41
-13 -41 6 0 9 -8 9 -17 -1 -10 11 -43 25 -74 37 -77 50 -152 37 -218 -5 -30
-10 -55 -10 -57 0 -2 15 -4 34 -4 19 0 37 -4 40 -8 3 -5 -1 -49 -9 -98 -27
-177 -27 -184 -1 -184 17 0 26 -7 30 -25 4 -14 11 -25 16 -25 6 0 10 -5 10
-11 0 -15 26 -39 34 -32 3 4 16 -3 29 -14 12 -12 31 -23 42 -25 11 -2 19 -8
17 -13 -3 -11 35 -20 143 -35 39 -5 85 -13 103 -16 25 -5 36 -2 46 11 7 10 18
15 24 11 5 -3 12 -2 14 4 2 6 8 6 18 0 13 -8 12 -10 -2 -10 -10 0 -18 -4 -18
-10 0 -5 8 -10 18 -10 11 0 29 -9 42 -20 26 -23 38 -26 21 -7 -6 8 -8 17 -4
20 11 11 83 8 83 -4 0 -5 6 -7 13 -3 6 4 9 4 5 -1 -4 -4 2 -20 13 -36 11 -15
21 -47 24 -70 5 -48 7 -52 28 -43 11 4 16 18 15 47 0 56 1 71 7 66 2 -3 7
-106 10 -229 3 -124 8 -242 10 -262 3 -24 1 -38 -6 -38 -6 0 -17 -7 -25 -15
-10 -10 -35 -15 -75 -15 -32 0 -59 -4 -59 -9 0 -12 -47 -20 -57 -10 -4 4 -31
-1 -60 -11 -33 -12 -55 -14 -61 -8 -6 6 -12 6 -16 -1 -4 -6 -23 -11 -43 -11
-20 0 -44 -7 -53 -15 -10 -9 -27 -18 -40 -20 -12 -2 -29 -14 -37 -25 -8 -11
-22 -20 -31 -20 -9 0 -23 -13 -30 -30 -8 -16 -37 -47 -65 -69 -75 -57 -84 -67
-140 -148 -12 -18 -36 -52 -52 -75 -46 -64 -74 -127 -86 -194 -23 -119 -17
-148 69 -317 51 -102 90 -232 78 -264 -3 -6 5 -14 17 -17 12 -3 18 -8 14 -12
-4 -4 -2 -13 4 -20 6 -8 9 -21 5 -29 -3 -8 -1 -15 5 -15 6 0 7 -4 4 -10 -3 -6
1 -10 9 -10 8 0 18 -5 21 -10 4 -6 3 -10 -2 -9 -20 3 -27 -2 -13 -11 13 -9 13
-11 0 -19 -8 -6 -11 -13 -7 -17 3 -4 13 -1 22 6 9 8 15 8 15 2 0 -6 -10 -18
-22 -26 -17 -12 -19 -16 -6 -16 9 0 18 4 20 10 4 12 101 24 129 15 16 -6 18
-9 8 -15 -9 -6 -5 -11 15 -16 l29 -7 -23 -12 c-19 -10 -20 -13 -6 -18 10 -4
15 -11 11 -16 -3 -6 1 -13 8 -18 20 -11 42 -55 38 -76 -2 -12 5 -17 22 -17 14
0 28 -7 31 -16 5 -12 1 -14 -17 -9 -21 6 -21 5 2 -8 16 -10 20 -16 12 -22 -9
-5 -7 -11 6 -21 14 -11 15 -13 3 -14 -28 0 -60 12 -54 21 3 5 -2 6 -10 3 -20
-8 -11 -24 14 -24 10 0 25 -7 33 -15 8 -8 17 -12 20 -9 3 3 14 1 24 -5 16 -9
14 -11 -12 -12 -16 -1 -40 0 -52 1 -12 1 -30 -4 -40 -10 -17 -11 -17 -11 0 -6
20 6 73 -11 63 -21 -4 -4 -17 -8 -28 -8 -12 0 -23 -7 -25 -15 -4 -13 -3 -13 6
0 9 13 11 13 11 -1 0 -9 -7 -22 -15 -29 -12 -10 -15 -10 -15 4 0 20 -1 20 -36
1 -16 -8 -24 -15 -18 -15 6 0 11 -13 12 -30 0 -23 -6 -32 -30 -45 -17 -8 -40
-15 -51 -15 -11 0 -17 -3 -14 -6 3 -4 2 -15 -4 -26 -13 -23 -3 -58 17 -58 14
0 20 25 7 33 -5 2 -1 2 7 -1 38 -12 73 -14 66 -4 -4 7 1 10 12 7 10 -2 25 0
32 5 13 8 6 30 -11 30 -6 0 -8 -4 -5 -9 9 -14 -59 -22 -90 -11 -23 9 -25 13
-14 20 8 6 22 10 30 10 13 0 13 -1 0 -10 -12 -8 -11 -10 8 -10 20 0 21 2 11
21 -9 17 -8 20 3 13 7 -5 23 -9 34 -9 12 0 29 -7 38 -14 11 -10 16 -10 16 -2
0 7 5 9 11 6 14 -9 -31 -57 -47 -51 -7 3 -18 -2 -24 -10 -10 -11 -10 -14 0
-14 8 0 11 -2 9 -5 -3 -2 -20 -1 -37 4 -23 7 -31 6 -29 -2 1 -7 -4 -11 -11 -9
-7 1 -20 -14 -28 -33 -14 -34 -36 -43 -91 -36 -19 3 -16 -20 12 -103 14 -41
25 -84 25 -96 0 -34 -38 -98 -70 -117 -16 -9 -30 -21 -30 -25 0 -4 -19 -12
-42 -18 -22 -7 -55 -25 -71 -42 -56 -56 -68 -54 -128 14 -30 34 -61 71 -69 83
-8 12 -37 48 -65 78 -27 31 -58 68 -69 82 -13 19 -21 23 -26 15 -5 -9 -9 -9
-14 -1 -11 18 -29 13 -22 -6 5 -15 4 -15 -9 1 -15 20 -15 19 -15 -1 0 -11 10
-32 21 -47 21 -27 21 -28 5 -164 -9 -75 -19 -154 -22 -176 -5 -31 -3 -37 7
-31 9 5 8 1 -2 -11 -20 -23 -36 -124 -20 -124 6 0 8 -7 5 -15 -5 -11 3 -17 25
-21 25 -5 29 -9 20 -20 -6 -8 -15 -11 -20 -8 -5 3 -9 0 -9 -6 0 -8 9 -10 24
-6 15 4 26 1 29 -7 3 -9 8 -9 21 2 12 10 20 11 28 3 8 -8 0 -13 -26 -17 -20
-4 -36 -12 -36 -17 0 -5 -7 -2 -16 6 -23 23 -32 20 -27 -11 4 -27 4 -27 -11
-9 -9 11 -16 16 -17 10 0 -5 -4 0 -9 11 -8 17 -9 15 -7 -10 l2 -29 79 -3 c46
-1 82 -7 86 -13 4 -7 16 -11 26 -10 34 4 54 0 54 -9 0 -5 -25 -9 -55 -8 -37 1
-54 6 -51 13 3 9 -3 9 -24 1 -22 -8 -27 -14 -18 -24 6 -7 7 -13 2 -14 -5 0 2
-5 15 -10 18 -7 28 -6 41 6 19 18 100 21 100 4 0 -7 -11 -9 -30 -6 -31 7 -52
-8 -23 -16 10 -3 -1 -5 -24 -6 -33 -1 -41 -4 -37 -16 4 -8 1 -15 -4 -15 -6 0
-13 -8 -15 -17 -4 -15 -5 -15 -6 -2 -1 12 -11 16 -41 16 -43 0 -54 -18 -22
-36 13 -9 7 -10 -28 -8 -25 1 -48 6 -52 12 -4 5 -8 -2 -8 -17 0 -16 5 -28 11
-28 5 0 8 4 5 9 -3 5 6 9 19 9 14 0 25 -4 25 -9 0 -4 15 -5 33 -3 17 3 38 6
46 6 10 1 10 4 -3 13 -8 7 -13 15 -10 18 3 3 16 -5 28 -18 11 -13 41 -31 66
-39 l45 -15 -37 1 c-21 1 -38 6 -38 11 0 6 -8 3 -18 -6 -10 -10 -25 -17 -33
-16 -8 0 -4 5 9 11 12 6 22 15 22 20 0 11 -7 10 -32 -3 -15 -8 -19 -8 -14 0 4
6 0 11 -9 11 -12 0 -15 -6 -10 -20 5 -15 2 -20 -13 -20 -12 0 -22 9 -25 21 -4
16 -10 20 -24 14 -10 -4 -25 -7 -34 -7 -16 1 -28 -46 -34 -138 -2 -19 -6 -43
-10 -53 -4 -10 -5 -35 -2 -55 4 -21 3 -31 -2 -24 -5 8 -14 -26 -24 -88 -8 -56
-17 -103 -19 -105 -2 -2 -41 3 -88 10 -47 8 -254 39 -460 70 -206 31 -390 58
-408 62 l-32 5 37 -103 c20 -57 54 -131 75 -164 21 -33 49 -85 63 -115 14 -30
33 -62 42 -72 15 -17 97 -18 1695 -18 l1678 0 0 1318 c0 845 -4 1322 -10 1328
-5 5 -17 74 -27 152 -10 78 -20 142 -23 142 -8 0 -70 -60 -85 -83 -8 -12 -19
-47 -24 -77 -24 -126 -35 -170 -44 -170 -6 0 -7 3 -4 6 3 4 -9 25 -28 47 -36
42 -69 133 -59 164 3 11 -4 7 -20 -12 -14 -16 -26 -33 -26 -36 0 -14 -106 3
-130 20 -33 25 -33 87 0 155 34 67 71 96 123 96 54 0 64 -7 72 -53 4 -20 11
-40 16 -43 5 -3 34 18 63 46 65 63 88 79 126 90 35 10 56 -10 52 -49 -4 -25
-3 -25 12 -6 13 18 15 98 16 662 l0 642 -22 12 c-22 11 -46 32 -180 151 -123
110 -125 112 -105 116 9 2 15 8 12 13 -4 5 -1 9 4 9 6 0 11 -4 11 -10 0 -15
30 -12 47 6 13 12 13 20 4 40 -18 40 -13 43 29 23 21 -10 44 -19 50 -19 16 0
12 28 -7 38 -14 8 -12 12 14 26 17 8 56 25 87 37 l56 20 0 1150 0 1149 -442
-1 c-406 0 -441 -1 -420 -16 16 -11 22 -25 22 -54 0 -31 -8 -48 -47 -91 -25
-29 -53 -53 -62 -55 -30 -4 -58 9 -69 31 -11 25 6 89 30 109 15 12 48 62 48
72 0 10 -306 5 -316 -5 -6 -6 -9 -33 -6 -62 4 -46 3 -51 -13 -44 -15 5 -16 4
-5 -9 10 -12 9 -24 -3 -62 -27 -88 -77 -304 -77 -335 0 -44 20 -95 49 -124 49
-50 69 -64 90 -64 6 0 13 -21 16 -47 16 -117 47 -199 109 -288 43 -64 49 -99
15 -108 -10 -3 -19 -1 -19 4 0 5 -11 9 -24 9 -13 0 -26 7 -30 15 -4 10 1 15
15 15 13 0 18 -4 13 -12 -5 -7 -3 -8 6 -3 7 4 15 2 20 -4 5 -9 10 -8 20 4 11
13 10 15 -3 10 -9 -4 -21 2 -30 16 -11 14 -22 20 -36 16 -12 -3 -27 3 -37 14
-13 14 -20 16 -30 8 -11 -9 -9 -15 9 -30 26 -22 18 -23 -48 -5 -88 23 -199 76
-235 112 -20 18 -43 34 -51 34 -8 0 -29 14 -47 30 -18 17 -43 30 -55 31 -20 0
-20 1 -3 8 16 6 14 10 -17 24 -26 13 -37 26 -43 50 -4 17 -10 39 -12 47 -2 8
-4 33 -3 55 0 31 -2 36 -9 20 -10 -23 -13 -232 -3 -222 9 9 33 -48 33 -79 0
-30 -18 -40 -34 -18 -7 9 -17 14 -23 11 -15 -9 -56 34 -83 89 -14 27 -27 51
-31 54 -15 14 -40 102 -33 122 10 33 55 100 82 121 15 13 22 29 22 53 0 23 6
38 20 46 11 7 20 21 20 31 0 18 113 137 130 137 14 0 13 -3 -11 -57 -12 -27
-27 -59 -32 -73 -6 -14 -13 -29 -15 -35 -3 -5 5 0 17 12 11 12 21 27 21 33 0
6 7 22 16 35 9 14 13 25 10 25 -7 0 16 44 59 115 17 28 25 55 25 90 0 62 28
132 55 139 11 3 32 6 47 6 15 0 30 5 33 10 5 8 12 7 22 -1 11 -10 16 -10 22 0
6 10 12 9 24 -3 8 -9 19 -16 23 -16 5 0 3 5 -4 12 -17 17 -15 36 6 41 9 3 -65
5 -165 6 l-183 1 0 -23 c0 -13 -6 -29 -12 -35 -10 -10 -10 -15 1 -21 9 -6 10
-11 2 -15 -6 -4 -11 -16 -11 -27 0 -10 -4 -19 -10 -19 -11 0 -9 28 3 48 5 6 4
12 -2 12 -5 0 -13 -5 -17 -11 -4 -7 -16 -2 -33 15 -65 65 -86 76 -146 76 -57
0 -57 0 -43 -22z m478 2 c0 -5 -4 -10 -10 -10 -5 0 -10 5 -10 10 0 6 5 10 10
10 6 0 10 -4 10 -10z m670 -132 c0 -5 -4 -8 -10 -8 -5 0 -10 10 -10 23 0 18 2
19 10 7 5 -8 10 -18 10 -22z m-413 -95 c9 -21 19 -41 21 -45 2 -5 0 -8 -5 -8
-16 0 -53 59 -47 74 9 23 12 20 31 -21z m227 -502 c3 -4 7 -47 8 -95 2 -77 0
-88 -20 -108 -27 -28 -84 -28 -121 -1 -28 22 -44 75 -39 133 3 34 5 35 45 36
26 1 52 10 69 23 28 22 49 27 58 12z m-30 -393 c-4 -6 -3 -8 3 -5 6 4 31 -1
57 -9 46 -16 47 -16 26 -34 -23 -20 -57 -15 -103 15 -21 13 -24 19 -14 30 15
17 41 20 31 3z m192 -48 c8 0 14 -9 14 -19 0 -22 -19 -38 -29 -24 -3 5 -15 8
-26 7 -11 0 -29 2 -40 6 -18 6 -17 8 10 23 17 9 36 14 43 12 8 -3 20 -5 28 -5z
m-176 -21 c0 -23 -33 -16 -37 7 -1 7 6 10 17 7 11 -3 20 -9 20 -14z m264 2 c4
-5 -3 -7 -15 -4 -12 4 -25 0 -30 -8 -7 -11 -9 -10 -9 4 0 18 44 25 54 8z m566
-1 c0 -4 -18 -12 -41 -18 -28 -7 -39 -7 -36 1 1 5 11 11 21 13 10 1 20 4 22 7
7 7 34 4 34 -3z m-332 -26 c63 -17 34 -29 -71 -29 -93 0 -224 12 -215 20 1 1
25 6 53 10 27 3 52 8 55 11 7 8 138 -2 178 -12z m9 10 c-3 -3 -12 -4 -19 -1
-8 3 -5 6 6 6 11 1 17 -2 13 -5z m223 -4 c0 -5 -8 -10 -17 -11 -10 0 -25 -2
-33 -3 -8 -2 -42 -6 -75 -9 -57 -6 -59 -6 -28 7 17 8 52 14 78 14 26 0 49 3
53 6 9 9 22 7 22 -4z m-795 -19 c3 -5 1 -12 -5 -16 -5 -3 -10 1 -10 9 0 18 6
21 15 7z m919 -24 c-48 -19 -121 -29 -292 -42 -82 -7 -83 -6 -65 12 10 10 19
15 21 11 2 -4 12 -4 21 2 10 5 64 11 119 14 56 2 106 7 112 11 16 10 94 21
114 17 14 -4 6 -10 -30 -25z m-614 6 c47 -8 97 -14 113 -14 18 1 27 -4 27 -14
0 -14 -12 -15 -97 -9 -54 4 -107 13 -118 20 -11 7 -24 13 -30 13 -5 0 -11 4
-13 9 -4 13 23 12 118 -5z m-80 -33 c0 -5 8 -10 18 -10 14 0 15 -2 2 -10 -10
-6 -16 -6 -18 0 -2 6 -10 10 -17 10 -8 0 -17 5 -20 10 -3 6 3 10 14 10 12 0
21 -4 21 -10z m580 -20 c0 -5 -5 -10 -11 -10 -6 0 -23 -8 -37 -18 -38 -26
-122 -52 -122 -38 0 13 55 40 120 60 25 8 46 14 48 15 1 1 2 -3 2 -9z m-456
-15 c3 -9 0 -15 -9 -15 -8 0 -15 7 -15 15 0 8 4 15 9 15 5 0 11 -7 15 -15z
m206 -15 c-20 -13 -73 -13 -65 0 3 6 23 10 43 10 28 0 33 -3 22 -10z m-469
-935 c31 -33 58 -92 36 -79 -45 27 -77 59 -82 84 -7 31 5 66 13 40 2 -8 17
-28 33 -45z m156 -17 c3 -24 10 -51 15 -61 5 -10 7 -21 4 -24 -8 -8 -33 55
-36 87 -6 67 10 65 17 -2z m-223 -144 c26 -7 51 -15 54 -18 13 -13 -91 -5
-118 9 -35 18 -41 40 -7 29 12 -4 44 -13 71 -20z m-204 -82 c0 -4 -9 -8 -20
-9 -11 -1 -18 2 -15 8 7 11 35 12 35 1z m1052 -159 c12 -24 37 -36 78 -37 20
-1 24 -6 22 -22 -2 -17 5 -25 30 -35 l33 -13 -32 -3 c-33 -4 -47 -23 -17 -23
9 0 25 -10 35 -21 18 -21 18 -22 -4 -45 -12 -13 -25 -24 -29 -24 -4 0 -18 -11
-32 -25 -28 -28 -67 -33 -86 -10 -8 10 -21 13 -37 9 -31 -8 -44 9 -36 48 6 32
-11 58 -38 58 -15 0 -18 -5 -13 -24 3 -13 1 -27 -5 -30 -6 -4 -11 -1 -11 7 0
8 -3 28 -6 45 -6 29 -4 31 32 41 52 15 59 14 43 -5 -12 -14 -11 -16 6 -12 13
2 20 12 21 28 1 52 21 63 53 29 15 -16 27 -20 45 -15 38 9 32 23 -13 31 -41 7
-62 34 -60 78 0 14 2 16 6 7 2 -8 9 -25 15 -37z m-163 -305 c12 -3 12 -6 -2
-11 -11 -4 -27 3 -44 19 l-28 25 30 -14 c17 -8 37 -16 44 -19z m131 22 c8 -5
11 -10 5 -10 -5 0 -17 5 -25 10 -8 5 -10 10 -5 10 6 0 17 -5 25 -10z m-220
-39 c3 -2 -7 -1 -22 3 -18 4 -28 2 -28 -4 0 -6 -5 -8 -12 -4 -9 6 -9 9 0 12 7
2 12 11 12 19 0 14 3 13 23 -3 12 -10 24 -21 27 -23z m164 -3 c-3 -4 -11 -5
-19 -1 -21 7 -19 12 4 10 11 0 18 -5 15 -9z m-279 -38 c3 -5 1 -10 -4 -10 -6
0 -11 5 -11 10 0 6 2 10 4 10 3 0 8 -4 11 -10z m-220 -70 c3 -5 1 -10 -4 -10
-6 0 -11 5 -11 10 0 6 2 10 4 10 3 0 8 -4 11 -10z m385 -10 c0 -5 -5 -10 -11
-10 -5 0 -7 5 -4 10 3 6 8 10 11 10 2 0 4 -4 4 -10z m-550 -30 c0 -5 -7 -10
-16 -10 -8 0 -12 5 -9 10 3 6 10 10 16 10 5 0 9 -4 9 -10z m691 -23 c-10 -9
-11 -8 -5 6 3 10 9 15 12 12 3 -3 0 -11 -7 -18z m-491 -27 c0 -5 -9 -10 -20
-10 -13 0 -20 -7 -20 -20 0 -17 -2 -19 -14 -8 -19 18 -9 36 22 41 15 2 28 5
30 6 1 0 2 -3 2 -9z m350 6 c0 -3 -4 -8 -10 -11 -5 -3 -10 -1 -10 4 0 6 5 11
10 11 6 0 10 -2 10 -4z m-678 -23 c-12 -2 -20 -8 -17 -13 3 -4 -4 -6 -15 -3
-34 9 -22 23 18 22 23 -1 29 -3 14 -6z m769 -10 c-5 -10 -26 -34 -47 -53 -41
-38 -29 -16 20 38 34 36 41 40 27 15z m-844 1 c-3 -3 -12 -4 -19 -1 -8 3 -5 6
6 6 11 1 17 -2 13 -5z m123 -24 c0 -5 -7 -7 -15 -4 -8 4 -12 10 -9 15 6 11 24
2 24 -11z m60 -1 c-7 -11 -14 -19 -16 -16 -7 7 7 37 17 37 6 0 5 -9 -1 -21z
m65 11 c3 -5 -1 -10 -10 -10 -9 0 -13 5 -10 10 3 6 8 10 10 10 2 0 7 -4 10
-10z m205 0 c0 -5 -2 -10 -4 -10 -3 0 -8 5 -11 10 -3 6 -1 10 4 10 6 0 11 -4
11 -10z m-853 -22 c-3 -8 -6 -5 -6 6 -1 11 2 17 5 13 3 -3 4 -12 1 -19z m93
12 c0 -5 -5 -10 -11 -10 -5 0 -7 5 -4 10 3 6 8 10 11 10 2 0 4 -4 4 -10z
m1370 0 c0 -5 -5 -10 -11 -10 -5 0 -7 5 -4 10 3 6 8 10 11 10 2 0 4 -4 4 -10z
m-850 -20 c0 -5 -2 -10 -4 -10 -3 0 -8 5 -11 10 -3 6 -1 10 4 10 6 0 11 -4 11
-10z m-427 -42 c-8 -15 -35 -8 -29 7 3 8 1 15 -5 15 -6 0 -8 4 -4 10 7 11 44
-21 38 -32z m367 32 c0 -5 -4 -10 -10 -10 -5 0 -10 5 -10 10 0 6 5 10 10 10 6
0 10 -4 10 -10z m346 -28 c-9 -8 -26 10 -26 26 1 15 2 15 15 -2 8 -11 13 -21
11 -24z m-381 18 c-3 -5 -11 -10 -16 -10 -6 0 -7 5 -4 10 3 6 11 10 16 10 6 0
7 -4 4 -10z m295 -30 c0 -5 -2 -10 -4 -10 -3 0 -8 5 -11 10 -3 6 -1 10 4 10 6
0 11 -4 11 -10z m-545 -29 c-6 -5 -25 10 -25 20 0 5 6 4 14 -3 8 -7 12 -15 11
-17z m622 23 c-3 -3 -12 -4 -19 -1 -8 3 -5 6 6 6 11 1 17 -2 13 -5z m-747 -74
c0 -5 -4 -10 -10 -10 -5 0 -10 5 -10 10 0 6 5 10 10 10 6 0 10 -4 10 -10z
m-343 -32 c-3 -8 -6 -5 -6 6 -1 11 2 17 5 13 3 -3 4 -12 1 -19z m57 6 c10 -25
-1 -29 -14 -5 -6 12 -7 21 -1 21 5 0 12 -7 15 -16z m506 6 c0 -5 -2 -10 -4
-10 -3 0 -8 5 -11 10 -3 6 -1 10 4 10 6 0 11 -4 11 -10z m-180 -22 c0 -12 -3
-18 -7 -14 -11 10 -12 36 -2 36 5 0 9 -10 9 -22z m250 8 c0 -2 -7 -7 -16 -10
-8 -3 -12 -2 -9 4 6 10 25 14 25 6z m-595 -16 c3 -5 1 -10 -4 -10 -6 0 -11 5
-11 10 0 6 2 10 4 10 3 0 8 -4 11 -10z m79 -15 c-4 -8 -11 -15 -16 -15 -6 0
-5 6 2 15 7 8 14 15 16 15 2 0 1 -7 -2 -15z m148 -47 c-6 -6 -12 -6 -16 1 -4
6 -3 11 3 11 6 0 8 8 5 18 -5 15 -4 15 6 -1 8 -13 9 -22 2 -29z m-98 26 c9 -3
16 -10 16 -14 0 -11 -47 -6 -58 5 -4 4 -1 5 6 1 6 -4 12 -2 12 3 0 13 3 13 24
5z m276 -14 c0 -5 -4 -10 -9 -10 -6 0 -13 5 -16 10 -3 6 1 10 9 10 9 0 16 -4
16 -10z m84 -5 c11 -8 16 -15 10 -15 -5 0 -18 7 -28 15 -11 8 -16 15 -10 15 5
0 18 -7 28 -15z m-184 -5 c0 -5 -7 -10 -16 -10 -8 0 -12 5 -9 10 3 6 10 10 16
10 5 0 9 -4 9 -10z m-298 -65 c3 -14 1 -25 -3 -25 -5 0 -9 3 -9 8 0 4 -3 18
-7 31 -4 16 -2 22 4 18 6 -4 13 -18 15 -32z m88 16 c0 -4 -9 -7 -20 -7 -20 0
-25 7 -14 19 7 7 34 -2 34 -12z m234 3 c3 -8 2 -12 -4 -9 -6 3 -10 10 -10 16
0 14 7 11 14 -7z m-381 -16 c9 -31 2 -33 -11 -3 -6 14 -8 25 -3 25 5 0 11 -10
14 -22z m293 -15 c-7 -7 -26 7 -26 19 0 6 6 6 15 -2 9 -7 13 -15 11 -17z m-56
1 c0 -8 -4 -12 -10 -9 -5 3 -10 10 -10 16 0 5 5 9 10 9 6 0 10 -7 10 -16z
m201 -1 c13 -16 12 -17 -3 -4 -10 7 -18 15 -18 17 0 8 8 3 21 -13z m-111 -10
c0 -5 -5 -15 -10 -23 -8 -12 -10 -11 -10 8 0 12 5 22 10 22 6 0 10 -3 10 -7z
m-165 -13 c-3 -5 -12 -10 -18 -10 -7 0 -6 4 3 10 19 12 23 12 15 0z m-135 -7
c0 -5 -3 -19 -7 -32 -6 -23 -7 -23 -13 -5 -4 10 -5 25 -3 32 5 13 23 17 23 5z
m450 -13 c0 -5 -15 -10 -32 -9 -31 1 -32 1 -8 9 35 11 40 11 40 0z m170 -10
c0 -13 -5 -18 -15 -14 -11 5 -12 9 -2 20 16 18 17 17 17 -6z m-365 -10 c3 -5
1 -10 -4 -10 -6 0 -11 5 -11 10 0 6 2 10 4 10 3 0 8 -4 11 -10z m253 -10 c12
-20 12 -21 -13 -4 -28 18 -31 24 -12 24 7 0 18 -9 25 -20z m183 -2 c11 -21 11
-22 -4 -9 -10 7 -17 17 -17 22 0 15 9 10 21 -13z m-266 -7 c-3 -6 -11 -11 -17
-11 -6 0 -6 6 2 15 14 17 26 13 15 -4z m-75 -1 c0 -5 -2 -10 -4 -10 -3 0 -8 5
-11 10 -3 6 -1 10 4 10 6 0 11 -4 11 -10z m26 -9 c-4 -5 0 -12 6 -14 8 -3 6
-6 -4 -6 -18 -1 -24 10 -11 22 9 10 15 8 9 -2z m519 -9 c-3 -3 -11 0 -18 7 -9
10 -8 11 6 5 10 -3 15 -9 12 -12z m-992 -19 c3 -5 -1 -14 -8 -20 -11 -10 -13
-9 -12 7 1 20 12 26 20 13z m877 3 c0 -13 -34 -36 -53 -35 -21 0 -21 1 -2 9
11 5 16 9 10 9 -14 2 17 21 33 21 6 0 12 -2 12 -4z m200 -36 c0 -17 -15 -11
-28 11 -12 19 -11 19 8 9 11 -6 20 -15 20 -20z m-730 -21 c0 -11 -5 -19 -11
-19 -6 0 -9 7 -6 15 4 8 2 17 -3 20 -6 4 -10 11 -10 17 0 7 6 6 15 -2 8 -7 15
-21 15 -31z m616 22 c23 -18 23 -19 4 -24 -11 -3 -23 -1 -26 4 -3 5 0 9 7 9 7
0 4 7 -7 15 -10 8 -15 15 -11 15 5 0 20 -8 33 -19z m-276 -1 c0 -5 -4 -10 -10
-10 -5 0 -10 5 -10 10 0 6 5 10 10 10 6 0 10 -4 10 -10z m35 0 c3 -6 -1 -7 -9
-4 -18 7 -21 14 -7 14 6 0 13 -4 16 -10z m-110 -11 c11 -17 -1 -21 -15 -4 -8
9 -8 15 -2 15 6 0 14 -5 17 -11z m-390 -9 c3 -5 1 -10 -4 -10 -6 0 -11 5 -11
10 0 6 2 10 4 10 3 0 8 -4 11 -10z m804 -11 c-22 -14 -33 -10 -19 6 7 8 17 12
22 9 6 -4 5 -10 -3 -15z m-979 7 c0 -3 -4 -8 -10 -11 -5 -3 -10 -1 -10 4 0 6
5 11 10 11 6 0 10 -2 10 -4z m410 -5 c0 -5 -7 -11 -14 -14 -10 -4 -13 -1 -9 9
6 15 23 19 23 5z m350 -15 c0 -3 -4 -8 -10 -11 -5 -3 -10 -1 -10 4 0 6 5 11
10 11 6 0 10 -2 10 -4z m163 -16 c3 -11 1 -20 -4 -20 -5 0 -9 9 -9 20 0 11 2
20 4 20 2 0 6 -9 9 -20z m-838 0 c3 -6 -1 -7 -9 -4 -18 7 -21 14 -7 14 6 0 13
-4 16 -10z m140 -10 c4 -6 -1 -7 -11 -3 -14 5 -16 3 -10 -13 5 -14 4 -16 -5
-7 -12 12 -5 33 11 33 5 0 12 -4 15 -10z m211 -17 c-7 -7 -26 7 -26 19 0 6 6
6 15 -2 9 -7 13 -15 11 -17z m51 21 c-3 -3 -12 -4 -19 -1 -8 3 -5 6 6 6 11 1
17 -2 13 -5z m245 -12 c-7 -2 -9 -8 -6 -13 3 -6 -5 -7 -22 -3 -19 5 -25 4 -20
-5 5 -7 -1 -11 -16 -11 -22 0 -22 1 6 19 17 11 33 18 38 15 4 -3 8 0 8 6 0 6
5 8 12 4 9 -6 9 -9 0 -12z m-791 -25 c-10 -9 -11 -8 -5 6 3 10 9 15 12 12 3
-3 0 -11 -7 -18z m609 7 c0 -2 -7 -4 -15 -4 -8 0 -15 4 -15 10 0 5 7 7 15 4 8
-4 15 -8 15 -10z m-465 -4 c-3 -5 -12 -10 -18 -10 -7 0 -6 4 3 10 19 12 23 12
15 0z m360 -30 c8 -13 -1 -13 -26 0 -10 6 -19 15 -19 21 0 11 35 -5 45 -21z
m190 20 c3 -6 -1 -7 -9 -4 -18 7 -21 14 -7 14 6 0 13 -4 16 -10z m225 0 c-8
-5 -19 -10 -25 -10 -5 0 -3 5 5 10 8 5 20 10 25 10 6 0 3 -5 -5 -10z m-1005
-10 c3 -5 1 -10 -4 -10 -6 0 -11 5 -11 10 0 6 2 10 4 10 3 0 8 -4 11 -10z m58
-6 c-6 -17 -33 -19 -33 -1 0 7 9 13 19 14 14 1 18 -3 14 -13z m1067 2 c0 -8 4
-16 10 -18 5 -1 -2 -8 -16 -15 -22 -10 -25 -10 -20 3 3 9 6 22 6 30 0 8 5 14
10 14 6 0 10 -6 10 -14z m-435 -6 c3 -6 -1 -7 -9 -4 -18 7 -21 14 -7 14 6 0
13 -4 16 -10z m38 -7 c-3 -7 -6 -13 -8 -13 -2 0 -5 6 -8 13 -3 8 1 14 8 14 7
0 11 -6 8 -14z m732 7 c3 -5 1 -10 -4 -10 -6 0 -11 5 -11 10 0 6 2 10 4 10 3
0 8 -4 11 -10z m-601 -15 c3 -8 1 -15 -3 -15 -5 0 -11 7 -15 15 -3 8 -1 15 3
15 5 0 11 -7 15 -15z m-634 -5 c0 -5 -4 -10 -10 -10 -5 0 -10 5 -10 10 0 6 5
10 10 10 6 0 10 -4 10 -10z m815 0 c3 -5 2 -10 -4 -10 -5 0 -13 5 -16 10 -3 6
-2 10 4 10 5 0 13 -4 16 -10z m-911 -49 c-6 -6 -34 20 -34 32 0 6 8 2 19 -9
10 -10 17 -21 15 -23z m90 0 c-2 -3 -12 3 -22 13 -16 17 -16 18 5 5 12 -7 20
-15 17 -18z m1023 23 c-3 -3 -12 -4 -19 -1 -8 3 -5 6 6 6 11 1 17 -2 13 -5z
m-867 -30 c0 -8 -6 -14 -14 -14 -9 0 -12 7 -9 20 6 22 23 18 23 -6z m390 16
c0 -5 -5 -10 -11 -10 -5 0 -7 5 -4 10 3 6 8 10 11 10 2 0 4 -4 4 -10z m130 0
c0 -5 -5 -10 -11 -10 -5 0 -7 5 -4 10 3 6 8 10 11 10 2 0 4 -4 4 -10z m106
-17 c-11 -11 -45 -13 -51 -3 -4 6 7 10 26 10 18 0 29 -3 25 -7z m154 -3 c0 -5
-5 -10 -11 -10 -5 0 -7 5 -4 10 3 6 8 10 11 10 2 0 4 -4 4 -10z m-215 -20 c3
-5 2 -10 -4 -10 -5 0 -13 5 -16 10 -3 6 -2 10 4 10 5 0 13 -4 16 -10z m-165
-11 c0 -5 -4 -7 -10 -4 -5 3 -10 -1 -10 -9 0 -8 -5 -18 -11 -21 -13 -9 -8 27
6 37 14 11 25 10 25 -3z m-500 -24 c6 -8 10 -19 8 -24 -1 -5 -11 2 -21 15 -19
26 -8 34 13 9z m235 -5 c3 -5 1 -10 -4 -10 -6 0 -11 5 -11 10 0 6 2 10 4 10 3
0 8 -4 11 -10z m-320 -30 c3 -5 1 -10 -4 -10 -6 0 -11 5 -11 10 0 6 2 10 4 10
3 0 8 -4 11 -10z m440 0 c-3 -5 -11 -10 -16 -10 -6 0 -7 5 -4 10 3 6 11 10 16
10 6 0 7 -4 4 -10z m536 -30 c-8 -4 -21 -5 -30 -2 -12 5 -10 8 9 12 29 8 40 3
21 -10z m-386 0 c3 -5 1 -10 -4 -10 -6 0 -11 5 -11 10 0 6 2 10 4 10 3 0 8 -4
11 -10z m105 -19 c0 -12 -20 -25 -27 -18 -7 7 6 27 18 27 5 0 9 -4 9 -9z m400
-1 c0 -5 -4 -10 -10 -10 -5 0 -10 5 -10 10 0 6 5 10 10 10 6 0 10 -4 10 -10z
m-1075 -10 c3 -5 1 -10 -4 -10 -6 0 -11 5 -11 10 0 6 2 10 4 10 3 0 8 -4 11
-10z m760 0 l20 -9 -20 0 c-11 0 -27 4 -35 9 -13 9 -13 10 0 9 8 0 24 -4 35
-9z m-95 -40 c0 -5 -2 -10 -4 -10 -3 0 -8 5 -11 10 -3 6 -1 10 4 10 6 0 11 -4
11 -10z m680 -260 c0 -5 -5 -12 -10 -15 -7 -4 -7 -12 0 -25 11 -20 14 -129 4
-154 -3 -8 -12 -12 -21 -9 -10 4 -11 8 -3 13 6 4 -4 7 -22 7 -18 0 -28 -2 -22
-4 8 -3 6 -17 -5 -48 -10 -28 -21 -43 -28 -40 -7 2 -13 -1 -13 -7 0 -6 -9 -3
-20 7 -42 38 -15 130 68 237 28 36 49 55 58 51 8 -3 14 -9 14 -13z m69 -127
c30 -25 78 -27 86 -3 4 11 10 20 15 20 12 0 31 -36 24 -43 -3 -3 3 -10 14 -16
14 -8 18 -17 14 -37 -4 -22 -2 -26 11 -21 9 3 18 0 21 -9 3 -8 11 -14 19 -14
7 0 21 -14 31 -31 18 -31 18 -31 -7 -57 -21 -21 -39 -26 -99 -31 -40 -4 -89
-14 -108 -23 -71 -33 -97 -37 -119 -22 -25 18 -27 55 -6 88 22 33 55 126 55
154 0 23 16 62 25 62 3 0 13 -7 24 -17z m-1409 -673 c0 -5 -4 -10 -10 -10 -5
0 -10 5 -10 10 0 6 5 10 10 10 6 0 10 -4 10 -10z m50 -4 c0 -3 -4 -8 -10 -11
-5 -3 -10 -1 -10 4 0 6 5 11 10 11 6 0 10 -2 10 -4z m-76 -14 c2 -4 -4 -9 -15
-9 -11 -1 -17 2 -14 8 7 11 22 12 29 1z m6 -26 c0 -11 -19 -15 -25 -6 -3 5 1
10 9 10 9 0 16 -2 16 -4z m108 -401 c-3 -3 -9 2 -12 12 -6 14 -5 15 5 6 7 -7
10 -15 7 -18z m237 15 c3 -5 1 -10 -4 -10 -6 0 -11 5 -11 10 0 6 2 10 4 10 3
0 8 -4 11 -10z m-395 -200 c0 -5 -8 -10 -17 -10 -15 0 -16 2 -3 10 19 12 20
12 20 0z m-636 -6 c14 -5 14 -8 0 -21 -12 -12 -17 -13 -30 -2 -12 10 -12 14
-2 20 16 10 13 10 32 3z m916 -4 c0 -5 -2 -10 -4 -10 -3 0 -8 5 -11 10 -3 6
-1 10 4 10 6 0 11 -4 11 -10z m10 -64 c0 -5 -7 -3 -15 4 -8 7 -12 17 -9 22 7
10 24 -9 24 -26z m-260 -6 c0 -5 -2 -10 -4 -10 -3 0 -8 5 -11 10 -3 6 -1 10 4
10 6 0 11 -4 11 -10z m146 -11 c9 -15 -23 -10 -35 5 -10 12 -8 13 9 9 11 -3
23 -9 26 -14z m-393 -23 c4 -10 1 -13 -9 -9 -7 3 -14 9 -14 14 0 14 17 10 23
-5z m337 -7 c0 -5 -4 -9 -10 -9 -5 0 -10 7 -10 16 0 8 5 12 10 9 6 -3 10 -10
10 -16z m-765 1 c3 -5 1 -10 -4 -10 -6 0 -11 5 -11 10 0 6 2 10 4 10 3 0 8 -4
11 -10z m635 -30 c0 -5 -5 -10 -11 -10 -5 0 -7 5 -4 10 3 6 8 10 11 10 2 0 4
-4 4 -10z m86 -17 c-10 -10 -19 5 -10 18 6 11 8 11 12 0 2 -7 1 -15 -2 -18z
m-119 -35 c-3 -8 -6 -5 -6 6 -1 11 2 17 5 13 3 -3 4 -12 1 -19z m154 -5 c-8
-15 -10 -15 -11 -2 0 17 10 32 18 25 2 -3 -1 -13 -7 -23z m-183 -8 c-3 -3 -9
2 -12 12 -6 14 -5 15 5 6 7 -7 10 -15 7 -18z m338 -12 c-7 -7 -26 7 -26 19 0
6 6 6 15 -2 9 -7 13 -15 11 -17z m-176 3 c0 -2 -7 -7 -16 -10 -8 -3 -12 -2 -9
4 6 10 25 14 25 6z m-667 -13 c-7 -2 -21 -2 -30 0 -10 3 -4 5 12 5 17 0 24 -2
18 -5z m722 -23 c-3 -5 -14 -10 -23 -9 -14 0 -13 2 3 9 27 11 27 11 20 0z
m-215 -41 c0 -6 -4 -7 -10 -4 -5 3 -10 11 -10 16 0 6 5 7 10 4 6 -3 10 -11 10
-16z m-503 -15 c-3 -3 -12 -4 -19 -1 -8 3 -5 6 6 6 11 1 17 -2 13 -5z m1033
-64 c0 -5 -2 -10 -4 -10 -3 0 -8 5 -11 10 -3 6 -1 10 4 10 6 0 11 -4 11 -10z
m-936 -15 c11 -8 16 -15 10 -15 -5 0 -18 7 -28 15 -11 8 -16 15 -10 15 5 0 18
-7 28 -15z m381 5 c3 -5 1 -10 -4 -10 -6 0 -11 5 -11 10 0 6 2 10 4 10 3 0 8
-4 11 -10z m-375 -46 c0 -2 -18 -3 -40 -2 -23 1 -36 4 -30 8 10 6 70 1 70 -6z
m1104 -20 c3 -8 2 -12 -4 -9 -6 3 -10 10 -10 16 0 14 7 11 14 -7z m-1316 -74
c-15 -23 -28 -26 -28 -6 0 8 8 17 18 19 9 3 18 5 20 6 1 0 -3 -8 -10 -19z
m1087 10 c3 -6 -1 -7 -9 -4 -18 7 -21 14 -7 14 6 0 13 -4 16 -10z m-1064 -34
c-9 -11 -9 -15 1 -19 8 -3 6 -6 -6 -6 -12 -1 -16 -6 -12 -16 4 -11 -1 -15 -17
-15 -18 0 -19 2 -7 10 8 5 11 10 7 10 -5 0 -1 7 7 16 9 8 14 20 11 25 -4 5 1
9 11 9 13 0 14 -3 5 -14z m954 2 c3 -3 -1 -8 -9 -11 -8 -3 -19 0 -25 7 -8 10
-6 12 9 11 11 -1 22 -4 25 -7z m140 -38 c-3 -5 -14 -10 -23 -10 -15 0 -15 2
-2 10 20 13 33 13 25 0z m-1165 -10 c0 -5 -5 -10 -11 -10 -5 0 -7 5 -4 10 3 6
8 10 11 10 2 0 4 -4 4 -10z m123 -7 c-7 -2 -19 -2 -25 0 -7 3 -2 5 12 5 14 0
19 -2 13 -5z m1187 -107 c0 -12 -5 -7 -19 24 -11 24 -11 24 3 6 9 -11 16 -24
16 -30z m-1245 24 c3 -5 1 -10 -4 -10 -6 0 -11 5 -11 10 0 6 2 10 4 10 3 0 8
-4 11 -10z m1196 -22 c9 -19 9 -21 -2 -10 -7 6 -22 12 -33 13 -21 0 -21 0 -1
9 11 5 21 9 22 9 1 1 8 -9 14 -21z m-1871 -238 c0 -5 -7 -7 -15 -4 -8 4 -12
10 -9 15 6 11 24 2 24 -11z m2145 -110 c3 -5 1 -10 -4 -10 -6 0 -11 5 -11 10
0 6 2 10 4 10 3 0 8 -4 11 -10z"/>
<path d="M9810 4257 c0 -21 36 -67 53 -67 4 0 7 9 7 20 0 14 5 18 18 13 11 -4
6 5 -13 25 -36 38 -65 42 -65 9z"/>
<path d="M7759 6962 c18 -23 37 -42 43 -42 12 0 -38 61 -60 74 -9 5 -2 -9 17
-32z"/>
<path d="M4360 6903 c0 -13 5 -23 10 -23 13 0 13 11 0 30 -8 12 -10 11 -10 -7z"/>
<path d="M7587 6823 c-4 -3 -7 -13 -7 -22 1 -13 3 -13 11 2 11 19 8 33 -4 20z"/>
<path d="M4408 6763 c7 -3 16 -2 19 1 4 3 -2 6 -13 5 -11 0 -14 -3 -6 -6z"/>
<path d="M4265 6699 c-4 -6 -5 -12 -2 -15 2 -3 7 2 10 11 7 17 1 20 -8 4z"/>
<path d="M4345 6650 c-16 -11 -38 -25 -48 -32 -15 -11 -20 -10 -33 7 -19 26
-30 10 -39 -58 -5 -37 -4 -52 6 -58 22 -14 28 -11 43 24 7 17 34 47 60 66 45
34 59 49 34 36 -7 -4 -5 0 5 8 37 31 16 36 -28 7z"/>
<path d="M7540 6606 c0 -8 5 -18 10 -21 6 -3 10 3 10 14 0 12 -4 21 -10 21 -5
0 -10 -6 -10 -14z"/>
<path d="M8164 6421 c4 -5 2 -11 -4 -13 -11 -4 -21 -98 -10 -98 5 0 10 -8 12
-17 6 -26 28 53 28 100 0 27 -4 37 -16 37 -8 0 -13 -4 -10 -9z"/>
<path d="M2671 6273 c-2 -22 -95 -135 -132 -160 -36 -24 -69 -77 -55 -90 17
-18 156 56 156 83 0 9 9 47 21 85 11 38 19 74 16 81 -4 8 -6 9 -6 1z"/>
<path d="M7646 6238 c-84 -44 -206 -143 -206 -167 0 -5 19 -11 42 -15 23 -4
47 -11 54 -17 11 -9 42 22 69 71 8 13 7 13 -10 0 -17 -14 -17 -13 -10 10 13
44 49 91 90 115 49 30 26 32 -29 3z"/>
<path d="M7876 6226 c40 -33 45 -125 14 -226 -25 -80 -22 -104 4 -35 10 25 23
46 29 47 7 0 17 2 22 2 19 2 75 47 75 60 0 7 -9 21 -20 31 -11 10 -20 28 -20
41 0 17 -16 34 -59 64 -67 45 -86 52 -45 16z"/>
<path d="M4169 6218 c-5 -45 -7 -56 -13 -66 -4 -6 2 -8 14 -5 14 4 20 14 20
35 0 25 3 27 18 19 10 -5 38 -10 62 -9 24 0 46 -5 48 -11 7 -20 30 -12 25 8
-4 15 -18 20 -71 26 -37 3 -75 9 -84 11 -11 3 -19 0 -19 -8z"/>
<path d="M7474 6187 c-13 -15 -99 -86 -128 -107 -22 -15 -39 -29 -91 -74 l-30
-25 95 -1 c70 0 102 -4 118 -16 12 -8 22 -11 22 -5 0 6 -9 15 -20 21 -51 27
-48 79 11 147 22 24 39 51 39 59 0 17 -2 17 -16 1z"/>
<path d="M4210 6160 c0 -5 9 -10 20 -10 11 0 20 5 20 10 0 6 -9 10 -20 10 -11
0 -20 -4 -20 -10z"/>
<path d="M8214 6159 c-3 -6 0 -18 9 -26 13 -13 14 -12 10 11 -6 29 -9 31 -19
15z"/>
<path d="M6094 6142 c-6 -4 -14 -18 -18 -32 l-7 -25 20 24 c27 30 29 50 5 33z"/>
<path d="M4195 6090 c-9 -15 3 -30 24 -30 23 0 31 9 24 26 -6 16 -39 19 -48 4z"/>
<path d="M2920 6057 c-14 -7 -45 -19 -70 -26 -85 -26 -132 -45 -147 -59 -8 -9
-38 -19 -66 -23 -28 -5 -53 -13 -56 -18 -4 -5 -17 -12 -31 -16 -14 -3 -41 -19
-60 -35 l-35 -29 65 -1 c70 0 114 12 200 56 38 19 69 28 100 27 57 -2 110 14
110 33 0 23 -121 22 -179 -2 -19 -8 -36 -12 -38 -10 -7 7 47 33 97 46 59 16
140 52 140 62 0 10 0 10 -30 -5z"/>
<path d="M3152 5837 c-7 -8 -65 -38 -130 -67 -64 -28 -148 -67 -187 -85 -38
-18 -81 -36 -95 -40 -22 -7 -83 -48 -115 -78 -14 -13 53 2 90 20 17 8 51 21
76 29 25 8 54 23 65 35 10 11 82 52 159 91 151 75 159 80 153 98 -3 9 -7 8
-16 -3z"/>
<path d="M3658 5743 c7 -3 16 -2 19 1 4 3 -2 6 -13 5 -11 0 -14 -3 -6 -6z"/>
<path d="M7259 5720 c-3 -14 -1 -41 4 -60 4 -19 9 -41 9 -47 1 -7 7 -13 13
-13 15 0 58 -89 75 -155 7 -27 17 -55 22 -62 5 -7 5 -14 -2 -18 -12 -8 -32 3
-25 14 2 5 -8 26 -24 48 -16 22 -32 50 -36 64 -4 13 -21 50 -37 82 l-28 57
-31 -34 c-53 -61 -65 -146 -26 -193 13 -15 48 -76 77 -135 51 -102 69 -119 70
-64 0 25 49 136 72 162 10 11 18 25 18 30 0 12 -117 273 -129 288 -5 6 -11 22
-13 36 l-4 25 -5 -25z m44 -282 c15 -33 20 -55 13 -52 -11 4 -46 86 -46 108 0
14 5 6 33 -56z"/>
<path d="M3608 5723 c7 -3 16 -2 19 1 4 3 -2 6 -13 5 -11 0 -14 -3 -6 -6z"/>
<path d="M7490 5714 c9 -15 10 -32 2 -69 -6 -28 -9 -51 -8 -53 2 -1 15 2 30 8
15 5 41 10 57 10 25 0 33 6 45 36 11 26 12 40 5 47 -8 8 -11 6 -11 -5 0 -14
-5 -14 -47 0 -27 8 -57 22 -67 31 -18 15 -18 15 -6 -5z"/>
<path d="M3558 5613 c7 -3 16 -2 19 1 4 3 -2 6 -13 5 -11 0 -14 -3 -6 -6z"/>
<path d="M4000 5598 c0 -6 3 -8 7 -5 3 4 13 1 22 -6 14 -11 14 -10 2 6 -15 20
-31 22 -31 5z"/>
<path d="M4900 5533 c1 -34 2 -36 14 -20 7 9 21 17 30 17 21 0 16 25 -5 25 -8
0 -20 4 -26 8 -10 6 -13 -2 -13 -30z"/>
<path d="M5137 5533 c-4 -3 -7 -11 -7 -17 0 -6 5 -5 12 2 6 6 9 14 7 17 -3 3
-9 2 -12 -2z"/>
<path d="M3970 5490 c0 -5 7 -10 16 -10 8 0 12 5 9 10 -3 6 -10 10 -16 10 -5
0 -9 -4 -9 -10z"/>
<path d="M4170 5496 c0 -2 8 -10 18 -17 15 -13 16 -12 3 4 -13 16 -21 21 -21
13z"/>
<path d="M7480 5485 c0 -5 5 -17 10 -25 5 -8 10 -10 10 -5 0 6 -5 17 -10 25
-5 8 -10 11 -10 5z"/>
<path d="M4047 5459 c7 -7 15 -10 18 -7 3 3 -2 9 -12 12 -14 6 -15 5 -6 -5z"/>
<path d="M3990 5442 c9 -19 14 -21 26 -11 11 9 18 8 32 -2 16 -12 16 -12 0 6
-14 15 -21 16 -30 7 -9 -9 -15 -7 -25 6 -13 15 -13 14 -3 -6z"/>
<path d="M4240 5446 c0 -2 8 -10 18 -17 15 -13 16 -12 3 4 -13 16 -21 21 -21
13z"/>
<path d="M5370 5422 c-132 -68 -165 -224 -72 -333 45 -53 85 -69 167 -69 143
0 234 84 233 216 -1 169 -173 267 -328 186z m197 -13 c67 -32 88 -70 88 -156
0 -64 -3 -75 -31 -109 -48 -60 -95 -79 -191 -79 -72 0 -84 3 -107 24 -38 35
-66 101 -66 152 0 50 48 139 75 139 8 0 15 4 15 10 0 19 57 39 114 40 41 0 73
-7 103 -21z"/>
<path d="M4110 5414 c-11 -13 -11 -16 -2 -10 9 5 23 -1 41 -18 19 -18 36 -25
59 -23 17 1 32 6 32 10 0 5 -14 6 -31 2 -33 -7 -74 18 -62 38 3 5 1 7 -5 3 -5
-3 -12 -1 -14 5 -2 7 -10 4 -18 -7z"/>
<path d="M4940 5366 c0 -2 8 -10 18 -17 15 -13 16 -12 3 4 -13 16 -21 21 -21
13z"/>
<path d="M7615 5345 c-5 -2 -27 -6 -48 -10 -47 -8 -119 -70 -150 -130 -33 -62
-30 -156 5 -217 136 -230 492 -154 487 104 -2 105 -56 186 -149 226 -44 19
-125 34 -145 27z m193 -73 c53 -40 82 -99 81 -163 l-1 -54 -9 42 c-15 81 -45
126 -119 186 -31 25 -32 27 -10 21 14 -4 40 -18 58 -32z"/>
<path d="M4001 5338 c2 -2 18 -14 34 -28 l30 -25 -24 28 c-14 15 -29 27 -34
27 -6 0 -8 -1 -6 -2z"/>
<path d="M4310 5326 c0 -2 8 -10 18 -17 15 -13 16 -12 3 4 -13 16 -21 21 -21
13z"/>
<path d="M4560 5286 c0 -9 79 -116 86 -116 3 0 -2 13 -12 28 -19 33 -74 98
-74 88z"/>
<path d="M4267 5220 c32 -34 33 -34 50 -15 17 18 17 18 0 5 -15 -11 -22 -9
-50 16 l-32 29 32 -35z"/>
<path d="M5067 5229 c7 -7 15 -10 18 -7 3 3 -2 9 -12 12 -14 6 -15 5 -6 -5z"/>
<path d="M3925 5200 c10 -11 20 -20 23 -20 3 0 -3 9 -13 20 -10 11 -20 20 -23
20 -3 0 3 -9 13 -20z"/>
<path d="M3966 5181 c-4 -5 3 -7 14 -4 23 6 26 13 6 13 -8 0 -17 -4 -20 -9z"/>
<path d="M4032 5155 c15 -16 29 -27 31 -24 3 2 -10 15 -27 28 l-31 24 27 -28z"/>
<path d="M5985 5160 c3 -5 8 -10 11 -10 2 0 4 5 4 10 0 6 -5 10 -11 10 -5 0
-7 -4 -4 -10z"/>
<path d="M4098 5143 c7 -3 16 -2 19 1 4 3 -2 6 -13 5 -11 0 -14 -3 -6 -6z"/>
<path d="M3896 5095 c-11 -8 -16 -15 -10 -15 5 0 18 7 28 15 11 8 16 15 10 15
-5 0 -18 -7 -28 -15z"/>
<path d="M4162 5094 c10 -10 20 -16 22 -13 3 3 -5 11 -17 18 -21 13 -21 12 -5
-5z"/>
<path d="M3817 5083 c-4 -3 -7 -11 -7 -17 0 -6 5 -5 12 2 6 6 9 14 7 17 -3 3
-9 2 -12 -2z"/>
<path d="M3942 5074 c9 -9 21 -15 27 -13 6 2 -2 10 -17 17 -25 11 -25 11 -10
-4z"/>
<path d="M3981 5087 c2 -1 15 -11 28 -22 l24 -20 -12 23 c-6 12 -19 22 -28 22
-9 0 -14 -1 -12 -3z"/>
<path d="M4220 5086 c0 -2 8 -10 18 -17 15 -13 16 -12 3 4 -13 16 -21 21 -21
13z"/>
<path d="M4282 5074 c10 -10 20 -16 22 -13 3 3 -5 11 -17 18 -21 13 -21 12 -5
-5z"/>
<path d="M4325 5070 c10 -11 20 -20 23 -20 3 0 -3 9 -13 20 -10 11 -20 20 -23
20 -3 0 3 -9 13 -20z"/>
<path d="M4374 5058 l-19 -22 24 16 c13 9 31 14 40 11 14 -4 14 -3 1 6 -21 15
-24 14 -46 -11z"/>
<path d="M4040 5047 c-12 -21 -12 -21 6 -7 10 8 20 15 22 16 2 1 -1 4 -5 7 -5
3 -15 -4 -23 -16z"/>
<path d="M4094 5018 c-4 -7 -3 -8 5 -4 6 4 20 2 29 -6 15 -12 16 -11 3 5 -16
20 -27 22 -37 5z"/>
<path d="M6531 5014 c0 -11 3 -14 6 -6 3 7 2 16 -1 19 -3 4 -6 -2 -5 -13z"/>
<path d="M4173 5013 c-9 -3 -7 -11 7 -26 17 -17 22 -19 33 -7 10 10 9 11 -2 5
-17 -10 -35 16 -18 27 13 8 -1 9 -20 1z"/>
<path d="M3800 4991 c0 -5 9 -11 21 -14 16 -4 18 -3 8 9 -13 16 -29 19 -29 5z"/>
<path d="M4250 4990 c8 -5 20 -10 25 -10 6 0 3 5 -5 10 -8 5 -19 10 -25 10 -5
0 -3 -5 5 -10z"/>
<path d="M3758 4968 c-20 -20 -23 -44 -8 -53 6 -4 13 7 16 25 6 25 10 29 28
24 22 -7 21 -6 -4 12 -11 8 -19 6 -32 -8z"/>
<path d="M3858 4979 c13 -17 76 -33 66 -17 -3 4 -15 8 -28 8 -12 0 -28 6 -36
13 -12 10 -12 9 -2 -4z"/>
<path d="M6710 4975 c0 -8 2 -15 4 -15 2 0 6 7 10 15 3 8 1 15 -4 15 -6 0 -10
-7 -10 -15z"/>
<path d="M4242 4953 c10 -12 4 -17 -15 -14 -5 1 -6 -3 -2 -9 8 -12 22 -5 34
18 7 14 5 18 -9 18 -14 0 -16 -3 -8 -13z"/>
<path d="M3970 4952 c0 -5 7 -13 16 -16 10 -4 14 -1 12 6 -5 15 -28 23 -28 10z"/>
<path d="M6831 4944 c0 -11 3 -14 6 -6 3 7 2 16 -1 19 -3 4 -6 -2 -5 -13z"/>
<path d="M4105 4913 c18 -10 25 -18 17 -21 -7 -2 -20 2 -30 10 -15 12 -16 11
-3 -4 7 -10 20 -18 28 -18 13 0 13 -3 3 -15 -7 -9 -8 -15 -2 -15 10 0 22 23
22 44 0 7 -11 18 -25 24 -38 18 -45 14 -10 -5z"/>
<path d="M4040 4916 c0 -2 7 -7 16 -10 8 -3 12 -2 9 4 -6 10 -25 14 -25 6z"/>
<path d="M4060 4870 c8 -5 22 -9 30 -9 10 0 8 3 -5 9 -27 12 -43 12 -25 0z"/>
<path d="M7800 4818 c-44 -15 -75 -19 -157 -16 -57 2 -103 2 -103 1 0 -11 147
-44 195 -44 54 1 62 4 94 35 19 20 33 37 31 39 -3 3 -30 -4 -60 -15z"/>
<path d="M6440 4781 c0 -6 4 -13 10 -16 6 -3 7 1 4 9 -7 18 -14 21 -14 7z"/>
<path d="M3141 4744 c0 -11 3 -14 6 -6 3 7 2 16 -1 19 -3 4 -6 -2 -5 -13z"/>
<path d="M3797 4683 c26 -5 26 -6 52 -148 29 -163 32 -185 27 -185 -3 0 -23
26 -44 58 -22 31 -55 68 -73 81 -19 13 -60 45 -91 70 -48 38 -55 48 -45 61 11
13 10 13 -6 1 -17 -13 -16 -16 9 -42 15 -16 46 -41 68 -56 69 -45 108 -86 93
-96 -9 -6 -8 -8 3 -4 21 7 93 -95 84 -118 -4 -10 -21 -24 -38 -32 -29 -13 -30
-14 -4 -8 l27 5 -20 -35 c-12 -19 -28 -39 -38 -45 -9 -5 -11 -10 -4 -10 12 0
-33 -90 -45 -90 -4 0 -8 -12 -8 -26 -2 -32 0 -29 34 37 16 30 48 89 71 133 43
76 43 80 37 145 -6 57 -39 236 -52 282 -4 13 7 15 83 11 49 -2 86 -2 83 0 -3
3 -54 8 -115 11 -60 2 -100 3 -88 0z"/>
<path d="M3685 4660 c-3 -6 1 -7 9 -4 18 7 21 14 7 14 -6 0 -13 -4 -16 -10z"/>
<path d="M3902 4624 l-37 -36 43 33 c23 18 42 34 42 36 0 9 -14 0 -48 -33z"/>
<path d="M3940 4583 l-65 -68 68 65 c62 60 72 70 64 70 -1 0 -32 -30 -67 -67z"/>
<path d="M4070 4646 c0 -3 14 -12 30 -21 17 -9 30 -13 30 -11 0 3 -13 12 -30
21 -16 9 -30 13 -30 11z"/>
<path d="M5863 4643 c9 -2 25 -2 35 0 9 3 1 5 -18 5 -19 0 -27 -2 -17 -5z"/>
<path d="M5960 4646 c0 -2 7 -9 15 -16 13 -11 14 -10 9 4 -5 14 -24 23 -24 12z"/>
<path d="M3990 4524 c-47 -48 -78 -83 -69 -78 16 9 165 164 157 164 -2 0 -42
-39 -88 -86z"/>
<path d="M6004 4583 c9 -18 18 -33 20 -33 9 0 -8 41 -22 52 -13 11 -12 8 2
-19z"/>
<path d="M4205 4562 c32 -36 32 -35 -27 -67 -43 -23 -45 -18 -7 22 25 27 17
22 -29 -16 -34 -29 -64 -57 -67 -61 -3 -5 -39 -27 -80 -50 -41 -23 -78 -47
-82 -53 -4 -7 4 -5 17 4 14 9 90 53 170 99 80 45 146 83 147 84 2 1 -14 18
-35 37 l-37 34 30 -33z m-70 -92 c-3 -5 -11 -10 -16 -10 -6 0 -7 5 -4 10 3 6
11 10 16 10 6 0 7 -4 4 -10z"/>
<path d="M6080 4579 c0 -5 5 -7 10 -4 6 3 10 8 10 11 0 2 -4 4 -10 4 -5 0 -10
-5 -10 -11z"/>
<path d="M3553 4558 c-11 -13 -24 -30 -28 -38 -8 -16 -6 -14 34 33 14 15 22
27 19 27 -2 0 -14 -10 -25 -22z"/>
<path d="M4037 4480 c-42 -44 -74 -80 -70 -80 4 0 41 36 83 80 41 44 72 80 69
80 -3 0 -40 -36 -82 -80z"/>
<path d="M4256 4497 c3 -10 9 -15 12 -12 3 3 0 11 -7 18 -10 9 -11 8 -5 -6z"/>
<path d="M3653 4483 c9 -2 23 -2 30 0 6 3 -1 5 -18 5 -16 0 -22 -2 -12 -5z"/>
<path d="M3555 4470 c-4 -6 6 -7 27 -3 44 8 48 13 10 13 -17 0 -34 -4 -37 -10z"/>
<path d="M3738 4413 c6 -2 18 -2 25 0 6 3 1 5 -13 5 -14 0 -19 -2 -12 -5z"/>
<path d="M3613 4399 c-18 -5 -33 -12 -33 -15 0 -3 9 -2 21 1 11 4 42 10 67 15
41 7 43 8 12 8 -19 0 -50 -4 -67 -9z"/>
<path d="M8826 4351 c-3 -5 0 -14 8 -20 11 -9 15 -7 19 9 5 20 -16 29 -27 11z"/>
<path d="M3745 4329 c-54 -22 -75 -36 -35 -24 37 12 107 44 95 44 -5 0 -32 -9
-60 -20z"/>
<path d="M3658 4293 c7 -3 16 -2 19 1 4 3 -2 6 -13 5 -11 0 -14 -3 -6 -6z"/>
<path d="M8840 4229 c0 -5 5 -7 10 -4 6 3 10 8 10 11 0 2 -4 4 -10 4 -5 0 -10
-5 -10 -11z"/>
<path d="M3587 4207 c-4 -10 -9 -44 -12 -75 l-5 -57 15 45 c16 46 18 124 2 87z"/>
<path d="M3650 4210 c0 -5 7 -7 15 -4 8 4 15 8 15 10 0 2 -7 4 -15 4 -8 0 -15
-4 -15 -10z"/>
<path d="M4248 4156 c-30 -33 -72 -66 -112 -87 -36 -19 -63 -35 -61 -37 8 -9
129 64 165 99 32 31 68 80 58 78 -2 0 -24 -24 -50 -53z"/>
<path d="M3060 4191 c-14 -4 -40 -11 -58 -16 -21 -5 -31 -12 -28 -21 3 -8 0
-11 -8 -8 -7 3 -19 -3 -27 -12 -12 -16 -12 -17 1 -9 8 4 4 -4 -9 -18 -18 -20
-27 -24 -33 -15 -5 9 -8 10 -8 1 0 -6 -6 -18 -13 -25 -22 -23 -37 -68 -42
-126 l-4 -57 9 48 c5 27 12 52 15 55 4 4 5 -6 2 -23 -17 -88 3 -165 54 -211
121 -107 348 0 387 183 7 31 3 49 -20 98 -15 33 -28 70 -28 82 0 26 -40 57
-95 72 -44 12 -57 12 -95 2z m-150 -181 c-21 -41 -27 -100 -11 -100 6 0 21 19
35 43 14 23 26 34 26 25 0 -9 -11 -30 -25 -46 -13 -16 -22 -32 -19 -35 3 -3 3
-16 -1 -28 -7 -22 -8 -22 -21 -4 -18 25 -18 3 1 -42 8 -20 13 -38 10 -41 -10
-10 -36 72 -37 119 -1 49 35 149 54 149 5 0 -1 -18 -12 -40z m140 -91 c0 -18
-2 -19 -15 -5 -8 8 -15 17 -15 20 0 3 7 6 15 6 9 0 15 -9 15 -21z m38 -66 c18
-20 20 -28 11 -39 -6 -8 -8 -14 -4 -14 5 0 0 -9 -9 -19 -43 -47 -97 33 -70
103 7 19 36 6 72 -31z"/>
<path d="M3735 4165 c-25 -12 -26 -14 -5 -9 28 7 60 23 45 23 -5 0 -23 -6 -40
-14z"/>
<path d="M7650 4156 c0 -2 7 -9 15 -16 13 -11 14 -10 9 4 -5 14 -24 23 -24 12z"/>
<path d="M7342 4138 c-7 -9 -6 -17 3 -25 10 -9 13 -7 11 13 -1 28 -1 28 -14
12z"/>
<path d="M7435 4139 c-4 -6 -5 -12 -2 -15 2 -3 7 2 10 11 7 17 1 20 -8 4z"/>
<path d="M7539 4083 c-13 -16 -12 -17 4 -4 9 7 17 15 17 17 0 8 -8 3 -21 -13z"/>
<path d="M7660 4080 c-8 -5 -10 -10 -5 -10 6 0 17 5 25 10 8 5 11 10 5 10 -5
0 -17 -5 -25 -10z"/>
<path d="M7260 4066 c0 -2 7 -7 16 -10 8 -3 12 -2 9 4 -6 10 -25 14 -25 6z"/>
<path d="M3561 4044 c0 -11 3 -14 6 -6 3 7 2 16 -1 19 -3 4 -6 -2 -5 -13z"/>
<path d="M4025 4020 c-13 -6 -15 -9 -5 -9 8 0 22 4 30 9 18 12 2 12 -25 0z"/>
<path d="M7565 4020 c-3 -6 1 -7 9 -4 18 7 21 14 7 14 -6 0 -13 -4 -16 -10z"/>
<path d="M3563 3985 c0 -22 2 -30 4 -17 2 12 2 30 0 40 -3 9 -5 -1 -4 -23z"/>
<path d="M3745 4010 c11 -5 29 -8 40 -8 16 0 15 2 -5 8 -34 11 -60 11 -35 0z"/>
<path d="M3968 4003 c6 -2 18 -2 25 0 6 3 1 5 -13 5 -14 0 -19 -2 -12 -5z"/>
<path d="M7501 3994 c0 -11 3 -14 6 -6 3 7 2 16 -1 19 -3 4 -6 -2 -5 -13z"/>
<path d="M3843 3993 c20 -2 54 -2 75 0 20 2 3 4 -38 4 -41 0 -58 -2 -37 -4z"/>
<path d="M7404 3980 c0 -13 4 -16 10 -10 7 7 7 13 0 20 -6 6 -10 3 -10 -10z"/>
<path d="M7700 3980 c-8 -5 -12 -11 -10 -14 3 -2 14 2 24 10 22 15 10 19 -14
4z"/>
<path d="M7303 3973 c-17 -6 -17 -20 0 -20 8 0 14 6 14 14 0 7 -1 13 -1 12 -1
0 -7 -3 -13 -6z"/>
<path d="M7475 3940 c4 -6 11 -8 16 -5 14 9 11 15 -7 15 -8 0 -12 -5 -9 -10z"/>
<path d="M7738 3853 c7 -3 16 -2 19 1 4 3 -2 6 -13 5 -11 0 -14 -3 -6 -6z"/>
<path d="M7420 3806 c0 -2 7 -7 16 -10 8 -3 12 -2 9 4 -6 10 -25 14 -25 6z"/>
<path d="M5643 3630 c-28 -12 -37 -30 -57 -120 -22 -95 -86 -495 -86 -534 0
-44 45 -130 75 -144 39 -18 114 -14 163 8 65 30 157 127 195 207 53 115 48
240 -12 273 -59 31 -145 -2 -233 -90 -32 -32 -58 -52 -58 -44 0 7 16 82 36
166 46 197 52 249 29 271 -18 19 -21 19 -52 7z m225 -433 c9 -72 -75 -217
-152 -262 -109 -64 -152 6 -77 123 89 138 220 218 229 139z"/>
<path d="M5362 3582 c-11 -11 -26 -46 -32 -79 -41 -200 -46 -218 -66 -215
-107 20 -143 10 -218 -59 -64 -59 -108 -124 -132 -198 -13 -41 -19 -50 -26
-37 -13 23 -22 20 -75 -26 -92 -79 -173 -99 -219 -53 -14 14 -24 31 -22 37 2
6 35 24 73 39 133 54 204 127 213 218 6 62 -13 96 -65 117 -75 32 -172 -14
-247 -116 -56 -76 -80 -146 -79 -231 1 -72 16 -110 58 -149 35 -33 144 -41
211 -15 51 19 153 113 155 142 1 10 5 -6 9 -36 11 -75 51 -114 113 -114 61 1
114 31 180 103 57 61 57 61 57 31 0 -46 28 -106 55 -121 20 -11 33 -11 67 -1
48 15 101 63 96 88 -4 18 -9 19 -72 11 -23 -2 -33 2 -43 22 -26 48 6 274 69
493 24 83 29 115 22 135 -12 35 -55 41 -82 14z m-604 -344 c20 -20 14 -52 -19
-91 -30 -37 -113 -87 -143 -87 -38 0 48 141 104 171 41 22 42 23 58 7z m480
-40 c34 -34 -10 -138 -97 -228 -63 -66 -106 -84 -128 -54 -49 66 91 294 180
294 18 0 38 -5 45 -12z"/>
<path d="M7033 3578 c-27 -28 -37 -87 -63 -343 -11 -110 -27 -245 -37 -299
l-17 -99 23 -18 c31 -25 47 -24 76 6 21 20 25 34 25 84 0 48 5 65 23 87 l23
26 68 -78 c106 -121 155 -149 222 -124 54 21 75 80 28 80 -14 0 -41 7 -59 16
-33 15 -165 144 -165 161 0 15 51 59 135 115 67 46 80 59 83 84 4 39 -18 58
-55 49 -34 -7 -84 -45 -196 -147 -46 -43 -88 -78 -91 -78 -4 0 -5 12 -2 28 2
15 19 116 37 224 26 159 30 203 21 223 -15 32 -51 33 -79 3z"/>
<path d="M3830 3475 c-58 -8 -124 -12 -147 -9 -58 7 -87 -21 -78 -75 4 -22 -4
-118 -19 -227 -14 -104 -28 -223 -32 -266 -6 -73 -5 -77 19 -102 28 -28 47
-32 78 -16 16 9 19 22 20 98 0 48 3 105 7 127 l7 40 148 21 c152 22 187 36
187 75 0 43 -54 47 -238 19 -45 -7 -84 -11 -87 -8 -8 8 15 160 28 188 15 30
52 39 212 48 116 7 120 8 135 34 13 25 13 29 -1 44 -23 22 -113 26 -239 9z"/>
<path d="M6705 3331 c-90 -40 -196 -201 -218 -327 -10 -56 -9 -69 9 -111 26
-62 64 -85 145 -85 74 0 170 43 218 98 57 65 30 93 -46 47 -72 -43 -100 -53
-148 -53 -61 0 -78 20 -73 84 7 81 84 232 131 258 16 8 23 7 34 -8 7 -10 13
-28 13 -39 0 -12 9 -30 20 -40 17 -15 24 -16 45 -7 22 10 25 18 25 64 0 58
-22 102 -62 124 -31 18 -46 17 -93 -5z"/>
<path d="M6260 3331 c-54 -17 -90 -43 -147 -105 -82 -89 -124 -175 -131 -265
-5 -70 -4 -71 31 -106 25 -25 44 -35 66 -35 49 0 119 39 177 97 28 29 54 53
57 53 2 0 7 -27 9 -60 6 -90 56 -126 116 -84 29 20 28 41 -2 69 -36 34 -42 98
-21 237 13 94 14 122 5 133 -7 8 -17 15 -23 15 -6 0 -20 11 -32 25 -22 27 -66
38 -105 26z m48 -103 c37 -37 -10 -150 -100 -243 -48 -48 -71 -65 -91 -65 -25
0 -27 3 -27 43 0 59 48 152 114 222 51 55 80 67 104 43z"/>
<path d="M4221 3313 c-49 -24 -123 -104 -154 -165 -123 -244 22 -432 249 -322
68 32 134 103 134 144 0 43 -32 40 -87 -11 -81 -74 -173 -93 -213 -42 -11 14
-19 31 -17 37 2 6 31 20 65 32 143 49 231 150 219 253 -7 64 -41 91 -110 91
-29 0 -67 -8 -86 -17z m103 -89 c11 -29 6 -44 -30 -83 -37 -42 -113 -85 -138
-79 -23 5 12 75 65 132 44 49 91 62 103 30z"/>
<path d="M3030 3280 c0 -5 5 -10 10 -10 6 0 10 5 10 10 0 6 -4 10 -10 10 -5 0
-10 -4 -10 -10z"/>
<path d="M2586 3255 c4 -8 7 -15 9 -15 1 0 8 7 15 15 10 13 9 15 -8 15 -15 0
-20 -5 -16 -15z"/>
<path d="M2936 3203 c-4 -4 -24 -6 -44 -5 -34 2 -35 1 -19 -12 18 -14 18 -14
0 -19 -14 -4 -13 -5 5 -6 13 0 30 5 38 13 7 8 19 16 26 19 7 2 10 7 7 11 -3 3
-9 3 -13 -1z"/>
<path d="M2778 3193 c7 -3 16 -2 19 1 4 3 -2 6 -13 5 -11 0 -14 -3 -6 -6z"/>
<path d="M2713 3183 c9 -2 23 -2 30 0 6 3 -1 5 -18 5 -16 0 -22 -2 -12 -5z"/>
<path d="M2940 3165 c0 -8 -7 -15 -15 -15 -8 0 -15 -8 -15 -17 0 -10 4 -14 8
-8 4 6 13 10 21 10 8 0 16 10 17 23 2 12 -1 22 -6 22 -6 0 -10 -7 -10 -15z"/>
<path d="M3156 3144 c13 -19 19 -22 26 -12 6 9 8 2 5 -19 -2 -18 0 -33 5 -33
4 0 8 13 8 29 0 16 2 35 3 43 2 7 2 10 0 6 -7 -12 -43 -10 -43 2 0 6 -5 10
-10 10 -6 0 -3 -12 6 -26z"/>
<path d="M2855 3140 c28 -12 45 -12 45 0 0 6 -15 10 -32 9 -28 0 -30 -2 -13
-9z"/>
<path d="M2977 3139 c7 -7 15 -10 18 -7 3 3 -2 9 -12 12 -14 6 -15 5 -6 -5z"/>
<path d="M2810 3120 c0 -5 5 -10 10 -10 6 0 10 -7 10 -16 0 -11 4 -14 13 -7
19 14 79 16 87 3 5 -8 10 -9 14 -2 8 14 -53 31 -88 25 -15 -3 -26 -1 -26 6 0
6 -4 11 -10 11 -5 0 -10 -4 -10 -10z"/>
<path d="M3055 3110 c-3 -5 -1 -10 4 -10 6 0 11 5 11 10 0 6 -2 10 -4 10 -3 0
-8 -4 -11 -10z"/>
<path d="M2812 3074 c10 -10 20 -16 22 -13 3 3 -5 11 -17 18 -21 13 -21 12 -5
-5z"/>
<path d="M3120 3066 c0 -2 9 -6 20 -9 11 -3 20 -1 20 4 0 5 -9 9 -20 9 -11 0
-20 -2 -20 -4z"/>
<path d="M3181 3054 c0 -11 3 -14 6 -6 3 7 2 16 -1 19 -3 4 -6 -2 -5 -13z"/>
<path d="M1412 3020 c7 -10 14 -18 15 -16 6 6 -9 36 -18 36 -5 0 -4 -9 3 -20z"/>
<path d="M1455 3020 c3 -5 8 -10 11 -10 2 0 4 5 4 10 0 6 -5 10 -11 10 -5 0
-7 -4 -4 -10z"/>
<path d="M1340 2973 c8 -3 18 -11 22 -17 9 -14 22 -1 13 13 -3 6 -16 11 -28
10 -15 0 -17 -2 -7 -6z"/>
<path d="M1437 2969 c7 -7 15 -10 18 -7 3 3 -2 9 -12 12 -14 6 -15 5 -6 -5z"/>
<path d="M1398 2942 c-10 -2 -18 -8 -18 -14 0 -6 9 -8 21 -5 16 4 19 2 14 -11
-3 -9 -3 -13 1 -9 8 8 34 -11 34 -25 0 -5 -6 -6 -12 -3 -7 4 -1 -3 15 -15 15
-12 27 -30 27 -40 0 -10 7 -31 15 -46 8 -16 15 -40 16 -54 l0 -25 10 25 c15
37 -2 160 -22 160 -5 0 -9 10 -9 23 0 16 -3 18 -9 8 -7 -11 -10 -11 -15 0 -5
12 -7 12 -12 1 -5 -10 -11 -8 -23 10 -9 14 -23 22 -33 20z"/>
<path d="M1334 2819 c3 -17 6 -37 6 -43 0 -6 5 -4 10 4 8 13 11 11 16 -7 7
-27 17 -29 34 -8 9 11 9 15 1 15 -6 0 -16 12 -21 26 -6 14 -14 22 -20 19 -5
-3 -10 1 -10 9 0 9 -5 16 -11 16 -8 0 -9 -11 -5 -31z"/>
<path d="M2441 2754 c0 -11 3 -14 6 -6 3 7 2 16 -1 19 -3 4 -6 -2 -5 -13z"/>
<path d="M7595 2733 c-165 -84 -207 -307 -83 -448 53 -60 84 -75 155 -75 78 0
127 15 169 52 71 63 103 182 70 262 -9 22 -15 41 -12 43 2 2 13 -19 25 -46 13
-32 21 -71 21 -109 0 -51 -5 -67 -32 -108 -44 -64 -73 -83 -160 -104 l-73 -19
51 0 c103 -2 215 85 249 192 40 129 -27 277 -156 342 -60 31 -180 40 -224 18z
m180 -207 c20 -30 12 -49 -35 -80 -21 -14 -45 -38 -52 -53 -7 -15 -24 -33 -38
-40 -14 -7 -24 -19 -22 -28 2 -8 -4 -15 -11 -15 -16 0 -30 38 -19 54 3 6 8 26
9 45 1 25 13 44 47 76 74 71 96 79 121 41z"/>
<path d="M8095 2660 c3 -5 8 -10 11 -10 2 0 4 5 4 10 0 6 -5 10 -11 10 -5 0
-7 -4 -4 -10z"/>
<path d="M2101 2499 c-13 -5 -22 -12 -19 -14 3 -3 20 1 39 9 37 17 19 21 -20
5z"/>
<path d="M8160 2481 c0 -6 4 -13 10 -16 6 -3 7 1 4 9 -7 18 -14 21 -14 7z"/>
<path d="M7365 2421 c-3 -6 -22 -11 -42 -11 l-36 0 7 -42 c21 -134 150 -261
304 -298 23 -6 42 -16 42 -23 0 -24 -41 -143 -60 -175 -25 -42 -25 -50 0 -27
11 10 30 49 42 86 12 37 25 66 29 64 4 -3 12 2 19 10 9 11 9 22 0 49 -14 42
-5 76 18 76 15 0 15 -2 2 -10 -10 -6 -11 -10 -3 -10 9 0 11 -10 6 -32 l-6 -33
25 23 c13 12 30 22 36 22 15 0 15 6 2 31 -6 11 -21 19 -36 19 -38 0 -128 35
-178 69 -57 39 -91 84 -121 158 -24 58 -38 73 -50 54z"/>
<path d="M8171 2380 c0 -14 4 -34 8 -44 7 -17 8 -18 14 -3 3 9 0 29 -8 44
l-15 28 1 -25z"/>
<path d="M8146 2377 c3 -10 9 -15 12 -12 3 3 0 11 -7 18 -10 9 -11 8 -5 -6z"/>
<path d="M3610 2370 c-98 -17 -133 -32 -182 -78 -59 -55 -83 -98 -96 -173 -10
-53 -8 -80 3 -43 8 27 69 145 77 150 4 3 -5 -21 -20 -53 -23 -50 -27 -71 -27
-148 0 -78 4 -97 27 -140 59 -111 184 -182 287 -164 54 10 132 59 171 109 54
68 74 126 75 216 0 73 -3 87 -38 156 -40 82 -81 123 -158 158 -47 21 -52 21
-119 10z m-158 -528 c18 -19 56 -47 83 -63 53 -31 50 -38 -6 -15 -42 17 -102
77 -123 120 -8 18 -18 52 -21 77 -5 40 -3 38 15 -20 12 -41 32 -77 52 -99z"/>
<path d="M6280 2301 c0 -6 5 -13 12 -17 6 -4 8 -3 4 4 -3 6 2 13 11 15 14 4
13 5 -4 6 -13 0 -23 -3 -23 -8z"/>
<path d="M6340 2279 c0 -6 -7 -8 -16 -5 -9 3 -12 2 -9 -5 4 -6 14 -8 22 -5 8
3 27 -1 44 -9 41 -21 36 -11 -6 14 -19 11 -35 15 -35 10z"/>
<path d="M8153 2221 c-6 -18 -7 -31 -2 -31 12 0 22 24 17 45 -2 12 -7 7 -15
-14z"/>
<path d="M8089 2225 c-1 -5 -1 -13 -1 -17 1 -3 -5 -12 -13 -18 -17 -14 -20
-40 -5 -40 6 0 10 6 10 14 0 8 4 17 8 20 5 3 6 -8 4 -24 -2 -17 -8 -28 -12
-25 -4 2 -6 -16 -6 -40 1 -32 5 -45 15 -45 11 0 9 -4 -5 -16 -10 -8 -14 -13
-7 -10 9 5 10 -4 6 -30 -10 -60 13 -32 32 41 10 36 21 65 24 65 3 0 7 11 7 25
2 34 -9 31 -23 -6 -11 -27 -15 -30 -28 -19 -13 11 -12 15 10 37 19 20 22 29
14 44 -6 13 -6 19 1 19 5 0 10 5 10 11 0 5 -5 7 -11 3 -6 -3 -15 0 -20 7 -5 8
-9 10 -10 4z"/>
<path d="M6450 2216 c0 -3 9 -10 20 -16 11 -6 20 -8 20 -6 0 3 -9 10 -20 16
-11 6 -20 8 -20 6z"/>
<path d="M8046 2194 c-10 -14 -15 -28 -13 -31 3 -2 13 7 23 21 9 15 14 29 12
32 -3 2 -13 -7 -22 -22z"/>
<path d="M8294 2212 c4 -7 2 -20 -6 -30 -12 -16 -11 -16 7 -2 11 8 21 15 23
16 1 1 -5 7 -15 15 -12 10 -15 10 -9 1z"/>
<path d="M7903 2172 c-31 -17 -32 -17 -14 -40 l17 -24 16 41 c9 23 16 41 15
41 -1 -1 -16 -9 -34 -18z"/>
<path d="M8140 2170 c0 -5 5 -10 10 -10 6 0 10 5 10 10 0 6 -4 10 -10 10 -5 0
-10 -4 -10 -10z"/>
<path d="M6610 2116 c0 -3 9 -10 20 -16 11 -6 20 -8 20 -6 0 3 -9 10 -20 16
-11 6 -20 8 -20 6z"/>
<path d="M8257 2103 c-4 -3 -7 -11 -7 -17 0 -6 5 -5 12 2 6 6 9 14 7 17 -3 3
-9 2 -12 -2z"/>
<path d="M3959 2023 c-8 -109 -48 -192 -126 -263 -58 -51 -141 -90 -192 -90
-38 0 -43 -8 -20 -31 10 -10 19 -29 19 -41 1 -21 2 -21 11 -5 7 11 22 17 49
17 22 0 40 4 40 9 0 15 27 20 59 11 34 -10 36 -8 19 19 -13 21 5 55 78 151 55
73 76 138 72 231 l-3 74 -6 -82z"/>
<path d="M8240 2062 c0 -4 10 -9 22 -9 18 -2 20 0 8 7 -18 12 -30 13 -30 2z"/>
<path d="M8205 1990 c-3 -5 -1 -10 4 -10 6 0 11 5 11 10 0 6 -2 10 -4 10 -3 0
-8 -4 -11 -10z"/>
<path d="M3340 1925 c0 -5 5 -17 10 -25 5 -8 10 -10 10 -5 0 6 -5 17 -10 25
-5 8 -10 11 -10 5z"/>
<path d="M6930 1926 c0 -3 9 -10 20 -16 11 -6 20 -8 20 -6 0 3 -9 10 -20 16
-11 6 -20 8 -20 6z"/>
<path d="M7917 1906 c-4 -10 -5 -21 -2 -24 9 -9 17 6 13 25 -3 17 -4 17 -11
-1z"/>
<path d="M7870 1880 c-8 -5 -10 -10 -5 -10 6 0 17 5 25 10 8 5 11 10 5 10 -5
0 -17 -5 -25 -10z"/>
<path d="M3370 1861 c5 -11 15 -23 21 -27 6 -3 3 5 -6 20 -20 30 -30 35 -15 7z"/>
<path d="M7010 1876 c0 -3 9 -10 20 -16 11 -6 20 -8 20 -6 0 3 -9 10 -20 16
-11 6 -20 8 -20 6z"/>
<path d="M8160 1860 c8 -5 20 -10 25 -10 6 0 3 5 -5 10 -8 5 -19 10 -25 10 -5
0 -3 -5 5 -10z"/>
<path d="M6890 1768 c-19 -35 -36 -65 -38 -69 -1 -3 10 -14 25 -23 28 -17 28
-17 6 2 l-21 19 30 54 c17 30 32 56 35 58 2 3 18 -3 36 -13 l32 -18 -30 26
c-16 14 -32 25 -35 26 -3 0 -21 -28 -40 -62z"/>
<path d="M7150 1796 c0 -3 9 -10 20 -16 11 -6 20 -8 20 -6 0 3 -9 10 -20 16
-11 6 -20 8 -20 6z"/>
<path d="M7215 1755 c11 -9 29 -21 40 -26 l20 -10 -20 16 c-11 9 -29 21 -40
26 l-20 10 20 -16z"/>
<path d="M3460 1665 c11 -12 20 -27 20 -33 0 -18 14 -14 38 11 l22 23 -50 10
-50 11 20 -22z"/>
<path d="M7350 1687 c0 -3 21 -12 46 -21 26 -9 66 -27 90 -41 l44 -26 -15 -29
c-9 -17 -13 -30 -11 -30 3 0 12 13 21 29 14 29 14 30 -15 51 -43 30 -160 79
-160 67z"/>
<path d="M6944 1631 c7 -11 46 -35 46 -28 0 3 -12 12 -26 22 -15 9 -23 12 -20
6z"/>
<path d="M7080 1542 c19 -17 49 -38 65 -48 42 -23 21 -5 -45 40 -44 31 -48 32
-20 8z"/>
<path d="M3627 1499 c-9 -30 -33 -79 -53 -109 -64 -97 -86 -150 -64 -150 6 0
10 6 10 14 0 22 17 28 40 16 41 -22 62 -20 84 7 27 34 56 92 56 112 0 9 7 29
15 45 9 16 14 29 13 30 -2 1 -13 7 -25 13 -19 11 -24 10 -32 -4 -7 -14 -11
-10 -16 22 -4 22 -8 44 -9 49 -1 4 -9 -16 -19 -45z"/>
<path d="M5615 1530 c3 -5 11 -10 16 -10 6 0 7 5 4 10 -3 6 -11 10 -16 10 -6
0 -7 -4 -4 -10z"/>
<path d="M7452 1445 c-23 -47 -40 -85 -37 -85 7 0 87 161 83 166 -2 2 -23 -35
-46 -81z"/>
<path d="M6940 1516 c0 -3 9 -10 20 -16 11 -6 20 -8 20 -6 0 3 -9 10 -20 16
-11 6 -20 8 -20 6z"/>
<path d="M7430 1506 c0 -2 7 -7 16 -10 8 -3 12 -2 9 4 -6 10 -25 14 -25 6z"/>
<path d="M6912 1473 c-29 -43 -36 -61 -13 -33 25 29 44 60 37 60 -3 0 -13 -12
-24 -27z"/>
<path d="M7005 1475 c11 -9 29 -21 40 -26 l20 -10 -20 16 c-11 9 -29 21 -40
26 l-20 10 20 -16z"/>
<path d="M7180 1477 c0 -2 19 -17 43 -32 23 -16 37 -22 30 -14 -12 15 -73 53
-73 46z"/>
<path d="M7092 1418 c30 -26 88 -62 88 -55 0 2 -26 21 -57 41 -32 20 -46 27
-31 14z"/>
<path d="M7270 1418 c0 -3 27 -26 60 -51 43 -34 58 -51 54 -64 -3 -10 2 -7 10
7 8 14 15 30 15 35 1 6 -3 4 -8 -4 -7 -11 -19 -6 -58 25 -64 51 -73 57 -73 52z"/>
<path d="M6880 1397 c0 -4 63 -53 226 -175 24 -18 44 -30 44 -28 0 5 -106 87
-211 164 -32 24 -59 41 -59 39z"/>
<path d="M7200 1348 c8 -8 42 -39 75 -69 39 -35 48 -40 25 -15 -19 21 -53 52
-75 69 -22 17 -33 24 -25 15z"/>
<path d="M3962 1267 l2 -72 3 60 c2 33 9 62 14 66 7 4 4 9 -5 12 -14 6 -16 -4
-14 -66z"/>
<path d="M5201 1323 c-62 -22 -124 -87 -151 -159 -54 -145 14 -306 158 -372
73 -33 177 -29 243 11 124 72 178 214 134 348 -23 70 -100 147 -170 172 -61
21 -154 21 -214 0z m9 -488 c54 -27 118 -36 165 -24 54 14 71 6 23 -10 -86
-28 -175 -14 -234 36 -29 24 -29 24 -4 17 14 -3 36 -12 50 -19z"/>
<path d="M5839 1282 c6 -12 17 -25 25 -29 27 -16 93 -129 109 -189 9 -33 18
-94 19 -135 l2 -74 6 70 6 70 8 -52 c5 -29 12 -53 17 -53 17 0 9 55 -17 125
-15 39 -32 89 -38 111 -11 40 -70 114 -125 158 -24 19 -24 19 -12 -2z"/>
<path d="M7360 1259 c-7 -11 -10 -23 -7 -25 2 -2 9 7 15 21 14 30 7 33 -8 4z"/>
<path d="M6110 1238 c0 -9 5 -20 10 -23 13 -8 13 5 0 25 -8 13 -10 13 -10 -2z"/>
<path d="M7315 1170 c-9 -16 -13 -30 -11 -30 3 0 12 14 21 30 9 17 13 30 11
30 -3 0 -12 -13 -21 -30z"/>
<path d="M7010 1179 c0 -8 -12 -32 -26 -52 -14 -21 -23 -41 -21 -44 3 -2 16
14 29 36 13 22 27 41 32 41 5 0 53 -32 108 -72 77 -55 98 -75 95 -90 -3 -10
-3 -18 -1 -18 5 0 54 98 54 107 -1 4 -10 -9 -21 -29 l-19 -38 -93 67 c-50 37
-102 76 -114 87 -18 15 -23 16 -23 5z"/>
<path d="M7185 1165 c17 -14 44 -35 60 -46 l30 -21 -30 27 c-16 14 -43 35 -60
46 l-30 21 30 -27z"/>
<path d="M4371 1164 c0 -11 3 -14 6 -6 3 7 2 16 -1 19 -3 4 -6 -2 -5 -13z"/>
<path d="M6945 1061 c-3 -5 -2 -12 3 -15 5 -3 9 1 9 9 0 17 -3 19 -12 6z"/>
<path d="M3877 1025 c-32 -19 -65 -35 -74 -35 -9 0 -13 -3 -10 -6 7 -8 -63
-63 -112 -89 -40 -20 -52 -29 -93 -72 -17 -18 -53 -47 -79 -64 -49 -31 -84
-71 -112 -126 -16 -34 -4 -46 21 -21 24 24 11 -9 -28 -74 -22 -36 -41 -80 -42
-98 -1 -17 -6 -34 -10 -36 -4 -3 -8 -12 -8 -19 0 -8 -11 -38 -24 -67 -13 -29
-29 -66 -36 -83 -20 -49 -70 -205 -70 -220 0 -13 185 -15 1421 -15 l1421 0 -7
37 c-4 21 -18 64 -31 95 -13 32 -24 65 -24 75 -1 10 -9 43 -20 73 -16 47 -17
58 -5 76 12 18 11 25 -4 50 -10 16 -30 40 -45 53 -45 42 -94 254 -80 347 9 62
-11 62 -26 -1 -12 -51 -11 -96 7 -199 l6 -39 -64 7 c-105 12 -312 47 -328 56
-11 6 -10 9 8 15 54 17 141 78 167 118 l27 42 -48 -43 c-26 -23 -73 -54 -104
-69 -50 -25 -67 -27 -161 -28 -96 0 -109 2 -159 28 -29 16 -76 50 -104 75 -42
39 -47 42 -29 15 27 -39 77 -81 117 -100 28 -13 26 -14 -35 -8 -54 5 -184 23
-520 70 -19 3 -60 10 -90 15 -30 5 -116 18 -190 29 -206 29 -462 70 -494 79
l-29 8 69 71 c127 130 129 137 31 78z m-387 -395 c0 -16 -38 -88 -50 -95 -15
-10 -12 16 10 63 17 39 40 57 40 32z m-73 -132 c-3 -8 -6 -5 -6 6 -1 11 2 17
5 13 3 -3 4 -12 1 -19z"/>
<path d="M6975 1030 c7 -11 65 -43 65 -36 0 2 -16 13 -36 25 -19 12 -32 16
-29 11z"/>
<path d="M7055 984 c6 -6 34 -27 63 -48 28 -21 52 -45 52 -54 1 -17 49 65 49
83 0 6 -9 -7 -20 -28 l-20 -38 -37 29 c-41 32 -103 71 -87 56z"/>
<path d="M7588 983 c7 -3 16 -2 19 1 4 3 -2 6 -13 5 -11 0 -14 -3 -6 -6z"/>
<path d="M7527 963 c-11 -10 -8 -20 7 -26 10 -4 13 -1 10 8 -4 9 4 15 23 18
l28 4 -31 2 c-17 0 -34 -2 -37 -6z"/>
<path d="M5662 886 l-11 -29 21 22 c18 21 27 22 72 16 28 -3 56 -11 62 -16 8
-7 15 -6 19 1 10 16 8 16 -76 27 l-76 9 -11 -30z"/>
<path d="M7491 904 c0 -11 3 -14 6 -6 3 7 2 16 -1 19 -3 4 -6 -2 -5 -13z"/>
<path d="M7535 910 c3 -5 8 -10 11 -10 2 0 4 5 4 10 0 6 -5 10 -11 10 -5 0 -7
-4 -4 -10z"/>
<path d="M7576 897 c3 -9 16 -12 35 -9 22 3 27 7 18 13 -22 14 -59 11 -53 -4z"/>
<path d="M7160 849 c0 -6 -7 -9 -15 -5 -11 4 -15 -1 -15 -17 0 -14 3 -18 8
-10 4 7 13 9 21 4 10 -7 9 -10 -3 -14 -9 -4 -19 -6 -22 -6 -8 1 -24 -22 -24
-34 0 -5 14 3 31 17 17 14 36 26 42 26 7 0 4 5 -5 11 -10 5 -15 16 -12 24 4 8
3 15 0 15 -3 0 -6 -5 -6 -11z"/>
<path d="M7560 780 c0 -5 5 -10 11 -10 5 0 7 5 4 10 -3 6 -8 10 -11 10 -2 0
-4 -4 -4 -10z"/>
<path d="M6390 745 c-6 -16 -20 -68 -31 -115 -30 -130 -31 -140 -9 -95 18 39
19 39 13 8 -3 -21 -1 -33 6 -33 9 0 17 74 13 111 -2 10 34 108 41 116 10 10 8
25 -2 19 -5 -4 -11 0 -14 6 -3 7 -10 0 -17 -17z"/>
<path d="M6360 481 c0 -12 5 -21 10 -21 6 0 10 6 10 14 0 8 -4 18 -10 21 -5 3
-10 -3 -10 -14z"/>
<path d="M5960 350 c0 -5 5 -10 10 -10 6 0 10 5 10 10 0 6 -4 10 -10 10 -5 0
-10 -4 -10 -10z"/>
</g>
</svg>
