<?xml version="1.0" encoding="UTF-8"?>
<svg version="1.1" viewBox="0 0 2048 1141" width="1280" height="1280" xmlns="http://www.w3.org/2000/svg">
<path transform="translate(0)" d="m0 0h2048v1141h-2048z" fill="#BAB3FD"/>
<path transform="translate(1384,299)" d="m0 0h7l2 5h38v61l18 1 25 3 2 4-1 32-6 66-1 3-3 44-2 29-1 27-1 13-2 12-3 37-2 15-2 31-2 24-1 4-2 29-1 3-2 32-5 53-1 3-2 18-2 2v-18l3-47v-9l-7 71-1 4-35-3-91-8-3-1-19-1-15-2-82-7-34-2-2-1-29-2-2-1-36-3-21-3-29-2-11-2 1-25h-2l-1-75-15 10-15 7-19 5-17 4-18 8-14 15-11 7-33 16-18 11-16 13-10 9-10 8-9 9-1 5-9 16-13 21-10 13-10 7-8 4-8 10-11 11-11 9-15 13-12 13-8 7-6-1-14-12-11-9-30-28-13-13-7-8-9-10-11-14-13-18-12-21-9-17-10-24-5-16v-6l11-6 20-6 13-2v2l13-3 2-1v-2l20-6 10-2h7l1 2 12-3 2-6 1-1h6l4 3 5-6 14-8 17-8 25-10 14-5 4-3 7 9v2l16-8h2v-2l11-9 11-10 12-5 10-2h4l2-9 4-15 15-40 7-17 4-12 7-9 5-5 6-4 14-7 8-11 8-7 5-2 12 1 4-4 6-9 7-6 7-3 20-1 12-3 14-3 5-1 10-19 9-21-2-18-7-92-1-22 21-2 17-2 23-2 49-4 17-2 45-4 2 7 3 8 5 9 6 5 5 5 4 3 3 1v2h2v2h23l10-3 5-4 2-5 5-5 4-8 1-9-1-6v-10l28-2 54-3z" fill="#E8E9E9"/>
<path transform="translate(1056,432)" d="m0 0h6l3 2v2h2l2 4-1 10-4 10-7 11-11 24-8 18-2 32v7l4 10 9 18 3-14-8 1 1-3 9-6 11-5h3v-20l1-13 6-7 3-1h8l3 2-1 4-6 4-1 10 13-7 15-8 7-2 18-1 10-2 19-1 6-1 28-1 8 3 1-14 3-2h7l1 6 1 19 3 18 6 12 6 5 3 2-1 4-6 2-7-1-7-5-3-5v-2h-2l-2 4-5 6-8 5-7 2h-9l-2-1v2l2 1-12 3-7 3-9 1-4 3-11 3-25 2-10 5-11 3-19 10-10-1-6-3-2-3-5 7-7 4-9 1 6 9 5 4 2 1h11l9-4 6-4 14-10 7-3 16-3h17l9 5v2h-7l-7 3h-6l4 9 3 10v7l10-4 5-5h2l-2 5-5 5-27 18h-2l3 10 6-12 6-4h5l5 6 6 14 1 5v15l-1 1h-5l-5-6-3-8-2-12-1-8h-2l-1 4-4 20-5 6-5 2h-4l-3-9-2-16h-2l-4 16-1 10-4 4-8 1-2-17-10 9-16 9-8 7-5 2 2 31 4 43v5l63-1 11-1 111-1 57-1 62-3 5-1 31-1 60-4-1 17-6 62-1 4-35-3-91-8-3-1-19-1-15-2-82-7-34-2-2-1-29-2-2-1-36-3-21-3-29-2-11-2 1-25h-2l-1-75-15 10-15 7-19 5-17 4-18 8-14 15-11 7-33 16-18 11-16 13-10 9-10 8-9 9-1 5-9 16-13 21-10 13-10 7-8 4-8 10-11 11-11 9-15 13-12 13-8 7-6-1-14-12-11-9-30-28-13-13-7-8-9-10-11-14-13-18-12-21-9-17-10-24-5-16v-6l11-6 20-6 13-2v2l13-3 2-1v-2l20-6 10-2h7l1 2 12-3 2-6 1-1h6l4 3 5-6 14-8 17-8 25-10 14-5 4-3 7 9v2l16-8h2v-2l11-9 11-10 12-5 10-2h4l2-9 4-15 15-40 7-17 4-12 7-9 5-5 6-4 14-7 8-11 8-7 5-2 12 1 4-4 6-9 7-6 7-3 20-1 12-3 14-3 5-1 10-19 9-20 7-6 9-6 7-8 13-8 5-4z" fill="#ABAAA9"/>
<path transform="translate(1384,299)" d="m0 0h7l5 16 4 23 2 11 1 18 2 23 5 60 1 19 2 15 2 28v10l-8 11-5 4-9-6-8-4-11-3 6-7 7-8 9-10 1-2-9 1-9 7-12 12h-1l-1-40-8 2-3 10-9 2-14 9-12 9-5 4-10 2-12-1-7-3-2-2-30-1-4-1-2-10v-5l-8 2-1 15-14 2h-6l-2-9v-6l-9 2-2 14-8-2-28 1-6 1-19 1-10 2-18 1-11 4-13 7-9 5h-2v-10l7-5v-3l-2-1h-8l-5 3-3 4-2 33-15 7-8 5-1 2 8-1-1 9-1 6-3-3-8-16-4-10 1-24 1-15 8-18 13-28 6-8 4-13v-6l-1-4h-2v-2l-9-1-6 3-5 4-11 7-8 9-10 6-4 2-2-18-7-92-1-22 21-2 17-2 23-2 49-4 17-2 45-4 2 7 3 8 5 9 6 5 5 5 4 3 3 1v2h2v2h23l10-3 5-4 2-5 5-5 4-8 1-9-1-6v-10l28-2 54-3z" fill="#E9EAEA"/>
<path transform="translate(734,708)" d="m0 0h3l2 20 6 20 8 18 8 16 9 16 10 15 9 11 7 8 7 5 3 1-2 6-10 17-10 16-9 11-10 6-8 5-9 11-12 11-11 9-13 12-12 13-4 3-4-1-16-12-11-10-8-7-16-15-11-11-7-8-9-10-11-14-10-13-12-19-10-18-11-23-7-19-1-9 12-6 17-6 20-4 5-2v-2l20-6 10-2h7l1 12 4 8 3 2-3-10v-5l10-4 4-6 5 5 4-1 4-6 13-8 17-8 28-11z" fill="#FDE264"/>
<path transform="translate(1043,475)" d="m0 0h2v3l7-1 1 3-7 15-8 18-2 32v7l4 10 9 18 3-14-8 1 1-3 9-6 11-5h3v-20l1-13 6-7 3-1h8l3 2-1 4-6 4-1 10 13-7 15-8 7-2 18-1 10-2 19-1 6-1 28-1 8 3 1-14 3-2h7l1 6 1 19 3 18 6 12 6 5 3 2-1 4-6 2-7-1-7-5-3-5v-2h-2l-2 4-5 6-8 5-7 2h-9l-2-1v2l2 1-12 3-7 3-9 1-4 3-11 3-25 2-10 5-11 3-19 10-10-1-6-3-2-3-5 7-7 4-9 1 6 9 5 4 2 1h11l9-4 6-4 14-10 7-3 16-3h17l9 5v2h-7l-7 3h-6l4 9 3 10v7l10-4 5-5h2l-2 5-5 5-27 18h-2l3 10 6-12 6-4h5l5 6 6 14 1 5v15l-1 1h-5l-5-6-3-8-2-12-1-8h-2l-1 4-4 20-5 6-5 2h-4l-3-9-2-16h-2l-4 16-1 10-4 4-8 1-2-17-4 3-1-2 1-2h2l1-4 2-5v-3h-2v4l-4 2-5-4-5 2-2-1v4l-7 1 1 5-6 2-8-2 1 3-7 2 1 3h-2v2l-5 3-2 7-3 5h-5l-1-1h-5l-7 3-5 1-6-1-2 4-8 4h-2v2l-9 3-10 5-5 4-4 8h-2l-2 4h-7l-4-1-5 2-3 1-4-1h-6v-2l-4 2-2 6-4 3-5 1-5-3-8-1-2-5h-14l-6 1-2-3 1-1h9v-2l5-2v-2l5 2 5-1 1-3v-3l-4 1-7-4 1-3 13-2 2 1v2l6-3h2l-1-2h-7l-1-6 3 1v-3l3 1-1 3 4-1 1-3-1-4 9-4h9l4-3h4l3 5 1 11-6-1v8l6 3 7-3 9-2 6-5 6-4 7-4h2l1-4 5-2-1-12-10-2-4-5 1-6 9-9 2-1 3-9 6-8 5-4-1-4-2-3-1-7 1-6-2-2h-6l-1 4-3 1-3-2v-2h-2v-7l3-5 8-5 1-5-1-2 1-13 2-4 8 2 1-8 2-3 5-3h2l2-10 1-6 3-9 4-8 3-3-2-1h4l2 6h2l1-5-3-1 5-5 1-3v-14l3-3 2 2 5-12 6-2v-6l3-4z" fill="#B5B4BE"/>
<path transform="translate(1029,704)" d="m0 0 2 2 3 39 3 31v5l63-1 11-1 111-1 57-1 62-3 5-1 31-1 60-4-1 17-6 62-1 4-35-3-91-8-3-1-19-1-15-2-82-7-34-2-2-1-29-2-2-1-36-3-21-3-29-2-11-2 1-25h-2v-77z" fill="#62A48E"/>
<path transform="translate(1051,438)" d="m0 0 4 1-1 5-8 4-5 5v3 6l-6 4-3 1-2 5-5 6h-2l-3 9-4 9-5 1v4h-6l-5 5-3 4-1 3h-2v2l-5 4-3 6-4 2-1 2h-3v4l-5 5-6 7-7 11-3 5h-2l-1 6-8 9-3 6-5 5h-2l-1 5-10 10-1 9-6 8-2 4-5 4-2 9 1 5-3 5-5 5-5 9-6 4-3 6h-2l-1 4-10 6-10 8-8 1-4 2-2 3-7 2-3-1-1 3h-5l-1-3h-2v2l-5-2h-3l-1 2-3 1-3 10h-2v3h-2l-3 9-4 2-7-1v-2l-8 1-4-1-16 4-8 3-4 2-1 9-5 10h-2l5 14 8 16 8 15 10 16 9 11 7 8 9 6 6 2-1 5-9 16-13 21-10 13-10 7-8 4-8 10-11 11-11 9-15 13-12 13-8 7-6-1-14-12-11-9-30-28-13-13-7-8-9-10-11-14-13-18-12-21-9-17-10-24-5-16v-6l11-6 20-6 13-2v2l-21 7-17 7 1 9 9 24 13 26 12 20 12 17 13 16 9 10 7 8 9 10 12 12 8 7 13 12 14 11 8 6 4-1 8-7 11-12 11-10 11-9 12-11 8-10 14-8 5-4 10-14 14-24 5-9-4-1-9-7-12-14-10-15-9-15-8-15-10-23-6-20-1-6v-14l-29 12-18 8-12 7-3 1-2 5-3 3-5-1-3-4-3 5-8 4h-3l3 11v4l-4-2-4-8v-9l3-2 10-2 2-6 1-1h6l4 3 5-6 14-8 17-8 25-10 14-5 4-3 7 9v2l16-8h2v-2l11-9 11-10 12-5 10-2h4l2-9 4-15 15-40 7-17 4-12 7-9 5-5 6-4 14-7 8-11 8-7 5-2 12 1 4-4 6-9 7-6 7-3 20-1 12-3 14-3 5-1 10-19 9-20 7-6 9-6 7-8 10-6z" fill="#5E5F61"/>
<path transform="translate(1393,304)" d="m0 0h38v61l18 1 25 3 2 4-1 32-6 66-1 3-3 44-2 29-1 27-1 13-2 12-3 37-2 15-2 31-2 24-1 4-2 29-1 3-2 32-5 53-1 3-2 18-2 2v-18l4-61 2-16 1-20 2-14 2-24v-8l-5 54-1 5-2-2-3-23-5-53-2-7-2-28-4-10 1-10-1-27-3-36-2-18-1-3v-12l-2-20-2-26-1-4-2-30-5-65-1-7-2-26-4-18-2-12z" fill="#62A48F"/>
<path transform="translate(1056,432)" d="m0 0h6l4 4v2l-2 1v8l-3 5-6 1h-2l-3 4h-2v2h-2l-2 5-5 5-1 3-7 4 1 5-2 7-3 5h-2l-1 5-4 9-1 13-5 1v4h-3v3l-5-1-1 7h-2l-1 6h-2v5l-2 2-1 5-2 1-3 6-2 6-7 6-2 4h-3l-2 14-3 9-5 1-3 5-3 1-1 9-2 3-1 10-4 5h-2l-2 4-3 3-3 9-5 5-10 3-1 1h-6l-1-1h-7l-7 7-5 2v7l-2 2-6 2 1 4 1 3 7 1 4-1 7 1 17-1 5-6 7-3 5-3 5-8 6-3 4-10 4-7 3-2h6l1 3-8 13-2 3h-2l-1 6-7 7-1 7h-3v-2l-5 1-2 3-5 2h-6l-3 5-14 6-9 1-7 4-5-1-4 5-4 2-7 1-4 2h-5l-1 3-5 1v2l-6 3v3l-11 3-2-1v-7-2l-6 1-1 3-4-1-1-3-6-1-6 1-1 4-3 2-1 3h-3l-2 4-2 1-4 8 2 3-5 6-9 3-1 4-3 1 1 4-10 4-4 2-2 6h-2v5h2l2 3 5 1v2l-3 2v3l5-3h2l1 7h11l7 3v2h10l1-1 11-1 5-5 8-2 13 1 10-3 9-4 1-3h3l2-5h2l2-6h7l1-3 5-2 1-3 4 1v4l7-3 6-1 5 2-1 3-14 8-25 12-19 11-13 10-10 9-16 13-8 8-4 1-8-4-10-9-11-14-8-13-9-16-8-16-5-12v-4h2l1-5 3-5v-6l5-5 5-3 6-2 12-2 4-1 5 1h5v2h7l4-2 3-8h2v-3h2v-5l3-6h3l1-3 4 1 4 2v-2h2l1 2h5l1-2 10-2 2-3 4-2 10-2 8-7 10-6 1-3 3-3 2-4 6-4 4-8 4-5h2l1-4 1-5-1-4 3-7 3-3h2l1-4 6-8 1-9 4-5 4-3h2l2-7 5-2 5-10 8-10 1-4 3-2 5-9 7-10 6-7h2v-4h3l1-3 4-1 2-6 4-4h2v-2h2l1-5 6-7 6-1 2 1v-4l5-1 3-9 4-9h2l2-4 4-5 5-6 4-1v-6-3l5-5 7-4 2-1v-4h-7l4-5z" fill="#9A9892"/>
<path transform="translate(1240,233)" d="m0 0h10l12 6 9 8 6 10 1 3v15l-5 10-5 4-9 5-7 3-2 8h45v1l-26 2h-16l2 20-3 10-6 9-2 1-3 5-6 4-10 2h-22l1-3h-2v-2l-5-1-7-6v-2l-4-2-5-6-4-9-2-5-1-1v-6l-13 2-17 2-26 2-17 2-38 3-23 2-21 1v-26h161l2-4 8-8 10-6 13-3 3-4v-6l-3-7v-14l5-10 9-6 5-2z" fill="#0A080B"/>
<path transform="translate(1209,496)" d="m0 0h7l1 6 1 19 3 18 6 12 6 5 3 2-1 4-6 2-7-1-7-5-3-5v-2h-2l-2 4-5 6-8 5-7 2h-9l-2-1v2l2 1-12 3-7 3-9 1-4 3-11 3-25 2-10 5-11 3-19 10-10-1-6-3-2-3-2-10-1-2v-9l2-9-8 1 1-3 9-6 11-5h3v-20l1-13 6-7 3-1h8l3 2-1 4-6 4-1 10 13-7 15-8 7-2 18-1 10-2 19-1 6-1 28-1 8 3 1-14z" fill="#EDD35B"/>
<path transform="translate(942,512)" d="m0 0h16l1 3v9l-3 10-5 4-4 4-7 1 1 3-4 5-5 10-4 5-6 10-6 12-2 1v-2l-4 2-3 7h-2l-2 7-4 10-3 4h-3l-1 7-5 4-4 9-2 2-6 2-3 2-2 5-2 1h-7l-3-12-3-2-2 10-4 9-6 5-6 1-1 2-7 3-4 3-3-1 4-17 11-30 12-30 4-12 7-9 5-5 6-4 14-7 8-11 8-7 5-2 12 1 4-4 6-9 7-6z" fill="#6C6A6C"/>
<path transform="translate(1359,477)" d="m0 0h6l1 5 1 34 15-15 6-4h9l-2 4-13 14-7 8 13 4 13 8 6 5-1 3-2 1h-9l-1-3-5-2-9-6-12-4v14l1 8-5 3h-6l-2-1-2-8v-4l-7 4-12 4h-10l-5-3-3-5h-4l-3-4 2 6 4 2 1 5-2 1h-11l-6-4-9 8-5 2h-7l-3-3v-11l2-9 3-6-3 1-1 1-1 8-6 10-7 7-8 5-8 3h-6l-2-11v-43l2-15 4-2h4l2 15 34 1 3 3 6 2 12 1 10-2 10-8 16-11 7-4h7l1-7 2-4z" fill="#ECD35C"/>
<path transform="translate(1108,598)" d="m0 0h17l9 5v2h-7l-7 3h-6l4 9 3 10v7l10-4 5-5h2l-2 5-5 5-27 18h-2l3 10 6-12 6-4h5l5 6 6 14 1 5v15l-1 1h-5l-5-6-3-8-2-12-1-8h-2l-1 4-4 20-5 6-5 2h-4l-3-9-2-16h-2l-4 16-1 10-4 4-8 1-1-19 5-4 1-2h-2l-1-13h-2l-5-7 1-4-4 1-6-1 1 7-1-2h-5v2l-6 2v-2l-7 1-6 2-4 2h-3v-3l-5-1v-2l-5 5v5l-6 4-8 4-8 3-7 1-7 3-3-2 1-4 6-2h2l1-3 6-4 1-5-3-3v-7l5-3 3-1 4 1v-2l3-2 5-1 5-3 10-1h4l1-13 3-3 4 2 6 4h11l9-4 6-4 14-10 7-3z" fill="#ACABA9"/>
<path transform="translate(1056,432)" d="m0 0h6l3 2v2l-5 3-1 6-9 5h-2l-2 6-2 1-1 6-8 6h-2v3l-5 4-1 3h-2l-2 9 1 3-1 5h-3l-1 6h-2l1 5-2 4-1 6-7 1-4-1-1 7-4 4-2 3h-2l1 4-3 3-1 6-5 4h-2l-1 6-5 7-5 5v4h-2l-3 10-10 9-2 3-1 5-3 2-3 9-4 4-3 6-4 1-2 5-4 7-2 6-2 2-1 6-3 1-3-6-5 1-4 6-6 4-8 11-5 4-2 5-5 5-11 8-6 5-9 3-7 2-1 4-9 6-8 1-5-2v-2l-5 2h-3l-1 7-3 4-4 6-5 5-1 3h-3v2l-9 1-4-4h-14l-4 4-4 2 1 5 6 2v-3l8-2 2 1v-2l8-1v6l-1 2 3 1-3 5h-5l-1 3h-2l-1 3-7 2-4 7-9 2-1 9-1 3h-2l-10-22-1-7h2l1-5 3-5v-6l5-5 5-3 6-2 12-2 4-1 5 1h5v2h7l4-2 3-8h2v-3h2v-5l3-6h3l1-3 4 1 4 2v-2h2l1 2h5l1-2 10-2 2-3 4-2 10-2 8-7 10-6 1-3 3-3 2-4 6-4 4-8 4-5h2l1-4 1-5-1-4 3-7 3-3h2l1-4 6-8 1-9 4-5 4-3h2l2-7 5-2 5-10 8-10 1-4 3-2 5-9 7-10 6-7h2v-4h3l1-3 4-1 2-6 4-4h2v-2h2l1-5 6-7 6-1 2 1v-4l5-1 3-9 4-9h2l2-4 4-5 5-6 4-1v-6-3l5-5 7-4 2-1v-4h-7l4-5z" fill="#858182"/>
<path transform="translate(1043,475)" d="m0 0h2v3l7-1 1 3-7 15-8 18-2 32v7l4 10 8 16-1 2-5-2-5-6-2-1-3 17-1 12-1-3-5-2 2 5 2 1-2 4-1 4h1l2 12-5 1h-4l5 5v2l-7 1h-10l-9 3-8 3-5-9 1-9-1-5 2-3v-12l-2-1v-2l5-2 3-1 2-4 2-3h2v-6l3-8h2l1-3 3-2 2-8-1-5-2-1-2-14 1-4 3-3-2-1h4l2 6h2l1-5-3-1 5-5 1-3v-14l3-3 2 2 5-12 6-2v-6l3-4z" fill="#C4C3C5"/>
<path transform="translate(747,696)" d="m0 0 5 5 2 3v3l-9 3h-3l3 19 6 20 11 25 10 18 10 16 9 11 7 8 9 6 6 2-1 5-9 16-13 21-10 13-10 7-8 4-8 10-11 11-11 9-15 13-12 13-8 7-6-1-14-12-11-9-30-28-13-13-7-8-9-10-11-14-13-18-12-21-9-17-10-24-5-16v-6l11-6 20-6 13-2v2l-21 7-17 7 1 9 9 24 13 26 12 20 12 17 13 16 9 10 7 8 9 10 12 12 8 7 13 12 14 11 8 6 4-1 8-7 11-12 11-10 11-9 12-11 8-10 14-8 5-4 10-14 14-24 5-9-4-1-9-7-12-14-10-15-9-15-8-15-10-23-6-20-1-6v-14l-29 12-18 8-12 7-3 1-2 5-3 3-5-1-3-4-3 5-8 4h-3l3 11v4l-4-2-4-8v-9l3-2 10-2 2-6 1-1h6l4 3 5-6 14-8 17-8 25-10 14-5z" fill="#130F11"/>
<path transform="translate(1066,436)" d="m0 0 3 4-1 10-4 10-7 11-3 7h-9v-3l-3 3-4 8-1 5-2 4h-5l-1 4-3 9-3-2-2 4v12l-3 5-3 1v2l2 1-1 5-3 1-1-7-2 1-1 3-3 3-3 8-2 6-1 6-3 10-4 3h-3l-2 9-1 3-8-2-2 10v6l1 5-4 4-6 4-2 4-1 7h2v2l4 1 2-1 1-3 6-1 3 3-1 8 2 7 2 2-1 4h-2l-1 3-8 7-4 4 2-6 4-6-1-2h-5l-3 1-2 4-4 12-5 4-3 1-6 9-7 4-5 2-4 5-22 1-4-1-5 1-4-2-3-4 1-4 7-3v-7l2-2 5-2 4-5 2-1h7l1 1h6l6-3 5-1 5-5 3-10 9-8 2-9 1-4 3-11 4-3 2-4 5-1 5-22 3-1 3-5 6-5 2-6 3-6 2-2 1-4 2-6h2l1-6h2l1-7 5 1v-3h3v-4l4-1 1-13 5-10 1-4 3-2 2-6 1-5-1-4 6-4h2l1-4h2l2-4 3-5h2v-2l5-5h6l3-3 1-2v-9h3z" fill="#ABAAA8"/>
<path transform="translate(1217,505)" d="m0 0h1v6l12-2h7l1 43 1 11 8-2 10-4 10-9 6-10 1-8 1-3 4 1-1 4-2 5-1 6v13h9l8-4 7-6 5 4h13l-2-5-5-5-2-4 1-4 4 8 3 2v-8h1l2 10 3 3 3 1h10l14-5 5-2 2 12 2 1h-12l-8 4-10 3-5 2-16 2-3 1h-16l-3 5-3-2-3 4h-3v-2l-13 5-3 3-4-2-5-1-1 1-7-1-4-1-1 3h-2l-3-5-9 1-11 3-13 1-6-1h-4l-6-4-7-2v-4h11l11-4 7-6 4-6h2l5 8 7 4 8-1 3-1v-3l-6-4-5-6-5-13-2-14z" fill="#EED45B"/>
<path transform="translate(794,748)" d="m0 0h2l-1 4-3 1 1 4-10 4-4 2-2 6h-2v5h2l2 3 5 1v2l-3 2v3l5-3h2l1 7h11l7 3v2h10l1-1 11-1 5-5 8-2 13 1 10-3 9-4 1-3h3l2-5h2l2-6h7l1-3 5-2 1-3 4 1v4l7-3 6-1 5 2-1 3-14 8-25 12-19 11-13 10-10 9-16 13-8 8-4 1-8-4-10-9-11-14-8-13-4-7v-6l-2-5 1-5 8-10 6-4h3l1-4 7-4z" fill="#9A9892"/>
<path transform="translate(954,561)" d="m0 0 1 4-10 13-4 7-5 2-1 5-10 10-1 9-6 8-2 4-5 4-2 9 1 5-3 5-5 5-5 9-6 4-3 6h-2l-1 4-10 6-10 8-8 1-4 2-2 3-7 2-3-1-1 3h-5l-1-3h-2v2l-5-2h-3l-1 2-3 1-3 10h-2v3h-2l-3 9-4 2-7-1v-2l-8 1-4-1-16 4-8 3-4 2-1 9-5 10h-2l-1 2-6-20-2-10v-9l9-3h3l1-2v2l16-8h2v-2l11-9 11-10 12-5 10-2h4v-3l5-2 9-5 10-4-1 5-5 6-6 3 8 3 5 2 1 4-6 2-6-3-9 1-5 4h-3l1-4-12 2v2l-8 5h-3v2l3-1 3 2-12 5-9 5 13-1 6-1 11 2 1-5-3-2 1-5-1-2 7 1 10-1 10 1 9 1 1-3h9l9-2 14-10 4-2 2-5 8-8h2v-6l5-5 5-6v-10l5-10 3-7 3-1v-2l4-2 2-12 3-6 4-2 4 2 2-6 6-5 3-6 3-3 2-5 5-5z" fill="#5E5F61"/>
<path transform="translate(1021,307)" d="m0 0h157l-1 10 5 12 5 10 5 6 6 5 9 5 12 3v1h-16l1-3h-2v-2l-5-1-7-6v-2l-4-2-5-6-4-9-2-5-1-1v-6l-13 2-17 2-26 2-17 2-38 3-23 2-19 1z" fill="#A34A28"/>
<path transform="translate(1007,523)" d="m0 0 7 1-3 1v3l-5-1-1 7h-2l-1 6h-2v5l-2 2-1 5-2 1-3 6-2 6-7 6-2 4h-3l-2 14-3 9-5 1-3 5-3 1-1 9-2 3-1 10-4 5h-2l-2 4-3 3-3 9-5 5-10 3-1 1h-6l-1-1h-7l-7 7-5 2v7l-2 2-6 2 1 4 1 3 7 1 4-1 7 1 17-1 5-6 7-3 5-3 5-8 6-3 4-10 4-7 3-2h6l1 3-8 13-2 3h-2l-1 6-7 7-1 7h-3v-2l-5 1-2 3-5 2h-6l-3 5-14 6-9 1-7 4-5-1-4 5-4 2-7 1-3 1 1-4 3-2 1-3h-7l2-6 11-3-2-5-4-2 6-7 4-4 2-1 1-5h2l1-4 3-2 1-4h2v-2h2l2-4 6-3 5 1 4 4 5-1 5-4 4-12-1-1v-8l10-10 3-5 4-4 4-10 6-8 6-3 1-7 2-5 5-7-3 1 1-4 8-2-1-5 7-10 3-2 2-9 3-1v-4l2-1 1-5h5z" fill="#A09EA3"/>
<path transform="translate(1069,662)" d="m0 0h2l1 4-4 8h-2v5l-11 8-11 6-8 7-5 2-1 4h-2l-10 7-15 10-15 7-19 5-17 4-9 4h-2v-2l5-5 2-3v-5l3-5 6-5 9-4 6-2h3v-2l10-5 2-3h10l2-2 6-2h5l1 1h5l4-10 3-4h3v-4l1-2 6-1v-3l9 1 5-1-1-5 7-1-1-4h3l5-2 6 4 3-1z" fill="#ABAAA9"/>
<path transform="translate(1108,598)" d="m0 0h17l9 5v2h-7l-7 3h-6l4 9 3 10v7l10-4 5-5h2l-2 5-5 5-4 3-8-1h-2l-3 2-3 6-7 6-4 1 1-12 4 1-2-6-5-2-3-2v-2h-12l-2 1v4l-5 1-6-2-10 1-2 3-7 4h-7l-6-2-3-3 2-1 1-5 2-5h3v-2l13-1 9-4 6-4 14-10 7-3z" fill="#999792"/>
<path transform="translate(824,713)" d="m0 0 3 2-2 6-9 6-1 5-3 3 1 4-1 3v6l-10 2-2 4 2 1-5 4-9 2-1 3 2 4 2 1 1 2h5v2l3-1 2 5h8l8-3 1-2h14l3 2h2v-3l6-2-1 3 10 2 4 1v-3l4-2 2-4 4 1 5 1 1-5 5-2 4 1 7-7 7-1h10l5-1 5 1h3l4 3-2 4-7-2-12 3-1-4-3-1-1 4-5 2-3 3h-5l-2 5h-2l-2 5h-3l-1 4-9 4-12 3-11-1-9 2-3 4v1l-12 1-4 1-7-1v-2l-10-2h-8l-1-5v-3l-7 4-1-4 4-2v-2h-5l-2-4h-2v-5h2l1-4 5-5 4-2h3l1-2 1-1v-2l3-2 1-3 10-5 3-4-2-3 5-9 4-4h3l1-4 3-1z" fill="#A19FA3"/>
<path transform="translate(898,621)" d="m0 0 3 2-3 7-7 9-1 3 7 2-1 4-10 8v7l-5 5-3 6-7 5-10 5h-6v2l-9 2-1 2h-15l-7-1-8 1-5-1v3l-1 3 4 2-1 5-4 1-9-2-12 2h-7l4-4 13-6 3-1-4-1v-2l6-3 5-2v-2l4-2h8l-1 4 8-5 9-1 6 3 5-1-1-4-10-3-3-3 7-3 9-11 3-4 4-13h2l2 6v8h6l8-4 3-1 2-4 10-9 6-10z" fill="#4F4B4F"/>
<path transform="translate(1359,477)" d="m0 0h6l1 5 1 34 15-15 6-4h9l-2 4-13 14-7 8 13 4 13 8 6 5-1 3-2 1h-9l-1-3-5-2-9-6-12-4v14l1 8-5 3h-6l-2-1-2-8v-4l-7 4-12 4h-10l-5-3-3-5 1-9 5-10 7-6 3-1h11l2 4-1 1h-9l-3 5-1 4v11l1 1h8l11-5h2v-51l3-7z" fill="#120C0E"/>
<path transform="translate(1253,308)" d="m0 0h15l2 4h2l5 12 7 5v2h2l3 7v9l-6 12-6 5-6 2h-12l-13-4-16 1-17-2-6-2v-1h20l10-3 5-4 2-5 5-5 4-8 1-9-1-6z" fill="#C4C3C5"/>
<path transform="translate(1393,304)" d="m0 0h37v62l-18-1-9-1-3-23-4-18-2-12z" fill="#A24A28"/>
<path transform="translate(878,557)" d="m0 0 1 4-2 3-3 9-4 5-2 4-3 2-1 9-6 18-3 5-2 24-4 12-6 7-6 1-1 2-7 3-4 3-3-1 4-17 11-30 12-30 4-12 7-9 5-5 6-4z" fill="#868283"/>
<path transform="translate(1241,612)" d="m0 0h3l1 19 17-3 9 1v2l-12 3-13 2 1 28 3 7 5-1 8-6 3-13 5-8 6-4 3-1h12l8 3v4l-7 6-10 5-4 1 2 4 5 3h8l13-3v2l-9 5-10 3h-11l-10-5-2 4-8 6-7 3h-10l-5-6-1-3-1-28-8 5h-4l2-5 10-6h2l1-14 3-9z" fill="#100E11"/>
<path transform="translate(1209,496)" d="m0 0h7l1 6 1 19 3 18 6 12 6 5 3 2-1 4-6 2-7-1-7-5-3-5v-2h-2l-2 4-5 6-8 5-7 2h-9l-4-4 1-9 4-10 4-5 8-4h10l2 1 1-32 1-7z" fill="#110B0D"/>
<path transform="translate(1366,484)" d="m0 0h1l1 5 8-2 5 1 4-1h8l10 4 5 4 6 9 1 8v10l-8 11-5 4-9-6-8-4-11-3 6-7 7-8 9-10 1-2-9 1-9 7-12 12h-1z" fill="#EDD35B"/>
<path transform="translate(1243,492)" d="m0 0h4l3 25 1 8 7-2h10l5 3 2 4-1 8-6 10-7 7-8 5-8 3h-6l-2-11v-43l2-15z" fill="#100B0D"/>
<path transform="translate(1364,622)" d="m0 0 5 1v2l-13 7-3 1 3 3 13 7 4 5v7l-4 5-12 8-9 3h-9l-1-4 4-5 6 1 4 1 8-6v-6l-8-6-11-6-1-2-8 13-7 19-7 4h-5l-1-24-1-5v-10l2-5 1-1h5l4 6 2 9 5-5 8-5 7-2 14-8z" fill="#0E0C0F"/>
<path transform="translate(1463,512)" d="m0 0h1v18l-2 44-1 13-2 12-3 37-2 15-2 31-2 24-1 4-2 29-1 3-2 32-5 53-1 3-2 18-2 2v-18l4-61 2-16 1-20 2-14 2-24 2-10 4-59 2-22 4-42 2-16 1-15 2-12z" fill="#1E1C1F"/>
<path transform="translate(1063,436)" d="m0 0h3v2l-2 1v8l-3 5-6 1h-2l-3 4h-2v2h-2l-2 5-5 5-1 3-7 4 1 5-2 7-3 5h-2l-1 5-4 9-1 13-5 1v3l-7-1v2l-5 1-1 5h-2v4l-2 2-3 9-5 5-4 6v5l-8 2v3h2l-2 4-4 6v7l-4 4-4 2-6 9-4 9-5 5-3 6-7 5-1 2v8l1 2-4 11-8 6-5-1-4-4-5 1-5 3-1 2h-2v2h-2l-1 5-3 2-1 3h-2v5l-9 6-2-1 4-5h2l2-6 6-5 6-9 5-4 3-3 4-5 5 1 3 5h2v-6l3-3 3-9 5-8 4-2 4-8 3-2 3-9 3-1v-5l5-6 7-6 4-10h2l-1-4 4-5 4-4 3-5 1-4 6-4v-2h2l-1-4 3-3v-4l4-4 2-3h2l-1-3 2-5 9 1h2v-7l2-4-1-2 1-2h2l1-6h3l-1-3 1-3-1-3 3-8h2l1-4 3-3h2v-3l9-6 2-7h2l2-6 9-5h2v-7z" fill="#8F8E8E"/>
<path transform="translate(1117,647)" d="m0 0h5l5 6 6 14 1 5v15l-1 1h-5l-5-6-3-8-2-12-1-8h-2l-1 4-4 20-5 6-5 2h-4l-3-9-2-16h-2l-4 16-1 10-4 4-8 1-1-19 10-9 9-6 9-3h3l3 8 6-12z" fill="#0F0D10"/>
<path transform="translate(1078,512)" d="m0 0h8l3 2-1 4-6 4-1 26 8-3 6-1h16l2 2-3 2-16 2-11 3v13l1 22-6 4h-6l-2-10-1-10v-14l-20 9h-5l1-3 9-6 11-5h3v-20l1-13 6-7z" fill="#110C0E"/>
<path transform="translate(1155,402)" d="m0 0h4v8l-8 16-12 22-11 18-9 14-6 5-9 1 2-4 11-18 12-21 1-3h-7l-11-4-11-6-7-7 1-4 4-2h6l11 11 11 4 8 2 2-6 9-16 7-9z" fill="#0F0C0F"/>
<path transform="translate(1029,704)" d="m0 0 2 2v15l-8 83-1 8h11l267 25v1h-19l-15-2-82-7-34-2-2-1-29-2-2-1-36-3-21-3-29-2-11-2 1-25h-2v-77z" fill="#171518"/>
<path transform="translate(954,561)" d="m0 0 1 4-10 13-4 7-5 2-1 5-10 10-1 9-6 8-2 4-5 4-2 9 1 5-3 5-5 5-5 9-6 4-3 6h-2l-1 4-10 6-10 8-8 1-4 2-2 3-7 2-3-1-1 3h-5l-1-3h-2v2l-5-2h-3l-1 2-3 1-3 10h-2v3h-2l-3 9-4 2-7-1v-2l-8 1-4-1-16 4-8 3-4 2-1 9-5 10h-2l-1 2-1-8 2-1v-9l1-3 9-5 1-4 12-6h8l5-1h2l1-2 1 1 10-1 1-3 10 1 4-10v-4l6-3 5-1 11 5 9-5 5-1 3-2 9-2 14-10 4-2 2-5 8-8h2v-6l5-5 5-6v-10l5-10 3-7 3-1v-2l4-2 2-12 3-6 4-2 4 2 2-6 6-5 3-6 3-3 2-5 5-5z" fill="#6C6A6C"/>
<path transform="translate(770,785)" d="m0 0 3 1 5 10 9 3-1 4 7-1 5 3 8 1 4-5 3 2v2l5 1 4 2 2-3 4 4v2l6 2 2 1-9 8-8 7-7 6-7-2-10-8-12-14-7-11-2-4-2-5z" fill="#8F8E8E"/>
<path transform="translate(1240,421)" d="m0 0h9l1 1 1 17 3 8 4 5-3 2h-9l-6-5v-2h-2l-2 5-5 5-5 2h-10l-4-5-1-3v-16l3-7 4-5h5l1 1v27h2l3-9 7-17z" fill="#0C0A0D"/>
<path transform="translate(1108,598)" d="m0 0h17l9 5v2h-7l-7 3h-15l-3-1 1 7h-3l1 8-2-3h-4v3l-5-1-3-1v5l-4-3h-2v3h-2v2h-7l-4 1-2-1v-2l-8 4v4h-2l-2 4-5 1v-2l-7 1v-6l5-3 5-1-2-4 12-3 9-6 14-10 7-3z" fill="#868283"/>
<path transform="translate(1199,613)" d="m0 0h1l1 22 13-5 5-1h9l-1 2-19 7-5 2v20l3 11 2 3 6-2 6-5h2l-1 6-6 5-6 3h-11l-5-5-3-8-1-11v-10l-12 5h-5l5-5 12-6 3-17 3-9z" fill="#100E11"/>
<path transform="translate(1151,650)" d="m0 0h10l2 1v4h4l9 14 4 3v5l-1 1h-10l-6-4-2 6-9 6h-9l-5-4v-16l5-10 5-5z" fill="#0F0D10"/>
<path transform="translate(1289,521)" d="m0 0h11l2 3v3l4 1 5 12 1 3 4 2 1 5-2 1h-11l-6-4-9 8-5 2h-7l-3-3v-11l2-9 6-9z" fill="#120C0D"/>
<path transform="translate(1008,706)" d="m0 0h7l2 1-1 7-10 7-15 8-17 5-22 5-9 4h-2v-2l5-5 5-8 7-3 3 1v-2l4-4 9-1 4 1 2-4 6-5 7-2 7-1h6z" fill="#A19FA4"/>
<path transform="translate(1305,404)" d="m0 0h6l-4 6-8 7-9 13-5 11-4 10-3 3-3 1h-8l-1-28-3-11 1-4 1-1h9l4 6 2 9 8-11 10-8z" fill="#0E0C0F"/>
<path transform="translate(1170,425)" d="m0 0h17l10 4 5 5v11l-6 12-8 6-5 2h-11l-6-3-4-8v-12l5-8 4-3h5v21l3 6 5-1 5-8 1-3v-8l-5-5-5-2-15-1v-3z" fill="#100E11"/>
<path transform="translate(884,677)" d="m0 0h2v2l-3 3-1 5h-6l-1 3-11 4h-6l-1 6-5 1-1 3-6 5-5-1v3h-5l-3-2h-2v-2l-5-2-1 2h3v2h-2l-1 3-4 4-7 10-5 4-2 3h-3v3h-2v2h2l1 5-4 3h-2v2h-4l-1 3-4 3h-3l-1 4-6 3-3 1-1 3h-2l-2 5-3 4 1 6 1 3-2 4-5-10 1-4 1-6 1-3 9-3 3-6 3-2 5-1 4-5 6-2 1-3-2-1v-6l1-2-8 1v2l-10 1 1 4-8-3-1-5 6-4h2l1-3h14l4 4h9v-2h3l1-5 6-5 3-6 2-3 2-7 8-1 3 3h7l7-4 5-3 1-3 9-3 10-5 9-8z" fill="#8F8E8E"/>
<path transform="translate(899,536)" d="m0 0 2 1-6 21-3 9-2 8-5 8-2 5-2 2v14l2 3-1 4-3 7-5 5-4-2-1-9v-9l6-24 5-11 1-6-1-3 1-2-2-1 7-4 7-10z" fill="#868283"/>
<path transform="translate(943,653)" d="m0 0h6l2 7-5 6-3 5-5 4-5 3-1 3-7 1-6-5-3 1-3 4h-5l-7-3 1-4 4-2 1-6 3-2h3l2-7 11 1 7-3 8-2z" fill="#B5B4BF"/>
<path transform="translate(1217,505)" d="m0 0h1v6l12-2h7l1 52-5-4-8-7-5-11-3-18z" fill="#EED45B"/>
<path transform="translate(1066,436)" d="m0 0 3 4-1 10-4 10-7 11-3 7h-9v-3l-3 3-4 8-1 5-2 4h-5l-1 4-3 9-3-2-2 4v12h-2v-15l5-10 1-4 3-2 2-6 1-5-1-4 6-4h2l1-4h2l2-4 3-5h2v-2l5-5h6l3-3 1-2v-9h3z" fill="#ACABAA"/>
<path transform="translate(1155,541)" d="m0 0h12l7 3-1 5-6 5-11 6h-4l3 7 2 1 14 1v2l-8 4h-18l-5-5-1-2v-8l4-10 5-6z" fill="#160E0F"/>
<path transform="translate(906,533)" d="m0 0 9 1 4 1-1 8-6 17-2 3-2 9-4 8-3 7-4 10-2 10-2 4-2 7-6 3-4 8-4 2-1 2-3-1 6-12 3-3 5-11 6-14 3-4 4-13 2-12 2-8 4-10v-4l-4 2-2-2 1-7z" fill="#5E5F61"/>
<path transform="translate(1e3 525)" d="m0 0 2 1-1 5-2 2-2 6-4 10h-2l-1 4-5 10-6 7-5 5-1 11-3 5-5 3-7 11-4 8-3 5-1 8-6 5-4 13-3 5-12 6-6-1-1-1h-6l-5 4-5 5-5 2 4-4 1-4h2v-2h2l2-4 6-3 5 1 4 4 5-1 5-4 4-12-1-1v-8l10-10 3-5 4-4 4-10 6-8 6-3 1-7 2-5 5-7-3 1 1-4 8-2-1-5 7-10 3-2 2-9 3-1v-4l2-1z" fill="#9A9892"/>
<path transform="translate(1364,622)" d="m0 0 5 1v2l-13 7-3 1 3 3 13 7 4 5v7l-4 5-12 8-9 3h-9l-1-4 4-5 6 1 4 1 8-6v-6l-8-6-11-6 1-7 5-2 10-6z" fill="#100E11"/>
<path transform="translate(1120,547)" d="m0 0h12l5 3-2 5-10 7-9 5 1 3 2 1 20 1v2l-10 4-6 1h-11l-7-3-2-2 1-9 5-9 5-5z" fill="#160E0F"/>
<path transform="translate(1007,523)" d="m0 0 7 1-3 1v3l-5-1-1 7h-2l-1 6h-2v5l-2 2-1 5-2 1-3 6-2 6-7 6-2 4h-3l-2 14-3 9-5 1-3 5-3 1-1 9-2 3-1 10-4 5h-2l-2 4-3 3-3 9-5 5-10 3-1 1h-6l-1-1h-7l-7 7-4-1 5-5 6-5h6l3 2 7-1 7-4h2l2-5 4-13 6-5 2-11 3-3 3-7 7-11 7-5 1-3 1-11 4-5h2l2-4 4-4 4-9 3-6h2l1-7 2-2 2-6 2-2 1-5h3z" fill="#A19FA4"/>
<path transform="translate(554,832)" d="m0 0h2l7 19 10 21 13 21 10 13 8 10 9 10 27 27 11 9 18 13 15 10 22 13 1 2-9-3-21-12-18-13-13-10-14-12-13-12-14-15-10-12-13-18-9-14-6-10-5-11-4-10-4-12z" fill="#1C1A1D"/>
<path transform="translate(837,620)" d="m0 0 2 2v8l7-3h3l1 2v10l-4 13-3 4-4-1h-3l-11 10h-2l2-12 9-25z" fill="#8F8E8E"/>
<path transform="translate(1043,475)" d="m0 0h2v3l7-1 1 3-7 15-4 10-5-2-2-4h-2v13l-4 4-3 2-1 4-3 3-3 7-3 11-3 3-3-1-1-4h2l-1-5-3-2 3-3-2-1h4l2 6h2l1-5-3-1 5-5 1-3v-14l3-3 2 2 5-12 6-2v-6l3-4z" fill="#B5B4BF"/>
<path transform="translate(1051,438)" d="m0 0 4 1-1 5-8 4-5 5v3 6l-6 4-3 1-2 5-5 6h-2l-3 9-4 9-5 1v4h-6l-5 5-3 4-1 3h-2v2l-4 2 2-5 2-2-2-2 4-2 2-2 7-6h2l1-4h2l1-4 3-2v2l4-4 5-12v-2l2-1-1-5 4-1v-2l-3-1 1-3h-3l-3 3-1-3 9-6 7-8 10-6z" fill="#5E5F61"/>
<path transform="translate(954,561)" d="m0 0 1 4-10 13-4 7-5 2-1 5-10 10-1 9-6 8-2 4-5 4-2 9 1 5-3 5-5 5-5 9-6 4-3 6h-2l-1 4-10 6-10 8-8 1-4 2-2 3-7 2-3-1-1 3h-5l-1-4 4 1 9-5 5-1 3-2 9-2 14-10 4-2 2-5 8-8h2v-6l5-5 5-6v-10l5-10 3-7 3-1v-2l4-2 2-12 3-6 4-2 4 2 2-6 6-5 3-6 3-3 2-5 5-5z" fill="#6D6B6D"/>
<path transform="translate(1035,571)" d="m0 0 4 2 4 5 7 3 3 7v7l-4 7-5 4-3 1h-9v-23z" fill="#606162"/>
<path transform="translate(1398,594)" d="m0 0h8l1 42-5 3h-7l-1-3v-39z" fill="#0D0B0E"/>
<path transform="translate(1127,604)" d="m0 0h8l5 7 1 8-2 7-4 1-6 5-8 2-2-11-4-10-2-6h7z" fill="#C5C4C6"/>
<path transform="translate(1063,436)" d="m0 0h3v2l-2 1v8l-3 5-6 1h-2l-3 4h-2v2h-2l-2 5-5 5-1 3-7 4 1 5-2 7-3 5h-2l-1 5-4 9-1 13-5 1v3l-7-1v2l-5 1-1 5h-2v4l-4 1v-5l4-4 2-3h2l-1-3 2-5 9 1h2v-7l2-4-1-2 1-2h2l1-6h3l-1-3 1-3-1-3 3-8h2l1-4 3-3h2v-3l9-6 2-7h2l2-6 9-5h2v-7z" fill="#8F8E8E"/>
<path transform="translate(1083,628)" d="m0 0h9l3 1v2l4 2 5 2 1 6-3 1-2 10 9-6 3-4 2-5 2-1h3l6 2-3 3-15 10-5 2v2l-6-2 1-10h-7l-3-6-4-2-8 7-1 2h-2l-6-8-5 1-7 2 1-2h3l2-4 12-1 4 2h5l-1-4z" fill="#A19FA3"/>
<path transform="translate(1069,816)" d="m0 0 17 1 214 20v1h-19l-15-2-82-7-34-2-2-1-29-2-2-1-36-3-12-2z" fill="#110F12"/>
<path transform="translate(778,799)" d="m0 0 3 1 8 11 7 2 18 4 2 6-3 3 1 8-4 1-8-4-10-9-11-14-3-6z" fill="#837F80"/>
<path transform="translate(984,506)" d="m0 0h7l-2 4-11 8h-2v2h-2v2h2l-2 4-4 6-8 2-1-8v-8-3l-2-2 5-3z" fill="#514D51"/>
<path transform="translate(998,716)" d="m0 0 5 3v4l-15 7-19 5-5 1h-8l3-3h2v-3l5-5 4-2 9-1 2-1 9-1z" fill="#9A9892"/>
<path transform="translate(928,521)" d="m0 0h11v6l-2 9-4 6-8 7-6-2-1-3 2-7-2-3 4-4z" fill="#868283"/>
<path transform="translate(955,570)" d="m0 0 3 1-2 9-6 12-6 2-2 5-3 3-2 7-6 5-4-1 1-10 4-4h2l2-5 4-7 5-5 5-6 3-5z" fill="#8F8E8E"/>
<path transform="translate(1173,430)" d="m0 0h7l8 4 3 4v8l-4 8-4 5-5-1-3-6v-19l1-2z" fill="#E2E3E3"/>
<path transform="translate(1102,607)" d="m0 0h8l4 1 4 9 2 6v7l-2-2-2-8-3 1-1-2-3 10-2 3-4-1-15-9v4l-2-1 1-5 8 2v-3l4-1h1v-4h3z" fill="#8F8E8E"/>
<path transform="translate(1367,528)" d="m0 0 13 4 14 9v2l-19 6-6 4-3-1 2-1-1-8z" fill="#EFD55C"/>
<path transform="translate(970,641)" d="m0 0h6l1 3-8 13-2 3h-2l-2 4-9 8-2 4-5 1-1 2h-4l-1 3h-5v-3l9-6 4-4 4-6 6-3 4-10 4-7z" fill="#999791"/>
<path transform="translate(1087,660)" d="m0 0h2l-2 10-2 7-1 10-4 4-8 1-1-19 10-9z" fill="#0D0B0E"/>
<path transform="translate(983,529)" d="m0 0 3 1-1 8h-2l-1 6-4 11-8 1v11l-3 1-5-5 2-8 3-1 2-9 4-2 1-5 7-8z" fill="#908F8E"/>
<path transform="translate(1475,374)" d="m0 0h1l-1 31-6 66-1 3-2 23h-1v-18l2-29v-11l3-32 3-17z" fill="#1B191C"/>
<path transform="translate(1028,705)" d="m0 0 1 4-6 68h-1l-1-5v-56l-1-6z" fill="#9E4A29"/>
<path transform="translate(1428,668)" d="m0 0 2 2 3 33 4 37 1 6 1-3 5-54 1-5h1v13l-3 34-1 4-2 32h-1l-1-9-2-4-2-13-1-15-2-15-1-13-2-18-1-4 1-5z" fill="#B9B6D6"/>
<path transform="translate(1083,621)" d="m0 0 3 2v2h-2v2l-6 1-1 2-6-1h-6l-1 3h-4l-2 5-7 4h-7l-6-2-3-3 2-1 1-5 2-5h3v-2h7v2l3 1-1 2-9 3-1 6 4-2 4 1 3 1 3-4h2l-1-4 7-4h2v2l11-1 2 1v-2h2v-3z" fill="#8F8E8E"/>
<path transform="translate(830,712)" d="m0 0 7 2v3l4 1-1-3 6-2 4 2-1 2-1 6h7v5l-10 2h-7l-1-7h-6l-1-7-3-3z" fill="#A19FA4"/>
<path transform="translate(954,694)" d="m0 0h4v3l3 1v2l4 1v2l-8 3-4 4h-3l-1 3-4 1-5-3-1-4 4-5 4-2 4-5z" fill="#A19FA4"/>
<path transform="translate(1035,571)" d="m0 0 4 2 4 5 7 3 3 7v7l-4 7-4 2-1-2 4-5-2-6-4 1-2-2v-3h-2l-3-7-2 1z" fill="#868181"/>
<path transform="translate(1056,432)" d="m0 0h6l3 2v2l-5 3-1 6-9 5h-2l-2 6-2 1-1 6-8 6h-2v3l-5 4-2-1 10-12 4-1v-6-3l5-5 7-4 2-1v-4h-7l4-5z" fill="#868283"/>
<path transform="translate(1052,675)" d="m0 0h6l3 3v5l-10 6-8 5-3 3-3-1 3-15h8l2-5z" fill="#A2A0A5"/>
<path transform="translate(1063,436)" d="m0 0h3v2l-2 1v8l-3 5-6 1h-2l-3 4h-2v2h-2l-2 5-5 5-1 3-7 4 1 5-2 7-2-2 1-12 4-2v-3l9-6 2-7h2l2-6 9-5h2v-7z" fill="#959390"/>
<path transform="translate(964,662)" d="m0 0 1 2-7 8-1 1-1 7h-3v-2l-5 1-2 3-5 2h-6l-3 5-14 6-9 1-7 4-5-2 1-2h7l9-4h6v-2l3-2 6-1 1-2-5 1h-12l2-2 16-1 5-6 2 1-2 3h5l1-2h4l1-3 5-1 3-5 8-7z" fill="#A19FA4"/>
<path transform="translate(925,685)" d="m0 0h5l-1 3-9 2v2l-12 3-3 2h-7l-6 2 1-4-1-3 1-3 4-1 6 1 4-3z" fill="#908F8E"/>
<path transform="translate(1255,528)" d="m0 0 6 1 3 4-1 7-7 11-3 3h-2v-19z" fill="#EED45C"/>
<path transform="translate(1023,458)" d="m0 0 3 1v3l2 1v2l-3 2 1 4-3 1 1 3-5 5-2 1-1-2-5-3 1-6-1-3 6-7 5-1z" fill="#4F4B4F"/>
<path transform="translate(1202,539)" d="m0 0 1 3-5 13-5 6-3 1-3-5 1-10 3-6 7-1z" fill="#F0D65C"/>
<path transform="translate(942,512)" d="m0 0h16l-3 2 3 5-3 1 1 5-3 5h-2v2h-2v2h-2v-2h-2v-2l-4-2v-3h2l2-5 2-4 1-3h-6z" fill="#868283"/>
<path transform="translate(1467,440)" d="m0 0h1l-1 26-1 13v28l-1 11h-1l-1-6v-14l-3 27h-1v-10l7-74z" fill="#6A696B"/>
<path transform="translate(1253,311)" d="m0 0 2 2 1 3v17l-6 19-4 4-8 3-9 1h-10l3-2 9-1 8-3 4-5 1-3 5-5 4-8 1-9z" fill="#908E91"/>
<path transform="translate(1067,533)" d="m0 0h1v20l-14 6-1-3 8-16z" fill="#EED45C"/>
<path transform="translate(1430,304)" d="m0 0h1v61l18 1 25 3 2 5-3 24-2 9h-1v-10l3-27-19-1-21-2-3-1z" fill="#726F71"/>
<path transform="translate(1087,603)" d="m0 0h5l1 3-1 3-4 2-2 5h-4l-2-1-1 4-10 2-1-4 8-7z" fill="#534F53"/>
<path transform="translate(938,562)" d="m0 0 3 1-2 4-4 5h-3l-1 7-4 7-5 7-4 7h-3l1-9 8-10 6-11 3-5z" fill="#4F4B4F"/>
<path transform="translate(1059,621)" d="m0 0h5l2 4-8 4v4h-2l-2 4-5 1v-2l-7 1v-6l5-3 5-1-2-4z" fill="#868283"/>
<path transform="translate(1393,304)" d="m0 0h37v62l-3-1 1-1v-58h-35z" fill="#09070A"/>
<path transform="translate(801,675)" d="m0 0 2 1-1 4h-4l1 3-6 4h-2v2l2 1-17 9-5 5-3 1v-2l-2-1 5-3h2v-2l11-9 11-10z" fill="#716F71"/>
<path transform="translate(1151,655)" d="m0 0 6 1v13l-3 9-1 2-4-2-1-2v-13z" fill="#E4E4E4"/>
<path transform="translate(834,634)" d="m0 0 2 1v7h2l1 4-3 5-5 4-1 2h-2l-2 5h-2l1-9 6-17h2z" fill="#9A9893"/>
<path transform="translate(1174,314)" d="m0 0h1l1 8h2v2h2l6 14 6 7 6 5 9 5 12 3v1h-16l1-3h-2v-2l-5-1-7-6v-2l-4-2-5-6-4-9-2-5-2-7z" fill="#595659"/>
<path transform="translate(1253,308)" d="m0 0h8v1l-6 1v2h2l5 10v6l-3 6-3 4-1 7-2 2-2 6-3 3-2-1 3-3 6-19v-17l-2-5z" fill="#AEADB4"/>
<path transform="translate(1192,314)" d="m0 0h6l2 2 1 5v8h-8l-2-2-2-1-1-6z" fill="#524F52"/>
<path transform="translate(1397,662)" d="m0 0 7 1 4 5v3l-7 4-5-1-5-5 1-4z" fill="#141215"/>
<path transform="translate(867,628)" d="m0 0h4l-1 12-4 5h-4l-4-12 2-3z" fill="#868283"/>
<path transform="translate(860,610)" d="m0 0h2l1 7h2l2 6 2 1-4 4h-8l-1-1v-11z" fill="#5D5E60"/>
<path transform="translate(973,636)" d="m0 0 6 3v5l-4 4 1-6h-6l-3 1-2 4-4 12-5 4-3 1-6 9-5 3-2-1 8-7 4-6 4-1 2-4 4-11 3-5 4-2 1-2z" fill="#A19FA4"/>
<path transform="translate(880,700)" d="m0 0h2l-2 4h-2l-1 4h-6v3l-6 3-3 2-4-1-2-3v-5l2-1h8l9-2h2l1-3z" fill="#8F8E8E"/>
<path transform="translate(1022,478)" d="m0 0 1 2-7 16-5 1v4h-6l-5 5-3 4-1 3h-2v2l-4 2 2-5 2-2-2-2 4-2 2-2 7-6h2l1-4h2l1-4 3-2v2l4-4z" fill="#6D6B6D"/>
<path transform="translate(1108,598)" d="m0 0h17l9 5v2h-7l-7 3-7-1-1-3 4-4-8-1z" fill="#939192"/>
<path transform="translate(999,671)" d="m0 0h6l1 1v5l-6 3-12-1-3-2 1-3 6-2z" fill="#C5C4C6"/>
<path transform="translate(1038,626)" d="m0 0 3 2h-2l-2 7-1 3 15 3v2h-6v2l-10 2-2-2v-3l-3-1 1-4 2-6 4-2z" fill="#A19FA4"/>
<path transform="translate(1066,436)" d="m0 0 2 2v6h-2l-1 8-5 5-1 2-7-1-4 3-3 5h-2v2h-2l2-4 3-5h2v-2l5-5h6l3-3 1-2v-9h3z" fill="#A19FA4"/>
<path transform="translate(1138,610)" d="m0 0 2 1 1 8-2 7-4 1-6 5-8 2v-2h2l1-8 5-2 5 1 4-4z" fill="#B5B4BE"/>
<path transform="translate(1035,558)" d="m0 0h3l8 16 2 6-5-1-6-7-2-1z" fill="#AFAEAF"/>
<path transform="translate(975,699)" d="m0 0 5 1v3l-3 3h-5l-4 5h-3l-2 4-6-1v-3l3-2h3l1-3 10-6z" fill="#C5C4C6"/>
<path transform="translate(1454,568)" d="m0 0h1l1 16-3 37-3 1v-12z" fill="#757376"/>
<path transform="translate(950,698)" d="m0 0 3 1 3 2 4-1v3l-5 1-1 4-7 4-4-1-2-3 7-7z" fill="#989691"/>
<path transform="translate(1035,571)" d="m0 0 4 2 4 5 7 3 1 9-4-1-3-1-3-6-7-5z" fill="#91908F"/>
<path transform="translate(1206,319)" d="m0 0 5 1 6 4 1 4v4l-9 1-3-3 2-1-1-5z" fill="#827F80"/>
<path transform="translate(1463,487)" d="m0 0h1v15l-2 28-1 3-2 23-2 2 1-18z" fill="#B0AADD"/>
<path transform="translate(1451,614)" d="m0 0h1v14l-3 43-1 9-2 2v-14z" fill="#C5C0F9"/>
<path transform="translate(1083,621)" d="m0 0 3 2v2h-2v2l-6 1-1 2-6-1h-6l-1 3h-4l-2 5-5 2 3-6h2l-1-4 7-4h2v2l11-1 2 1v-2h2v-3z" fill="#8F8E8E"/>
<path transform="translate(874,692)" d="m0 0h3l-2 6-8 6-6-1 1-6 8-4z" fill="#A19FA4"/>
<path transform="translate(1022,796)" d="m0 0h1l-1 16h11l32 3 4 2h-9l-29-2-11-2 1-16z" fill="#09070A"/>
<path transform="translate(1036,584)" d="m0 0h2v3h2l2 4h4l3 6-1 3h-3v5l-4 2h-3v-2l3-2 2-6-6-4-1-2z" fill="#6E6C6E"/>
<path transform="translate(974,726)" d="m0 0 2 1v3l9-2v3l-16 4h-8l3-5z" fill="#908F8F"/>
<path transform="translate(1274,527)" d="m0 0 5 1-1 4-2 5-1 6v13h9l6-2-1 3-9 2-6-2-2-3v-7l-4 1 2-4 4-9z" fill="#F8DD61"/>
<path transform="translate(1117,635)" d="m0 0 8 3-3 3-15 10-5 2-1 2 1-4 8-6 4-8 2-1z" fill="#A4A2A7"/>
<path transform="translate(981,534)" d="m0 0h3l-1 5-6 10-1 3-5-1v-3h2l3-10z" fill="#A9A7A7"/>
<path transform="translate(1051,438)" d="m0 0 4 1-1 5-8 4-5 5v3 6l-5 3-3-3v-2l7 1-2-5-3-2 4-1v-3l6-4h2l2-6-4-1z" fill="#6D6B6D"/>
<path transform="translate(1279,642)" d="m0 0h7l3 2-1 4-8 4h-4v-6z" fill="#DDDEDE"/>
<path transform="translate(915,536)" d="m0 0h3l-2 6-3 8-4 10-1 2h-2v-7l5-12 2-5z" fill="#4F4B4F"/>
<path transform="translate(984,509)" d="m0 0 4 1-10 8-6 3-3-1v-4l4-2-1-2z" fill="#09070A"/>
<path transform="translate(1253,311)" d="m0 0 2 2 1 3v17l-4 11-5 6-4 1 1-5 5-5 4-8 1-9z" fill="#575458"/>
<path transform="translate(1092,601)" d="m0 0h8v4l-2 1-2 7-4 2-1-4-3 5-2-1 2-5 4-1v-5l-3-2z" fill="#6E6C6E"/>
<path transform="translate(911,724)" d="m0 0h7l1 4 4 2v5h-5l-1-3h-6l-1-6z" fill="#C5C4C6"/>
<path transform="translate(844,657)" d="m0 0v3l-4 2-4 5-9 2-4 4-6-1 4-1v-3l5-2 9-5z" fill="#6F6D6F"/>
<path transform="translate(1032,584)" d="m0 0h2l2 10h2l1 2v6l-3 2h-4z" fill="#524E52"/>
<path transform="translate(1156,544)" d="m0 0 6 1v2h2v3l-9 6h-3v-7z" fill="#EDD35D"/>
<path transform="translate(1248,294)" d="m0 0 5 1-3 9-6 6v-2l-3-1 4-10z" fill="#4F4B4F"/>
<path transform="translate(636,741)" d="m0 0h7v2l-35 8h-2v-2l20-6z" fill="#221F22"/>
<path transform="translate(1063,436)" d="m0 0h3v2l-2 1v8l-3 5-6 1h-2l-3 4h-2v2l-2-1 4-6h2l1-3 7-1 1-1v-10z" fill="#999791"/>
<path transform="translate(1256,305)" d="m0 0h39v1l-26 2h-16v-2z" fill="#A44A27"/>
<path transform="translate(1127,604)" d="m0 0h8v2l-12 6-7-1-1 2-2-6h7z" fill="#AEADB1"/>
<path transform="translate(1043,565)" d="m0 0 1 2 8-1-1 9-1 6-3-3-5-10z" fill="#E7E8E8"/>
<path transform="translate(1428,668)" d="m0 0 2 2 3 33v8h-2l-1-13-2-18-1-4 1-5z" fill="#B5B4B7"/>
<path transform="translate(1055,650)" d="m0 0 1 2 3 1-2 5 2 4-4 1h-2l-3 1-3-5 3-3h3l-1-3z" fill="#C4C3C5"/>
<path transform="translate(1080,615)" d="m0 0 6 1v3l-10 3-4 2h-7l-4-3 7-4 1 3 10-2z" fill="#6E6C6E"/>
<path transform="translate(950,550)" d="m0 0h3l-2 9-2 4-4-1v-2l-3 1-2-2 3-3h2v-3z" fill="#4F4B4F"/>
<path transform="translate(1059,438)" d="m0 0h2l1 9-5 3h-4l-6 8-1 3-3-1 1-4h2l2-6 9-5h2z" fill="#8F8E8E"/>
<path transform="translate(1188,345)" d="m0 0h2l5 5 4 3 3 1v2h2l-1 5h-2l-1-2-3-3-3-1 1 7-3-2 1-7h-2z" fill="#BAB9BB"/>
<path transform="translate(1086,607)" d="m0 0h6v2l-4 2-2 5h-4l-2-1-1 4-10 2-1-3 9-2 2-2 5-2 1-4z" fill="#5E5F61"/>
<path transform="translate(1380,518)" d="m0 0 2 4 18 10 5 2-3 3-9-6-8-4-11-3 5-5z" fill="#FADF62"/>
<path transform="translate(1210,551)" d="m0 0h2l5 8 7 4 7 1v1h-9l-8-6-3-3h-2l-5 6-5 4-4 1v-2l9-6z" fill="#F9DF61"/>
<path transform="translate(948,671)" d="m0 0 1 2 4-1-1 4-5 1-1 2h-4l-1 3h-5v-3l9-6z" fill="#9A9892"/>
<path transform="translate(903,534)" d="m0 0h2l1 5 9-3-2 5-2 6h-2l-1 5h-2l1-5 1-6-4 2-2-2z" fill="#5F6062"/>
<path transform="translate(1291,527)" d="m0 0 3 1 1 3-5 11-3 5-1-3 2-10z" fill="#F7DC61"/>
<path transform="translate(1028,475)" d="m0 0h1v13l-4 4-2 3-1-2 1-3-1-3 3-8h2z" fill="#8F8E8E"/>
<path transform="translate(1069,816)" d="m0 0 17 1 10 1 1 3-16-1-12-2z" fill="#171518"/>
<path transform="translate(903,656)" d="m0 0 1 4-4 3-1 3h-2v5l-9 6-2-1 4-5h2l2-6 6-5z" fill="#92918F"/>
<path transform="translate(983,529)" d="m0 0 3 1-1 8-1-4-7 4-4 10h-2l1 4h-2v-5l6-12z" fill="#959490"/>
<path transform="translate(852,580)" d="m0 0 5 3 1 2-3 6-7 4 3-12z" fill="#908F90"/>
<path transform="translate(978,587)" d="m0 0h5l1 6v6h-4l-2-2z" fill="#C5C4C6"/>
<path transform="translate(1422,594)" d="m0 0h1l1 16 1 7v17l-2-4-2-5 1-10z" fill="#B5B4B7"/>
<path transform="translate(1458,527)" d="m0 0h1v13l-1 18v6l-3 3v-10z" fill="#6B6A6C"/>
<path transform="translate(1463,512)" d="m0 0h1v18l-1 17h-1l-1-7h-1v-7l2-12z" fill="#38373A"/>
<path transform="translate(1194,316)" d="m0 0 4 1 1 5 1 7h-5l-1-1z" fill="#D1D1D2"/>
<path transform="translate(1006,681)" d="m0 0 4 1v3h-2l-2 6h-6l1-4z" fill="#C5C4C6"/>
<path transform="translate(1043,440)" d="m0 0h6l-1 4-9 4-3 1 1-4 3-3z" fill="#524E52"/>
<path transform="translate(987,691)" d="m0 0h5l1 6-2 2-7-1 1-5z" fill="#C5C4C6"/>
<path transform="translate(1028,488)" d="m0 0 1 3-4 2-1 5-4 9-4-2 1-3h2l1-6 3-1 2-4z" fill="#94928F"/>
<path transform="translate(925,685)" d="m0 0h5l-1 3-9 2v2l-12 2 4-3 7-1v-3h-6v-1z" fill="#9A9892"/>
<path transform="translate(1308,532)" d="m0 0 2 2 3 6 3 2v-8h1l2 10 4 5h-5l-4-5-4-4-2-4z" fill="#FBE062"/>
<path transform="translate(1454,568)" d="m0 0h1l1 16-1 9h-1l-1 6h-1l1-21z" fill="#636164"/>
<path transform="translate(1120,551)" d="m0 0h5v4l-9 6-1-3 4-6z" fill="#F2D85F"/>
<path transform="translate(968,540)" d="m0 0 2 1-10 15-3 5-2-1v-5l7-6z" fill="#6D6B6D"/>
<path transform="translate(1036,472)" d="m0 0 2 1-4 2v11l-5 5 2-11-1-4z" fill="#A19FA4"/>
<path transform="translate(1195,350)" d="m0 0 6 1 6 4 12 3v1h-16l1-3h-2v-2l-5-1z" fill="#5E5C5F"/>
<path transform="translate(909,762)" d="m0 0h2v2h2v3l-10 5h-4l1-3 8-4z" fill="#908F8F"/>
<path transform="translate(854,731)" d="m0 0h5l-2 4-4 3-7 2-2-4 8-1z" fill="#B5B4BF"/>
<path transform="translate(1079,657)" d="m0 0 5 1 7-1-4 4-7 5-2-1 1-2-1-4z" fill="#B3B2BA"/>
<path transform="translate(1035,569)" d="m0 0 4 2 6 1 3 6-1 2-5-2-5-6-2-1z" fill="#A5A3A8"/>
<path transform="translate(1376,532)" d="m0 0 5 1 13 8v2l-5 1-5-6-8-5z" fill="#FBE062"/>
<path transform="translate(1217,505)" d="m0 0h1v6l3 1h-2l1 2v16l-2-3-1-6z" fill="#D3B961"/>
<path transform="translate(1464,488)" d="m0 0h1l1 9v10l-1 11h-1l-1-6v-10z" fill="#575558"/>
<path transform="translate(1221,535)" d="m0 0 2 4 4 9 5 6 5 1 1 6-5-4-8-7-4-9z" fill="#FADF61"/>
<path transform="translate(1251,344)" d="m0 0 1 2-2 6-9 4-4-1 7-5 4-2z" fill="#8F8D8C"/>
<path transform="translate(1174,314)" d="m0 0h1l1 8h2l5 13-1 4-4-8-3-8-2-7z" fill="#828082"/>
<path transform="translate(780,691)" d="m0 0 2 1-6 7-5 5-3 1v-2l-2-1 5-3h2v-2z" fill="#797779"/>
<path transform="translate(979,536)" d="m0 0 1 2-2 1-3 7 4-1-3 7-5-1v-3h2l3-10z" fill="#A19FA4"/>
<path transform="translate(1298,546)" d="m0 0 8 5 9 1v1l-7 1-8-3-6 1v2h-2l2-4z" fill="#FBE062"/>
<path transform="translate(1193,315)" d="m0 0h6l2 6v8h-1l-3-10 1-2-4-1 1 13h-2z" fill="#6F6D6F"/>
<path transform="translate(867,592)" d="m0 0 2 1-1 8-5 5v-6z" fill="#5E5F61"/>
<path transform="translate(1440,745)" d="m0 0h1v10l-1 12h-1v-14h-2v-7z" fill="#9594B0"/>
<path transform="translate(977,655)" d="m0 0 4 2 1 4-2 2h-4l-1-6z" fill="#C5C4C6"/>
<path transform="translate(1037,631)" d="m0 0 2 2v5h8l6 1-2 2h-7l-6-2-3-3 2-1z" fill="#9A9892"/>
<path transform="translate(1041,577)" d="m0 0 9 4v7l-1-2-4-2-4-4z" fill="#9C9A94"/>
<path transform="translate(906,533)" d="m0 0 9 1v2l-8 4-2-1v-5z" fill="#595659"/>
<path transform="translate(1051,438)" d="m0 0 4 1-1 5-7 1 2-5-4-1z" fill="#666668"/>
<path transform="translate(770,785)" d="m0 0 3 1 5 10 1 4-1 2-4-5-1-5-3-5z" fill="#898787"/>
<path transform="translate(917,562)" d="m0 0 4 4-2 2-7 2v-5z" fill="#868283"/>
<path transform="translate(1018,510)" d="m0 0h1v10l-5 1v3l-7-1v2l-3-1 2-2 6-2 6-1-1-7z" fill="#9A9892"/>
<path transform="translate(867,713)" d="m0 0 3 1h-2l-2 6-3 2-8 1 2-2 4-2-1-2 7-2z" fill="#A19FA4"/>
<path transform="translate(891,577)" d="m0 0 4 1-1 6-3 4h-2z" fill="#5E5F61"/>
<path transform="translate(1136,625)" d="m0 0h2l-2 5-2 3-11 1 2-2 7-3z" fill="#A7A6A5"/>
<path transform="translate(864,727)" d="m0 0 4 1 2 5-4 1-5-1v-2h2z" fill="#B5B4BF"/>
<path transform="translate(895,688)" d="m0 0 2 1-2 4v2h7l3 2h-7l-6 2 1-4-1-3 1-3z" fill="#9A9892"/>
<path transform="translate(1332,526)" d="m0 0h1v11l3 3 8-1-3 3h-8l-2-2v-11z" fill="#FBE062"/>
<path transform="translate(1472,386)" d="m0 0h2l-1 12-2 9h-1v-10z" fill="#5B595C"/>
<path transform="translate(1385,526)" d="m0 0 6 1 10 6 4 2-3 2-9-6-8-4z" fill="#F8DE61"/>
<path transform="translate(844,803)" d="m0 0 4 1-8 7-3-3v-2h2l1-2z" fill="#A09EA2"/>
<path transform="translate(1116,600)" d="m0 0 4 1-1 2 2 1-6 1v2l-3-1 2-5z" fill="#8F8E8E"/>
<path transform="translate(1256,529)" d="m0 0h5l3 4-1 7-4 6v-3l2-4-1-9z" fill="#FADF61"/>
<path transform="translate(1253,311)" d="m0 0 2 2 1 3v17h-1l-2-15z" fill="#747273"/>
<path transform="translate(619,745)" d="m0 0 3 1v2l-16 3v-2z" fill="#2F2F31"/>
<path transform="translate(1043,623)" d="m0 0h7l-3 3h-3l-2 4-4 1 2-6h3z" fill="#9A9893"/>
<path transform="translate(1131,602)" d="m0 0 3 1v2h-7l-7 3-5-1v-1l9-3z" fill="#A09EA3"/>
<path transform="translate(913,603)" d="m0 0h3l-1 7h-5l1-5z" fill="#4F4B4F"/>
<path transform="translate(916,706)" d="m0 0h5l3 2v2l-5 2-2-1z" fill="#ACABA9"/>
<path transform="translate(987,518)" d="m0 0 2 1-3 6-4 2-1 2-3-1 7-8h2z" fill="#6C6A6C"/>
<path transform="translate(1209,324)" d="m0 0 5 1 1 4-1 2-5-2z" fill="#DADADB"/>
<path transform="translate(983,529)" d="m0 0 3 1-1 8-1-4h-5l2-4z" fill="#92908F"/>
<path transform="translate(1175,323)" d="m0 0 2 1 3 10 4 7-4-1-5-14z" fill="#BBBABD"/>
<path transform="translate(1249,295)" d="m0 0 3 1-2 8h-3l-1-4z" fill="#636264"/>
<path transform="translate(1231,276)" d="m0 0 7 3v4l-5-1-2-2z" fill="#545255"/>
<path transform="translate(1088,818)" d="m0 0h8l1 3-16-1v-1z" fill="#353235"/>
<path transform="translate(1031,463)" d="m0 0 4 2-1 2h-2l-2 5-2 1 2-9z" fill="#6D6B6D"/>
<path transform="translate(945,684)" d="m0 0 4 1-1 4-3 2-2-1 1-5z" fill="#B5B4BF"/>
<path transform="translate(864,631)" d="m0 0 3 1 1 4-1 2-4-1-1-4z" fill="#8F8E8E"/>
<path transform="translate(1128,600)" d="m0 0 3 1v2l-7 1-4 2h-5l4-2 5-3z" fill="#979692"/>
<path transform="translate(959,537)" d="m0 0h6v5l-3 2-3-5z" fill="#4F4B4F"/>
<path transform="translate(1206,319)" d="m0 0 4 1 3 4h-4v5l-2-1z" fill="#696769"/>
<path transform="translate(1027,812)" d="m0 0 12 1v2h-8l-4-1z" fill="#272528"/>
<path transform="translate(757,759)" d="m0 0h2l2 6-1 3h-2l-2-7z" fill="#6E6C6E"/>
<path transform="translate(859,619)" d="m0 0 4 2v4h-5v-5z" fill="#4F4B4F"/>
<path transform="translate(1029,476)" d="m0 0 2 1 1 4-2 7-2-2z" fill="#9A9892"/>
</svg>
